<svg width="50" height="50" viewBox="0 0 50 50" fill="none" xmlns="http://www.w3.org/2000/svg">
<path d="M14.5731 14.5965C13.7595 15.4101 13.7595 16.7292 14.5731 17.5428L22.0421 25.0118L14.5731 32.481C13.7595 33.2945 13.7595 34.6137 14.5731 35.4272C15.3867 36.2408 16.7058 36.2408 17.5194 35.4272L24.9884 27.9581L32.4576 35.4272C33.2711 36.2408 34.5903 36.2408 35.4038 35.4272C36.2173 34.6137 36.2173 33.2945 35.4038 32.481L27.9346 25.0118L35.4038 17.5428C36.2173 16.7292 36.2173 15.4101 35.4038 14.5966C34.5901 13.783 33.2711 13.783 32.4576 14.5966L24.9884 22.0656L17.5194 14.5965C16.7058 13.7829 15.3867 13.7829 14.5731 14.5965Z" fill="#FF4043"/>
</svg>
