<svg width="53" height="53" viewBox="0 0 53 53" fill="none" xmlns="http://www.w3.org/2000/svg">
<path d="M6.25 19.7917H43.75M6.25 30.2083H43.75M16.6667 9.375V40.625M12.9167 40.625H37.0833C39.4169 40.625 40.5838 40.625 41.475 40.1708C42.259 39.7715 42.8965 39.134 43.2958 38.35C43.75 37.4587 43.75 36.2919 43.75 33.9583V16.0417C43.75 13.7081 43.75 12.5413 43.2958 11.65C42.8965 10.866 42.259 10.2286 41.475 9.82915C40.5838 9.375 39.4169 9.375 37.0833 9.375H12.9167C10.5831 9.375 9.41633 9.375 8.52504 9.82915C7.74102 10.2286 7.1036 10.866 6.70415 11.65C6.25 12.5413 6.25 13.7081 6.25 16.0417V33.9583C6.25 36.2919 6.25 37.4587 6.70415 38.35C7.1036 39.134 7.74102 39.7715 8.52504 40.1708C9.41633 40.625 10.5831 40.625 12.9167 40.625Z" stroke="#005C90" stroke-width="4.16667"/>
<path d="M44.6484 18.5C45.4357 18.5 46.2163 18.6358 46.9561 18.9004L47.2705 19.0215L47.5791 19.1582C48.289 19.4941 48.9366 19.9503 49.4932 20.5068C50.05 21.0636 50.5058 21.7116 50.8418 22.4219L50.9785 22.7295L51.0996 23.0439C51.3641 23.7836 51.5 24.5642 51.5 25.3516C51.5 26.2512 51.3225 27.1417 50.9785 27.9727V27.9736C50.6772 28.7009 50.2531 29.37 49.7256 29.9521L49.4932 30.1963L31.1104 48.5791L31.1094 48.5781C30.7865 48.901 30.3957 49.1459 29.9658 49.2939L29.7783 49.3516L22.2891 51.3945C21.3156 51.6599 20.2785 51.4174 19.5254 50.7588L19.3789 50.6211C18.6177 49.8599 18.3224 48.7494 18.6055 47.7109L20.6484 40.2217L20.7061 40.0352C20.854 39.605 21.0977 39.2128 21.4209 38.8896L39.8037 20.5068L40.0479 20.2744C40.63 19.7469 41.2991 19.3228 42.0264 19.0215L42.3408 18.9004C43.0806 18.6358 43.8611 18.5 44.6484 18.5ZM44.6484 24.5C44.5368 24.5 44.4255 24.5217 44.3223 24.5645C44.2191 24.6072 44.125 24.6709 44.0459 24.75L26.2266 42.5684L25.7754 44.2236L27.4307 43.7725L45.251 25.9531C45.33 25.874 45.3929 25.7798 45.4355 25.6768C45.4781 25.5739 45.5 25.4634 45.5 25.3516C45.5 25.2395 45.4782 25.1284 45.4355 25.0254C45.3929 24.9225 45.3298 24.8291 45.251 24.75L45.1885 24.6934C45.1238 24.6403 45.052 24.5965 44.9746 24.5645C44.8712 24.5216 44.7603 24.5 44.6484 24.5Z" fill="#005C90" stroke="#262D37" stroke-width="3"/>
</svg>
