<svg width="50" height="50" viewBox="0 0 50 50" fill="none" xmlns="http://www.w3.org/2000/svg">
<path d="M20.3887 10.1807C23.0995 7.9396 26.9004 7.93961 29.6113 10.1807L39.3066 18.1973C40.6934 19.344 41.4999 21.1019 41.5 22.959V35.46C41.4998 38.7848 38.9587 41.5 35.7998 41.5H32.2002C31.0405 41.5 30.0998 40.5601 30.0996 39.4004V33.5459C30.0995 30.511 27.7876 28.1055 25 28.1055C22.2124 28.1055 19.9005 30.511 19.9004 33.5459V39.4004C19.9002 40.56 18.9595 41.5 17.7998 41.5H14.2002C11.0414 41.5 8.50017 38.7848 8.5 35.46V22.959C8.5001 21.1019 9.30663 19.344 10.6934 18.1973L20.3887 10.1807Z" stroke="#D9D9D9" stroke-width="3"/>
</svg>
