<svg width="191" height="41" viewBox="0 0 191 41" fill="none" xmlns="http://www.w3.org/2000/svg">
<g clip-path="url(#clip0_8470_660)">
<g clip-path="url(#clip1_8470_660)">
<path fill-rule="evenodd" clip-rule="evenodd" d="M128.232 25.8356L133.992 12.3578V25.8356H128.232ZM122.682 40.491H107.566L127.717 0.894531H143.323L148.262 40.491H134.631V34.8469H124.753L122.68 40.491H122.682Z" fill="#2A2B6A"/>
<path d="M170.399 41C164.301 41 159.374 39.2988 155.756 35.9421C152.12 32.571 150.277 28.0001 150.277 22.3559C150.277 19.2747 150.838 16.3044 151.945 13.5235C153.054 10.7412 154.671 8.2645 156.748 6.16247C158.728 4.17533 161.107 2.63341 163.815 1.57979C166.513 0.531382 169.472 0 172.609 0C176.306 0 179.589 0.755947 182.367 2.24695C185.148 3.73926 187.583 6.05541 189.608 9.13011L189.987 9.70458L180.771 16.0185L180.4 15.3474C179.524 13.7637 178.428 12.5678 177.144 11.7922C175.847 11.0089 174.363 10.629 172.609 10.629C169.636 10.629 167.25 11.6761 165.317 13.8277C163.364 15.9989 162.414 18.6793 162.414 22.0204C162.414 24.7478 163.151 26.8642 164.666 28.4884C166.168 30.0995 168.111 30.8842 170.604 30.8842C171.537 30.8842 172.425 30.7745 173.241 30.5591C174.059 30.3436 174.824 30.0264 175.517 29.6151C175.832 29.4206 176.113 29.2064 176.37 28.9688L178.337 27.154H169.378L170.804 18.0448L191 18.0722L190.983 18.7864C190.827 25.6513 188.906 31.1231 185.274 35.0517C181.622 38.9985 176.618 40.9987 170.4 40.9987L170.399 41Z" fill="#2A2B6A"/>
<path fill-rule="evenodd" clip-rule="evenodd" d="M80.4382 40.491L83.3 19.7501L90.4808 40.491H104.622L112.003 0.894531H98.025L94.5816 21.8365L87.6229 0.894531H73.2792L66.1484 40.491H80.4382Z" fill="#2A2B6A"/>
<path d="M73.283 0.894531H52.8845L25.6094 20.6471L46.9464 40.491H66.1381L45.2928 20.5962L73.283 0.894531Z" fill="#005C90"/>
<path d="M46.6824 0.894531H26.2839L20.5988 5.73442L21.4732 0.894531H7.15001L0 40.491H14.2846L15.1602 35.6694L20.3446 40.491H39.5376L18.6922 20.5962L46.6824 0.894531Z" fill="#005C90"/>
</g>
</g>
<defs>
<clipPath id="clip0_8470_660">
<rect width="191" height="41" fill="white"/>
</clipPath>
<clipPath id="clip1_8470_660">
<rect width="191" height="41" fill="white"/>
</clipPath>
</defs>
</svg>
