<svg width="50" height="50" viewBox="0 0 50 50" fill="none" xmlns="http://www.w3.org/2000/svg">
<path fill-rule="evenodd" clip-rule="evenodd" d="M6.25 10.4166C6.25 9.266 7.18275 8.33325 8.33333 8.33325H14.5833C18.0351 8.33325 20.8333 11.1315 20.8333 14.5833V20.8333C20.8333 21.5637 20.708 22.2649 20.4777 22.9166H20.8333C24.2852 22.9166 27.0833 25.7147 27.0833 29.1666V35.4166C27.0833 38.8685 24.2852 41.6666 20.8333 41.6666H8.33333C7.18275 41.6666 6.25 40.7339 6.25 39.5833C6.25 38.4326 7.18275 37.4999 8.33333 37.4999H20.8333C21.984 37.4999 22.9167 36.5672 22.9167 35.4166V29.1666C22.9167 28.016 21.984 27.0833 20.8333 27.0833H14.5833H8.33333C7.18275 27.0833 6.25 26.1505 6.25 24.9999C6.25 23.8493 7.18275 22.9166 8.33333 22.9166H14.5833C15.7339 22.9166 16.6667 21.9839 16.6667 20.8333V14.5833C16.6667 13.4327 15.7339 12.4999 14.5833 12.4999H8.33333C7.18275 12.4999 6.25 11.5672 6.25 10.4166Z" fill="#D9D9D9"/>
<path fill-rule="evenodd" clip-rule="evenodd" d="M32.5019 30.2567C32.5019 28.5978 33.1609 27.0069 34.3339 25.8339C35.5069 24.6609 37.0978 24.0019 38.7567 24.0019C40.4156 24.0019 42.0065 24.6609 43.1795 25.8339C44.3525 27.0069 45.0115 28.5978 45.0115 30.2567C45.0115 31.9156 44.3525 33.5065 43.1795 34.6795C42.0065 35.8525 40.4156 36.5115 38.7567 36.5115C37.0978 36.5115 35.5069 35.8525 34.3339 34.6795C33.1609 33.5065 32.5019 31.9156 32.5019 30.2567ZM38.7567 21.5C37.3692 21.5 36.0015 21.8297 34.7665 22.462C33.5314 23.0943 32.4642 24.011 31.6529 25.1366C30.8416 26.2622 30.3094 27.5645 30.1002 28.9361C29.8909 30.3078 30.0106 31.7095 30.4494 33.0258C30.8881 34.3422 31.6334 35.5354 32.6238 36.5071C33.6142 37.4789 34.8213 38.2014 36.1458 38.6151C37.4702 39.0289 38.8739 39.1219 40.2414 38.8867C41.6088 38.6514 42.9007 38.0946 44.0108 37.2621C44.0463 37.3094 44.0852 37.3542 44.1271 37.396L47.88 41.1488C48.1159 41.3767 48.4319 41.5028 48.7599 41.5C49.0879 41.4971 49.4017 41.3655 49.6336 41.1336C49.8655 40.9017 49.9971 40.5879 50 40.2599C50.0028 39.9319 49.8767 39.6159 49.6488 39.38L45.896 35.6271C45.8542 35.5852 45.8094 35.5463 45.7621 35.5108C46.7378 34.2098 47.332 32.6628 47.4781 31.0431C47.6241 29.4235 47.3162 27.7951 46.589 26.3406C45.8617 24.8861 44.7438 23.6628 43.3604 22.8078C41.9771 21.9529 40.383 21.5 38.7567 21.5Z" fill="#D9D9D9"/>
</svg>
