<svg width="50" height="50" viewBox="0 0 50 50" fill="none" xmlns="http://www.w3.org/2000/svg">
<path d="M27.0833 43.7501C27.0833 44.3026 26.8638 44.8325 26.4731 45.2232C26.0824 45.6139 25.5525 45.8334 25 45.8334H16.6667C13.905 45.8301 11.2574 44.7316 9.30462 42.7788C7.35184 40.826 6.25331 38.1784 6.25 35.4167V14.5834C6.25331 11.8218 7.35184 9.17416 9.30462 7.22137C11.2574 5.26859 13.905 4.17006 16.6667 4.16675H25C25.5525 4.16675 26.0824 4.38624 26.4731 4.77694C26.8638 5.16764 27.0833 5.69755 27.0833 6.25008C27.0833 6.80262 26.8638 7.33252 26.4731 7.72322C26.0824 8.11392 25.5525 8.33341 25 8.33341H16.6667C15.0091 8.33341 13.4194 8.99189 12.2472 10.164C11.0751 11.3361 10.4167 12.9258 10.4167 14.5834V35.4167C10.4167 37.0743 11.0751 38.6641 12.2472 39.8362C13.4194 41.0083 15.0091 41.6667 16.6667 41.6667H25C25.5525 41.6667 26.0824 41.8862 26.4731 42.2769C26.8638 42.6676 27.0833 43.1975 27.0833 43.7501ZM43.1396 23.5272L34.8062 15.1938C34.6141 14.9949 34.3842 14.8361 34.13 14.727C33.8758 14.6178 33.6025 14.5603 33.3258 14.5579C33.0492 14.5555 32.7749 14.6082 32.5188 14.713C32.2628 14.8177 32.0302 14.9724 31.8346 15.168C31.639 15.3636 31.4843 15.5962 31.3795 15.8523C31.2748 16.1083 31.2221 16.3826 31.2245 16.6593C31.2269 16.9359 31.2843 17.2092 31.3935 17.4634C31.5027 17.7176 31.6614 17.9475 31.8604 18.1397L36.6375 22.9167H20.8333C20.2808 22.9167 19.7509 23.1362 19.3602 23.5269C18.9695 23.9176 18.75 24.4475 18.75 25.0001C18.75 25.5526 18.9695 26.0825 19.3602 26.4732C19.7509 26.8639 20.2808 27.0834 20.8333 27.0834H36.6375L31.8604 31.8605C31.6614 32.0527 31.5027 32.2826 31.3935 32.5367C31.2843 32.7909 31.2269 33.0643 31.2245 33.3409C31.2221 33.6175 31.2748 33.8919 31.3795 34.1479C31.4843 34.4039 31.639 34.6365 31.8346 34.8322C32.0302 35.0278 32.2628 35.1825 32.5188 35.2872C32.7749 35.392 33.0492 35.4447 33.3258 35.4423C33.6025 35.4399 33.8758 35.3824 34.13 35.2732C34.3842 35.164 34.6141 35.0053 34.8062 34.8063L43.1396 26.473C43.5301 26.0823 43.7495 25.5525 43.7495 25.0001C43.7495 24.4477 43.5301 23.9178 43.1396 23.5272Z" fill="#005C90"/>
</svg>
