<svg width="50" height="50" viewBox="0 0 50 50" fill="none" xmlns="http://www.w3.org/2000/svg">
<path d="M13.542 8.33341C10.6655 8.33341 8.33366 10.6653 8.33366 13.5417V14.5834C8.33366 15.734 7.40091 16.6667 6.25033 16.6667C5.09974 16.6667 4.16699 15.734 4.16699 14.5834V13.5417C4.16699 8.36408 8.36433 4.16675 13.542 4.16675H14.5837C15.7342 4.16675 16.667 5.0995 16.667 6.25008C16.667 7.40066 15.7342 8.33341 14.5837 8.33341H13.542Z" fill="#005C90"/>
<path fill-rule="evenodd" clip-rule="evenodd" d="M22.8329 12.5C21.4458 12.5 20.2801 12.4999 19.3262 12.5779C18.3289 12.6594 17.381 12.8363 16.4813 13.2948C15.1093 13.9938 13.9938 15.1093 13.2948 16.4813C12.8363 17.381 12.6594 18.3289 12.5779 19.3262C12.5408 19.7803 12.5214 20.2823 12.5112 20.8333H8.33333C7.18275 20.8333 6.25 21.766 6.25 22.9167C6.25 24.0673 7.18275 25 8.33333 25H41.6667C42.8173 25 43.75 24.0673 43.75 22.9167C43.75 21.766 42.8173 20.8333 41.6667 20.8333H37.4887C37.4787 20.2823 37.4592 19.7802 37.4221 19.3262C37.3406 18.3289 37.1637 17.381 36.7052 16.4813C36.0062 15.1093 34.8906 13.9938 33.5188 13.2948C32.619 12.8363 31.671 12.6594 30.6737 12.5779C29.72 12.4999 28.5542 12.5 27.1671 12.5H22.8329ZM33.3215 20.8333C33.3125 20.384 33.2969 20.0023 33.2694 19.6655C33.209 18.9258 33.1021 18.5874 32.9927 18.3729C32.6931 17.7849 32.215 17.3069 31.6271 17.0073C31.4127 16.898 31.0742 16.7911 30.3346 16.7307C29.5704 16.6683 28.5762 16.6667 27.0833 16.6667H22.9167C21.4237 16.6667 20.4295 16.6683 19.6655 16.7307C18.9258 16.7911 18.5874 16.898 18.3729 17.0073C17.7849 17.3069 17.3069 17.7849 17.0073 18.3729C16.898 18.5874 16.7911 18.9258 16.7307 19.6655C16.7032 20.0023 16.6875 20.384 16.6785 20.8333H33.3215Z" fill="#005C90"/>
<path d="M29.3244 37.4999H22.8329C21.446 37.4999 20.28 37.4999 19.3262 37.422C18.3289 37.3405 17.381 37.1637 16.4813 36.7051C15.1093 36.0062 13.9938 34.8905 13.2948 33.5187C13.2184 33.3687 13.1777 33.2989 13.1249 33.2085C13.0923 33.1524 13.055 33.0885 13.0017 32.9926C12.8593 32.7364 12.7051 32.4135 12.613 31.9624C12.5378 31.5939 12.5186 31.2049 12.5095 30.8228C12.5 30.4287 12.5 29.9003 12.5 29.1997V29.1666C12.5 28.016 13.4327 27.0833 14.5833 27.0833C15.7339 27.0833 16.6667 28.016 16.6667 29.1666C16.6667 29.9078 16.6668 30.3849 16.6749 30.7226C16.6788 30.8812 16.6841 30.9833 16.6885 31.046C16.7565 31.1635 16.8881 31.3933 17.0073 31.627C17.3069 32.2149 17.7849 32.693 18.3729 32.9926C18.5874 33.102 18.9258 33.2089 19.6655 33.2693C20.4295 33.3316 21.4237 33.3333 22.9167 33.3333H29.1667C30.214 33.3333 30.495 33.3268 30.6973 33.2947C32.0344 33.083 33.0831 32.0343 33.2948 30.6972C33.3269 30.4949 33.3333 30.2139 33.3333 29.1666C33.3333 28.016 34.266 27.0833 35.4167 27.0833C36.5673 27.0833 37.5 28.016 37.5 29.1666V29.3243C37.5004 30.1368 37.5006 30.7778 37.4102 31.3489C36.916 34.4689 34.469 36.916 31.349 37.4101C30.7779 37.5005 30.1369 37.5003 29.3244 37.4999Z" fill="#005C90"/>
<path d="M45.833 35.4166C45.833 34.266 44.9003 33.3333 43.7497 33.3333C42.599 33.3333 41.6663 34.266 41.6663 35.4166V36.4583C41.6663 39.3347 39.3345 41.6666 36.458 41.6666H35.4163C34.2657 41.6666 33.333 42.5993 33.333 43.7499C33.333 44.9005 34.2657 45.8333 35.4163 45.8333H36.458C41.6357 45.8333 45.833 41.636 45.833 36.4583V35.4166Z" fill="#005C90"/>
<path d="M33.333 6.25008C33.333 5.0995 34.2657 4.16675 35.4163 4.16675H36.458C41.6357 4.16675 45.833 8.36408 45.833 13.5417V14.5834C45.833 15.734 44.9003 16.6667 43.7497 16.6667C42.599 16.6667 41.6663 15.734 41.6663 14.5834V13.5417C41.6663 10.6653 39.3345 8.33341 36.458 8.33341H35.4163C34.2657 8.33341 33.333 7.40066 33.333 6.25008Z" fill="#005C90"/>
<path d="M8.33366 35.4166C8.33366 34.266 7.40091 33.3333 6.25033 33.3333C5.09974 33.3333 4.16699 34.266 4.16699 35.4166V36.4583C4.16699 41.636 8.36433 45.8333 13.542 45.8333H14.5837C15.7342 45.8333 16.667 44.9005 16.667 43.7499C16.667 42.5993 15.7342 41.6666 14.5837 41.6666H13.542C10.6655 41.6666 8.33366 39.3347 8.33366 36.4583V35.4166Z" fill="#005C90"/>
</svg>
