<svg width="50" height="50" viewBox="0 0 50 50" fill="none" xmlns="http://www.w3.org/2000/svg">
<path fill-rule="evenodd" clip-rule="evenodd" d="M25.0002 16.6667C20.398 16.6667 16.667 20.3977 16.667 25.0001C16.667 29.6024 20.398 33.3334 25.0002 33.3334C29.6027 33.3334 33.3336 29.6024 33.3336 25.0001C33.3336 20.3977 29.6027 16.6667 25.0002 16.6667ZM20.8336 25.0001C20.8336 22.6988 22.6992 20.8334 25.0002 20.8334C27.3015 20.8334 29.1669 22.6988 29.1669 25.0001C29.1669 27.3013 27.3015 29.1667 25.0002 29.1667C22.6992 29.1667 20.8336 27.3013 20.8336 25.0001Z" fill="#D9D9D9"/>
<path fill-rule="evenodd" clip-rule="evenodd" d="M23.5136 1.04175C20.5952 1.04175 18.0124 3.05727 17.4407 5.95019L17.276 6.78387C16.8849 8.76337 14.7121 10.0638 12.5937 9.35035L11.7669 9.07189C9.0048 8.14166 5.91369 9.22858 4.41292 11.7487L2.92659 14.2446C1.41161 16.7885 1.9879 20.0102 4.24815 21.9047L4.91038 22.4597C6.51924 23.8082 6.51924 26.192 4.91038 27.5405L4.24815 28.0955C1.9879 29.9899 1.41161 33.2115 2.92659 35.7555L4.41286 38.2513C5.91367 40.7715 9.00488 41.8584 11.767 40.9282L12.5935 40.6497C14.712 39.9361 16.8849 41.2365 17.276 43.2161L17.4408 44.0499C18.0124 46.9428 20.5952 48.9584 23.5136 48.9584H26.4863C29.4051 48.9584 31.9878 46.9428 32.5595 44.0497L32.724 43.2163C33.1151 41.2367 35.288 39.9361 37.4065 40.6497L38.2332 40.9282C40.9953 41.8584 44.0865 40.7715 45.5874 38.2513L47.0736 35.7557C48.5886 33.2117 48.0122 29.9899 45.752 28.0955L45.0897 27.5405C43.4807 26.1922 43.4807 23.808 45.0897 22.4597L45.752 21.9047C48.0122 20.0103 48.5886 16.7885 47.0736 14.2445L45.5874 11.7487C44.0865 9.22858 40.9955 8.14164 38.2334 9.07183L37.4063 9.35037C35.288 10.0638 33.1151 8.76329 32.724 6.78377L32.5595 5.95041C31.9878 3.05739 29.4051 1.04175 26.4863 1.04175H23.5136ZM21.5284 6.75789C21.6974 5.90287 22.4961 5.20841 23.5136 5.20841H26.4863C27.504 5.20841 28.3028 5.90291 28.4718 6.75796L28.6363 7.59131C29.5395 12.1628 34.3557 14.7744 38.7361 13.2991L39.5632 13.0206C40.5195 12.6986 41.5401 13.0958 42.0074 13.8806L43.4936 16.3764C43.9468 17.1373 43.793 18.1099 43.0755 18.7112L42.4134 19.2662C38.8174 22.2799 38.8174 27.7203 42.4134 30.734L43.0755 31.2888C43.793 31.8903 43.9468 32.8628 43.4936 33.6238L42.0074 36.1195C41.5401 36.9042 40.5195 37.3015 39.5632 36.9795L38.7363 36.7009C34.3557 35.2255 29.5395 37.8372 28.6363 42.4088L28.4718 43.2422C28.3028 44.0972 27.504 44.7917 26.4863 44.7917H23.5136C22.4961 44.7917 21.6974 44.0974 21.5284 43.2422L21.3636 42.4084C20.4604 37.837 15.6441 35.2255 11.2635 36.7011L10.437 36.9795C9.48076 37.3015 8.46017 36.9042 7.99282 36.1195L6.50655 33.6236C6.05342 32.8628 6.20715 31.8903 6.92463 31.2888L7.58686 30.7338C11.1826 27.7201 11.1826 22.2801 7.58686 19.2663L6.92463 18.7113C6.20715 18.1099 6.05342 17.1374 6.50655 16.3765L7.99288 13.8806C8.46021 13.0958 9.48078 12.6986 10.437 13.0206L11.2638 13.2991C15.6442 14.7744 20.4603 12.163 21.3636 7.59158L21.5284 6.75789Z" fill="#D9D9D9"/>
</svg>
