<svg width="50" height="50" viewBox="0 0 50 50" fill="none" xmlns="http://www.w3.org/2000/svg">
<path fill-rule="evenodd" clip-rule="evenodd" d="M6.25 10.4166C6.25 9.266 7.18275 8.33325 8.33333 8.33325H14.5833C18.0351 8.33325 20.8333 11.1315 20.8333 14.5833V20.8333C20.8333 21.5637 20.708 22.2649 20.4777 22.9166H20.8333C24.2852 22.9166 27.0833 25.7147 27.0833 29.1666V35.4166C27.0833 38.8685 24.2852 41.6666 20.8333 41.6666H8.33333C7.18275 41.6666 6.25 40.7339 6.25 39.5833C6.25 38.4326 7.18275 37.4999 8.33333 37.4999H20.8333C21.984 37.4999 22.9167 36.5672 22.9167 35.4166V29.1666C22.9167 28.016 21.984 27.0833 20.8333 27.0833H14.5833H8.33333C7.18275 27.0833 6.25 26.1505 6.25 24.9999C6.25 23.8493 7.18275 22.9166 8.33333 22.9166H14.5833C15.7339 22.9166 16.6667 21.9839 16.6667 20.8333V14.5833C16.6667 13.4327 15.7339 12.4999 14.5833 12.4999H8.33333C7.18275 12.4999 6.25 11.5672 6.25 10.4166ZM36.2796 31.2499L38.9731 28.5564C39.7867 27.7428 39.7867 26.4237 38.9731 25.6101C38.1596 24.7966 36.8404 24.7966 36.0269 25.6101L29.7769 31.8601C28.9633 32.6737 28.9633 33.9928 29.7769 34.8064L36.0269 41.0564C36.8404 41.8699 38.1596 41.8699 38.9731 41.0564C39.7867 40.2428 39.7867 38.9237 38.9731 38.1101L36.2796 35.4166H43.75C44.9006 35.4166 45.8333 34.4839 45.8333 33.3333C45.8333 32.1826 44.9006 31.2499 43.75 31.2499H36.2796Z" fill="#D9D9D9"/>
</svg>
