<svg width="50" height="50" viewBox="0 0 50 50" fill="none" xmlns="http://www.w3.org/2000/svg">
<path d="M6.25 19.7917H43.75M6.25 30.2083H43.75M16.6667 9.375V40.625M12.9167 40.625H37.0833C39.4169 40.625 40.5838 40.625 41.475 40.1708C42.259 39.7715 42.8965 39.134 43.2958 38.35C43.75 37.4587 43.75 36.2919 43.75 33.9583V16.0417C43.75 13.7081 43.75 12.5413 43.2958 11.65C42.8965 10.866 42.259 10.2286 41.475 9.82915C40.5838 9.375 39.4169 9.375 37.0833 9.375H12.9167C10.5831 9.375 9.41633 9.375 8.52504 9.82915C7.74102 10.2286 7.1036 10.866 6.70415 11.65C6.25 12.5413 6.25 13.7081 6.25 16.0417V33.9583C6.25 36.2919 6.25 37.4587 6.70415 38.35C7.1036 39.134 7.74102 39.7715 8.52504 40.1708C9.41633 40.625 10.5831 40.625 12.9167 40.625Z" stroke="#D9D9D9" stroke-width="4.16667"/>
</svg>
