<svg width="40" height="40" viewBox="0 0 40 40" fill="none" xmlns="http://www.w3.org/2000/svg">
<path d="M30.8359 5H26.6693C26.2091 5 25.8359 5.3731 25.8359 5.83333V5.93152L31.6693 10.5982V5.83333C31.6693 5.3731 31.2963 5 30.8359 5Z" fill="#EF801C"/>
<path fill-rule="evenodd" clip-rule="evenodd" d="M17.9141 15.8333C17.9141 14.6827 18.8469 13.75 19.9974 13.75C21.1481 13.75 22.0807 14.6827 22.0807 15.8333C22.0807 16.984 21.1481 17.9167 19.9974 17.9167C18.8469 17.9167 17.9141 16.984 17.9141 15.8333Z" fill="#EF801C"/>
<path fill-rule="evenodd" clip-rule="evenodd" d="M34.5859 18.2674L35.8884 19.3094C36.4276 19.7406 37.2141 19.6533 37.6454 19.1141C38.0766 18.5751 37.9893 17.7884 37.4501 17.3571L23.9069 6.52265C21.6244 4.69655 18.3809 4.69655 16.0983 6.52265L2.55512 17.3571C2.01603 17.7884 1.92863 18.5751 2.3599 19.1141C2.79115 19.6533 3.57777 19.7406 4.11685 19.3094L5.41932 18.2674V35.4166H3.33599C2.64562 35.4166 2.08599 35.9763 2.08599 36.6666C2.08599 37.3569 2.64562 37.9166 3.33599 37.9166H36.6693C37.3596 37.9166 37.9193 37.3569 37.9193 36.6666C37.9193 35.9763 37.3596 35.4166 36.6693 35.4166H34.5859V18.2674ZM15.4193 15.8333C15.4193 13.302 17.4713 11.25 20.0026 11.25C22.5339 11.25 24.5859 13.302 24.5859 15.8333C24.5859 18.3646 22.5339 20.4166 20.0026 20.4166C17.4713 20.4166 15.4193 18.3646 15.4193 15.8333ZM20.0849 22.0833C21.1931 22.0833 22.1478 22.0831 22.9124 22.1859C23.7318 22.2961 24.5173 22.5446 25.1543 23.1816C25.7914 23.8188 26.0398 24.6041 26.1499 25.4236C26.2463 26.1403 26.2523 27.0243 26.2526 28.0449C26.2526 28.1131 26.2526 28.1818 26.2526 28.2509V35.4166H23.7526V28.3333C23.7526 27.1194 23.7499 26.3348 23.6723 25.7566C23.5994 25.2144 23.4818 25.0446 23.3866 24.9494C23.2914 24.8543 23.1214 24.7366 22.5793 24.6636C22.0011 24.5859 21.2164 24.5833 20.0026 24.5833C18.7888 24.5833 18.0041 24.5859 17.4261 24.6636C16.8839 24.7366 16.7139 24.8543 16.6188 24.9494C16.5236 25.0446 16.4059 25.2144 16.333 25.7566C16.2553 26.3348 16.2527 27.1194 16.2527 28.3333V35.4166H13.7527V28.2509C13.7526 27.1429 13.7525 26.1881 13.8553 25.4236C13.9655 24.6041 14.2139 23.8188 14.851 23.1816C15.4881 22.5446 16.2735 22.2961 17.0929 22.1859C17.8574 22.0831 18.8123 22.0833 19.9204 22.0833H20.0849Z" fill="#EF801C"/>
<path fill-rule="evenodd" clip-rule="evenodd" d="M17.9141 15.8333C17.9141 14.6827 18.8469 13.75 19.9974 13.75C21.1481 13.75 22.0807 14.6827 22.0807 15.8333C22.0807 16.984 21.1481 17.9167 19.9974 17.9167C18.8469 17.9167 17.9141 16.984 17.9141 15.8333Z" fill="#EF801C"/>
</svg>
