<svg width="34" height="34" viewBox="0 0 34 34" fill="none" xmlns="http://www.w3.org/2000/svg">
<path fill-rule="evenodd" clip-rule="evenodd" d="M3.33333 15C3.33333 8.55668 8.55668 3.33333 15 3.33333C21.4433 3.33333 26.6667 8.55668 26.6667 15C26.6667 21.4433 21.4433 26.6667 15 26.6667C8.55668 26.6667 3.33333 21.4433 3.33333 15ZM15 0C6.71573 0 0 6.71573 0 15C0 23.2843 6.71573 30 15 30C18.5417 30 21.7967 28.7725 24.3628 26.7198L30.4882 32.8452C31.139 33.496 32.1943 33.496 32.8452 32.8452C33.496 32.1943 33.496 31.139 32.8452 30.4882L26.7198 24.3628C28.7725 21.7967 30 18.5417 30 15C30 6.71573 23.2843 0 15 0Z" fill="#D9D9D9"/>
</svg>
