<svg width="50" height="50" viewBox="0 0 50 50" fill="none" xmlns="http://www.w3.org/2000/svg">
<path d="M25 13.0208C25.8629 13.0208 26.5625 13.7203 26.5625 14.5833V27.0833C26.5625 27.9462 25.8629 28.6458 25 28.6458C24.1371 28.6458 23.4375 27.9462 23.4375 27.0833V14.5833C23.4375 13.7203 24.1371 13.0208 25 13.0208Z" fill="#EED200"/>
<path d="M25 35.4167C26.1506 35.4167 27.0834 34.484 27.0834 33.3333C27.0834 32.1827 26.1506 31.25 25 31.25C23.8494 31.25 22.9167 32.1827 22.9167 33.3333C22.9167 34.484 23.8494 35.4167 25 35.4167Z" fill="#EED200"/>
<path fill-rule="evenodd" clip-rule="evenodd" d="M2.60419 25.0001C2.60419 12.6312 12.6311 2.60425 25 2.60425C37.369 2.60425 47.3959 12.6312 47.3959 25.0001C47.3959 37.369 37.369 47.3959 25 47.3959C12.6311 47.3959 2.60419 37.369 2.60419 25.0001ZM25 5.72925C14.357 5.72925 5.72919 14.3571 5.72919 25.0001C5.72919 35.643 14.357 44.2709 25 44.2709C35.6429 44.2709 44.2709 35.643 44.2709 25.0001C44.2709 14.3571 35.6429 5.72925 25 5.72925Z" fill="#EED200"/>
</svg>
