<svg width="30" height="30" viewBox="0 0 30 30" fill="none" xmlns="http://www.w3.org/2000/svg">
<path fill-rule="evenodd" clip-rule="evenodd" d="M15 3.4375C8.61421 3.4375 3.4375 8.61421 3.4375 15C3.4375 21.3857 8.61421 26.5625 15 26.5625C21.3857 26.5625 26.5625 21.3857 26.5625 15C26.5625 8.61421 21.3857 3.4375 15 3.4375ZM1.5625 15C1.5625 7.57867 7.57867 1.5625 15 1.5625C22.4214 1.5625 28.4375 7.57867 28.4375 15C28.4375 22.4214 22.4214 28.4375 15 28.4375C7.57867 28.4375 1.5625 22.4214 1.5625 15ZM15 9.0625C15.5177 9.0625 15.9375 9.48224 15.9375 10V14.6116L18.7879 17.4621C19.154 17.8282 19.154 18.4217 18.7879 18.7879C18.4217 19.154 17.8282 19.154 17.4621 18.7879L14.3371 15.6629C14.1612 15.4871 14.0625 15.2486 14.0625 15V10C14.0625 9.48224 14.4822 9.0625 15 9.0625Z" fill="#D9D9D9"/>
</svg>
