<svg width="50" height="50" viewBox="0 0 50 50" fill="none" xmlns="http://www.w3.org/2000/svg">
<path d="M25.5 47C37.9264 47 48 36.9264 48 24.5C48 12.0736 37.9264 2 25.5 2C13.0736 2 3 12.0736 3 24.5C3 36.9264 13.0736 47 25.5 47Z" stroke="#AEAEAE" stroke-width="3.125"/>
<path fill-rule="evenodd" clip-rule="evenodd" d="M22.6353 28.6667C22.6353 27.0846 23.9178 25.8021 25.4998 25.8021C27.0819 25.8021 28.3644 27.0846 28.3644 28.6667C28.3644 30.2488 27.0819 31.5313 25.4998 31.5313C23.9178 31.5313 22.6353 30.2488 22.6353 28.6667ZM25.4998 27.3646C24.7807 27.3646 24.1978 27.9475 24.1978 28.6667C24.1978 29.3859 24.7807 29.9688 25.4998 29.9688C26.219 29.9688 26.8019 29.3859 26.8019 28.6667C26.8019 27.9475 26.219 27.3646 25.4998 27.3646Z" fill="#AEAEAE"/>
<path fill-rule="evenodd" clip-rule="evenodd" d="M18.4689 21.6904V20.3334C18.4689 16.4501 21.6169 13.3021 25.5002 13.3021C29.3834 13.3021 32.5314 16.4501 32.5314 20.3334V21.6904C32.7677 21.707 32.9904 21.7287 33.2 21.7568C34.1376 21.8829 34.9269 22.1526 35.554 22.7795C36.181 23.4066 36.4507 24.196 36.5767 25.1336C36.6981 26.0367 36.6981 27.1849 36.6981 28.6095V28.7239C36.6981 30.1485 36.6981 31.2967 36.5767 32.1998C36.4507 33.1374 36.181 33.9268 35.554 34.5538C34.9269 35.1809 34.1376 35.4506 33.2 35.5766C32.2968 35.698 31.1486 35.698 29.724 35.698H21.2763C19.8518 35.698 18.7035 35.698 17.8004 35.5766C16.8628 35.4506 16.0734 35.1809 15.4464 34.5538C14.8194 33.9268 14.5497 33.1374 14.4236 32.1998C14.3022 31.2967 14.3022 30.1485 14.3022 28.7239V28.6095C14.3022 27.1849 14.3022 26.0367 14.4236 25.1336C14.5497 24.196 14.8194 23.4066 15.4464 22.7795C16.0734 22.1526 16.8628 21.8829 17.8004 21.7568C18.0099 21.7287 18.2326 21.707 18.4689 21.6904ZM20.0314 20.3334C20.0314 17.3131 22.4799 14.8646 25.5002 14.8646C28.5205 14.8646 30.9689 17.3131 30.9689 20.3334V21.639C30.5798 21.6354 30.1652 21.6354 29.724 21.6355H21.2763C20.8352 21.6354 20.4205 21.6354 20.0314 21.639V20.3334ZM18.0086 23.3054C17.2443 23.4082 16.8395 23.5961 16.5512 23.8844C16.2629 24.1727 16.075 24.5774 15.9722 25.3418C15.8664 26.1287 15.8647 27.1715 15.8647 28.6667C15.8647 30.1619 15.8664 31.2047 15.9722 31.9916C16.075 32.756 16.2629 33.1607 16.5512 33.449C16.8395 33.7373 17.2443 33.9252 18.0086 34.0281C18.7954 34.1338 19.8383 34.1355 21.3335 34.1355H29.6668C31.162 34.1355 32.2048 34.1338 32.9917 34.0281C33.7561 33.9252 34.1608 33.7373 34.4491 33.449C34.7375 33.1607 34.9254 32.756 35.0282 31.9916C35.1339 31.2047 35.1356 30.1619 35.1356 28.6667C35.1356 27.1715 35.1339 26.1287 35.0282 25.3418C34.9254 24.5774 34.7375 24.1727 34.4491 23.8844C34.1608 23.5961 33.7561 23.4082 32.9917 23.3054C32.2048 23.1996 31.162 23.198 29.6668 23.198H21.3335C19.8383 23.198 18.7954 23.1996 18.0086 23.3054Z" fill="#AEAEAE"/>
</svg>
