<svg width="30" height="30" viewBox="0 0 30 30" fill="none" xmlns="http://www.w3.org/2000/svg">
<path d="M19.0221 11.7857C20.0577 11.7857 20.8971 12.6251 20.8971 13.6607V20.8917C20.8971 24.1468 18.2583 26.7857 15.0032 26.7857C11.748 26.7857 9.10917 24.1468 9.10917 20.8917V13.6607C9.10917 12.6251 9.94864 11.7857 10.9842 11.7857H19.0221ZM4.01782 11.7857L8.71294 11.7836C8.33805 12.2367 8.09614 12.8038 8.04702 13.4252L8.03774 13.6607V20.8917C8.03774 22.106 8.3485 23.2478 8.89482 24.2418C8.30445 24.4995 7.65175 24.6428 6.96558 24.6428C4.30204 24.6428 2.14282 22.4836 2.14282 19.82V13.6607C2.14282 12.6251 2.98229 11.7857 4.01782 11.7857ZM21.2934 11.7836L25.9821 11.7857C27.0176 11.7857 27.8571 12.6251 27.8571 13.6607V19.8214C27.8571 22.4842 25.6985 24.6428 23.0357 24.6428C22.351 24.6428 21.6996 24.5001 21.1097 24.2427L21.1694 24.1343C21.6287 23.2626 21.9086 22.2818 21.96 21.2408L21.9686 20.8917V13.6607C21.9686 12.9474 21.7151 12.2933 21.2934 11.7836ZM15 3.21423C17.071 3.21423 18.75 4.89317 18.75 6.96423C18.75 9.0353 17.071 10.7142 15 10.7142C12.9289 10.7142 11.25 9.0353 11.25 6.96423C11.25 4.89317 12.9289 3.21423 15 3.21423ZM23.5746 4.28566C25.3498 4.28566 26.7889 5.72475 26.7889 7.49995C26.7889 9.27515 25.3498 10.7142 23.5746 10.7142C21.7994 10.7142 20.3603 9.27515 20.3603 7.49995C20.3603 5.72475 21.7994 4.28566 23.5746 4.28566ZM6.42534 4.28566C8.20054 4.28566 9.63963 5.72475 9.63963 7.49995C9.63963 9.27515 8.20054 10.7142 6.42534 10.7142C4.65014 10.7142 3.21105 9.27515 3.21105 7.49995C3.21105 5.72475 4.65014 4.28566 6.42534 4.28566Z" fill="#D9D9D9"/>
</svg>
