<svg width="30" height="30" viewBox="0 0 30 30" fill="none" xmlns="http://www.w3.org/2000/svg">
<path d="M7.5 18.125H17.5" stroke="#D9D9D9" stroke-width="1.875" stroke-linecap="round"/>
<path d="M7.5 22.5H14.375" stroke="#D9D9D9" stroke-width="1.875" stroke-linecap="round"/>
<path d="M16.25 3.125V6.25C16.25 9.19627 16.25 10.6694 17.1652 11.5847C18.0806 12.5 19.5537 12.5 22.5 12.5H27.5" stroke="#D9D9D9" stroke-width="1.875"/>
<path d="M3.4375 12.4999C3.4375 11.9822 3.01776 11.5624 2.5 11.5624C1.98224 11.5624 1.5625 11.9822 1.5625 12.4999H3.4375ZM26.5625 17.4999C26.5625 18.0177 26.9822 18.4374 27.5 18.4374C28.0177 18.4374 28.4375 18.0177 28.4375 17.4999H26.5625ZM1.69386 7.40817C1.64319 7.92345 2.01981 8.38225 2.53509 8.43294C3.05038 8.48363 3.50918 8.10699 3.55986 7.59172L1.69386 7.40817ZM28.3061 22.5917C28.3569 22.0764 27.9801 21.6176 27.4649 21.5669C26.9496 21.5163 26.4909 21.8929 26.4401 22.4082L28.3061 22.5917ZM17.5 26.5624H12.5V28.4374H17.5V26.5624ZM3.4375 17.4999V12.4999H1.5625V17.4999H3.4375ZM26.5625 16.9536V17.4999H28.4375V16.9536H26.5625ZM18.614 5.76384L23.5625 10.2175L24.8167 8.82378L19.8684 4.37017L18.614 5.76384ZM28.4375 16.9536C28.4375 14.8431 28.4564 13.5068 27.9239 12.3112L26.2111 13.0739C26.5436 13.8206 26.5625 14.6774 26.5625 16.9536H28.4375ZM23.5625 10.2175C25.2542 11.7401 25.8786 12.3274 26.2111 13.0739L27.9239 12.3112C27.3914 11.1155 26.3855 10.2356 24.8167 8.82378L23.5625 10.2175ZM12.5373 3.43744C14.5145 3.43744 15.2606 3.45192 15.9256 3.7071L16.5974 1.95657C15.5326 1.54797 14.3725 1.56244 12.5373 1.56244V3.43744ZM19.8684 4.37017C18.5109 3.14842 17.6621 2.36512 16.5974 1.95657L15.9256 3.7071C16.5909 3.96235 17.1519 4.44789 18.614 5.76384L19.8684 4.37017ZM12.5 26.5624C10.1165 26.5624 8.42314 26.5604 7.13856 26.3877C5.88095 26.2187 5.15639 25.9016 4.62738 25.3726L3.30155 26.6984C4.23701 27.6338 5.42319 28.0489 6.88873 28.2461C8.32728 28.4394 10.1695 28.4374 12.5 28.4374V26.5624ZM1.5625 17.4999C1.5625 19.8304 1.56051 21.6727 1.75391 23.1112C1.95095 24.5767 2.3661 25.7629 3.30155 26.6984L4.62738 25.3726C4.09836 24.8436 3.78128 24.1189 3.6122 22.8614C3.43949 21.5768 3.4375 19.8834 3.4375 17.4999H1.5625ZM17.5 28.4374C19.8305 28.4374 21.6727 28.4394 23.1112 28.2461C24.5767 28.0489 25.763 27.6338 26.6985 26.6984L25.3726 25.3726C24.8436 25.9016 24.119 26.2187 22.8615 26.3877C21.5769 26.5604 19.8835 26.5624 17.5 26.5624V28.4374ZM12.5373 1.56244C10.1942 1.56244 8.34302 1.56047 6.89859 1.75378C5.4279 1.95062 4.23774 2.36532 3.30155 3.30149L4.62738 4.62732C5.15566 4.09904 5.88245 3.7815 7.14731 3.61222C8.43844 3.43942 10.1414 3.43744 12.5373 3.43744V1.56244ZM3.55986 7.59172C3.71164 6.04875 4.03806 5.21663 4.62738 4.62732L3.30155 3.30149C2.25791 4.34514 1.8618 5.70084 1.69386 7.40817L3.55986 7.59172ZM26.4401 22.4082C26.2884 23.9511 25.9619 24.7832 25.3726 25.3726L26.6985 26.6984C27.7421 25.6547 28.1382 24.2991 28.3061 22.5917L26.4401 22.4082Z" fill="#D9D9D9"/>
</svg>
