<svg width="50" height="50" viewBox="0 0 50 50" fill="none" xmlns="http://www.w3.org/2000/svg">
<g clip-path="url(#clip0_724_1016)">
<path d="M24.9995 0C11.2141 0 0 11.215 0 25C0 38.785 11.2141 50 24.9995 50C38.7849 50 50 38.785 50 25C50 11.215 38.7849 0 24.9995 0ZM24.9995 46.7212C13.0225 46.7212 3.27875 36.977 3.27875 25C3.27875 13.0229 13.0224 3.27888 24.9995 3.27888C36.9766 3.27888 46.7209 13.023 46.7209 25C46.721 36.977 36.9765 46.7212 24.9995 46.7212Z" fill="#00FF55"/>
<path d="M34.0508 16.8157L21.1594 29.7065L15.9483 24.4965C15.3079 23.8568 14.2705 23.8565 13.6301 24.4968C12.9895 25.1375 12.9895 26.175 13.6301 26.8153L20.0005 33.1847C20.3206 33.5045 20.74 33.6645 21.1594 33.6645C21.5788 33.6645 21.9993 33.5045 22.3193 33.1842C22.3203 33.1828 22.321 33.1815 22.3226 33.1798L36.3688 19.1338C37.0094 18.4938 37.0094 17.4556 36.3688 16.8156C35.7285 16.1752 34.6904 16.1752 34.0508 16.8157Z" fill="#00FF55"/>
</g>
<defs>
<clipPath id="clip0_724_1016">
<rect width="50" height="50" fill="white"/>
</clipPath>
</defs>
</svg>
