<svg width="30" height="30" viewBox="0 0 30 30" fill="none" xmlns="http://www.w3.org/2000/svg">
<path d="M26.5999 8.00012L14.6749 19.9251C13.4874 21.1126 9.96234 21.6626 9.17484 20.8751C8.38734 20.0876 8.92484 16.5626 10.1123 15.3751L22.0499 3.43759C22.3443 3.11641 22.7006 2.85824 23.0976 2.67861C23.4945 2.49899 23.9237 2.40161 24.3594 2.39244C24.7949 2.38327 25.2279 2.46245 25.632 2.62521C26.0361 2.78797 26.4031 3.03097 26.7108 3.33947C27.0184 3.64797 27.2604 4.0156 27.422 4.42017C27.5836 4.82476 27.6617 5.25789 27.6514 5.69345C27.641 6.12901 27.5424 6.558 27.3618 6.95444C27.181 7.35087 26.9219 7.70661 26.5999 8.00012Z" stroke="white" stroke-width="1.875" stroke-linecap="round" stroke-linejoin="round"/>
<path d="M13.75 5H7.5C6.17391 5 4.90222 5.52677 3.96454 6.46446C3.02686 7.40215 2.5 8.67391 2.5 10V22.5C2.5 23.8261 3.02686 25.0979 3.96454 26.0355C4.90222 26.9732 6.17391 27.5 7.5 27.5H21.25C24.0125 27.5 25 25.25 25 22.5V16.25" stroke="white" stroke-width="1.875" stroke-linecap="round" stroke-linejoin="round"/>
</svg>
