<svg width="50" height="50" viewBox="0 0 50 50" fill="none" xmlns="http://www.w3.org/2000/svg">
<path d="M25 14.583V27.083" stroke="#FF4043" stroke-width="1.875" stroke-linecap="round"/>
<path d="M25 35.4167C26.1506 35.4167 27.0833 34.4839 27.0833 33.3333C27.0833 32.1827 26.1506 31.25 25 31.25C23.8494 31.25 22.9166 32.1827 22.9166 33.3333C22.9166 34.4839 23.8494 35.4167 25 35.4167Z" fill="#FF4043"/>
<path d="M16.3397 7.92139C20.5662 5.41845 22.6796 4.16699 25 4.16699C27.3204 4.16699 29.4337 5.41845 33.6602 7.92139L35.0898 8.76795C39.3162 11.2709 41.4296 12.5223 42.5898 14.5837C43.75 16.645 43.75 19.1479 43.75 24.1539V25.8468C43.75 30.8528 43.75 33.3557 42.5898 35.417C41.4296 37.4782 39.3162 38.7297 35.0898 41.2326L33.6602 42.0793C29.4337 44.5822 27.3204 45.8337 25 45.8337C22.6796 45.8337 20.5662 44.5822 16.3397 42.0793L14.9102 41.2326C10.6837 38.7297 8.5705 37.4782 7.41025 35.417C6.25 33.3557 6.25 30.8528 6.25 25.8468V24.1539C6.25 19.1479 6.25 16.645 7.41025 14.5837C8.5705 12.5223 10.6837 11.2709 14.9102 8.76795L16.3397 7.92139Z" stroke="#FF4043" stroke-width="1.875"/>
</svg>
