<svg width="30" height="30" viewBox="0 0 30 30" fill="none" xmlns="http://www.w3.org/2000/svg">
<path fill-rule="evenodd" clip-rule="evenodd" d="M15.0002 10C12.2388 10 10.0002 12.2386 10.0002 15C10.0002 17.7614 12.2388 20 15.0002 20C17.7617 20 20.0002 17.7614 20.0002 15C20.0002 12.2386 17.7617 10 15.0002 10ZM12.5002 15C12.5002 13.6193 13.6196 12.5 15.0002 12.5C16.3809 12.5 17.5002 13.6193 17.5002 15C17.5002 16.3807 16.3809 17.5 15.0002 17.5C13.6196 17.5 12.5002 16.3807 12.5002 15Z" fill="#D9D9D9"/>
<path fill-rule="evenodd" clip-rule="evenodd" d="M14.1084 0.625C12.3573 0.625 10.8076 1.83431 10.4646 3.57006L10.3658 4.07027C10.1311 5.25797 8.82744 6.03824 7.55639 5.61016L7.06031 5.44309C5.40307 4.88495 3.54841 5.5371 2.64795 7.04916L1.75615 8.54669C0.847162 10.0731 1.19294 12.0061 2.54909 13.1427L2.94642 13.4757C3.91174 14.2849 3.91174 15.7151 2.94642 16.5242L2.54909 16.8572C1.19294 17.9939 0.847162 19.9269 1.75615 21.4532L2.64791 22.9507C3.5484 24.4629 5.40312 25.115 7.06039 24.5569L7.55632 24.3897C8.82739 23.9616 10.1311 24.7419 10.3658 25.9296L10.4647 26.4299C10.8076 28.1656 12.3573 29.375 14.1084 29.375H15.892C17.6432 29.375 19.1929 28.1656 19.5359 26.4297L19.6346 25.9297C19.8692 24.742 21.173 23.9616 22.4441 24.3897L22.9401 24.5569C24.5974 25.115 26.4521 24.4629 27.3526 22.9507L28.2444 21.4534C29.1534 19.927 28.8075 17.9939 27.4514 16.8572L27.054 16.5242C26.0886 15.7152 26.0886 14.2847 27.054 13.4757L27.4514 13.1427C28.8075 12.0061 29.1534 10.0731 28.2444 8.54665L27.3526 7.04915C26.4521 5.5371 24.5975 4.88494 22.9403 5.44305L22.444 5.61017C21.173 6.03824 19.8692 5.25792 19.6346 4.07021L19.5359 3.5702C19.1929 1.83439 17.6432 0.625 15.892 0.625H14.1084ZM12.9172 4.05469C13.0186 3.54167 13.4979 3.125 14.1084 3.125H15.892C16.5026 3.125 16.9819 3.5417 17.0832 4.05472L17.182 4.55474C17.7239 7.29764 20.6136 8.86459 23.2419 7.97941L23.7381 7.8123C24.3119 7.61909 24.9242 7.85744 25.2046 8.3283L26.0964 9.8258C26.3682 10.2823 26.276 10.8659 25.8455 11.2267L25.4482 11.5597C23.2906 13.3679 23.2906 16.6321 25.4482 18.4404L25.8455 18.7732C26.276 19.1341 26.3682 19.7176 26.0964 20.1742L25.2046 21.6716C24.9242 22.1425 24.3119 22.3809 23.7381 22.1876L23.242 22.0205C20.6136 21.1352 17.7239 22.7022 17.182 25.4452L17.0832 25.9452C16.9819 26.4582 16.5026 26.875 15.892 26.875H14.1084C13.4979 26.875 13.0186 26.4584 12.9172 25.9452L12.8184 25.445C12.2764 22.7021 9.38664 21.1352 6.75831 22.0206L6.26237 22.1876C5.68865 22.3809 5.0763 22.1425 4.79589 21.6716L3.90412 20.1741C3.63225 19.7176 3.72449 19.1341 4.15497 18.7732L4.55231 18.4402C6.70977 16.632 6.70976 13.368 4.55231 11.5597L4.15497 11.2267C3.72449 10.8659 3.63225 10.2824 3.90412 9.82584L4.79592 8.32832C5.07632 7.85745 5.68866 7.6191 6.26237 7.81232L6.75845 7.9794C9.38672 8.86457 12.2764 7.29774 12.8184 4.5549L12.9172 4.05469Z" fill="#D9D9D9"/>
</svg>
