<svg width="30" height="30" viewBox="0 0 30 30" fill="none" xmlns="http://www.w3.org/2000/svg">
<path d="M26.7627 9.52343L26.7627 9.52345C27.8586 10.4295 28.5 11.8229 28.5 13.2995V23.7164C28.5 26.3648 26.4792 28.5 24 28.5H21C20.1715 28.5 19.5 27.8285 19.5 27V22.1217C19.5 19.467 17.4733 17.3381 15 17.3381C12.5267 17.3381 10.5 19.467 10.5 22.1217V27C10.5 27.8285 9.82844 28.5 9 28.5H6C3.52086 28.5 1.5 26.3648 1.5 23.7164V13.2995C1.5 11.8229 2.1414 10.4295 3.23727 9.52344L11.3164 2.84357C11.3164 2.84357 11.3164 2.84357 11.3164 2.84357C13.4831 1.05215 16.5169 1.05214 18.6837 2.84356C18.6837 2.84357 18.6837 2.84357 18.6837 2.84358L26.7627 9.52343Z" stroke="white" stroke-width="3"/>
</svg>
