<svg width="30" height="30" viewBox="0 0 30 30" fill="none" xmlns="http://www.w3.org/2000/svg">
<path d="M11.25 13.75C12.6307 13.75 13.75 12.6307 13.75 11.25C13.75 9.86929 12.6307 8.75 11.25 8.75C9.86929 8.75 8.75 9.86929 8.75 11.25C8.75 12.6307 9.86929 13.75 11.25 13.75Z" stroke="#D9D9D9" stroke-width="1.875"/>
<path d="M16.25 18.75C16.25 20.1307 16.25 21.25 11.25 21.25C6.25 21.25 6.25 20.1307 6.25 18.75C6.25 17.3692 8.48857 16.25 11.25 16.25C14.0114 16.25 16.25 17.3692 16.25 18.75Z" stroke="#D9D9D9" stroke-width="1.875"/>
<path d="M27.5 15C27.5 19.714 27.5 22.0711 26.0355 23.5355C24.5711 25 22.214 25 17.5 25H12.5C7.78595 25 5.42894 25 3.96446 23.5355C2.5 22.0711 2.5 19.714 2.5 15C2.5 10.2859 2.5 7.92894 3.96446 6.46446C5.42894 5 7.78595 5 12.5 5H17.5C22.214 5 24.5711 5 26.0355 6.46446C26.6225 7.05147 26.9742 7.78187 27.185 8.75" stroke="#D9D9D9" stroke-width="1.875" stroke-linecap="round"/>
<path d="M23.75 15H18.75" stroke="#D9D9D9" stroke-width="1.875" stroke-linecap="round"/>
<path d="M23.75 11.25H17.5" stroke="#D9D9D9" stroke-width="1.875" stroke-linecap="round"/>
<path d="M23.75 18.75H20" stroke="#D9D9D9" stroke-width="1.875" stroke-linecap="round"/>
</svg>
