<svg width="30" height="30" viewBox="0 0 30 30" fill="none" xmlns="http://www.w3.org/2000/svg">
<rect x="3" y="3" width="24" height="24" rx="6" fill="#D9D9D9"/>
<path d="M10.68 19.1216C10.68 19.3712 10.5888 19.5824 10.4064 19.7552C10.224 19.9184 10.0128 20 9.77279 20C9.50399 20 9.28799 19.9184 9.12479 19.7552C8.96159 19.5824 8.87999 19.3712 8.87999 19.1216V10.7984C8.87999 10.5488 8.96639 10.3424 9.13919 10.1792C9.31199 10.0064 9.53279 9.92 9.80159 9.92C10.032 9.92 10.2336 10.0064 10.4064 10.1792C10.5888 10.3424 10.68 10.5488 10.68 10.7984V19.1216ZM17.1656 9.92C17.8568 9.92 18.4712 10.0496 19.0088 10.3088C19.5464 10.568 19.9976 10.9328 20.3624 11.4032C20.7368 11.864 21.0152 12.4016 21.1976 13.016C21.3896 13.6208 21.4856 14.2688 21.4856 14.96C21.4856 15.8912 21.3176 16.7408 20.9816 17.5088C20.6456 18.2672 20.156 18.872 19.5128 19.3232C18.8792 19.7744 18.0968 20 17.1656 20H13.724C13.4744 20 13.2632 19.9184 13.0904 19.7552C12.9272 19.5824 12.8456 19.3712 12.8456 19.1216V10.7984C12.8456 10.5488 12.9272 10.3424 13.0904 10.1792C13.2632 10.0064 13.4744 9.92 13.724 9.92H17.1656ZM17.0216 18.344C17.6264 18.344 18.1208 18.1904 18.5048 17.8832C18.8888 17.5664 19.1672 17.1536 19.34 16.6448C19.5224 16.1264 19.6136 15.5648 19.6136 14.96C19.6136 14.5088 19.5608 14.0816 19.4552 13.6784C19.3592 13.2656 19.2056 12.9056 18.9944 12.5984C18.7832 12.2816 18.5144 12.032 18.188 11.8496C17.8616 11.6672 17.4728 11.576 17.0216 11.576H14.5016L14.6456 11.4464V18.5024L14.5592 18.344H17.0216Z" fill="#1C1C1C"/>
</svg>
