<svg width="50" height="50" viewBox="0 0 50 50" fill="none" xmlns="http://www.w3.org/2000/svg">
<path d="M25.5 47C37.9264 47 48 36.9264 48 24.5C48 12.0736 37.9264 2 25.5 2C13.0736 2 3 12.0736 3 24.5C3 36.9264 13.0736 47 25.5 47Z" stroke="#2581CD" stroke-width="3.125"/>
<path d="M18 13H33" stroke="#2581CD" stroke-width="2.4" stroke-miterlimit="10" stroke-linecap="round" stroke-linejoin="round"/>
<path d="M18 37H33" stroke="#2581CD" stroke-width="2.4" stroke-miterlimit="10" stroke-linecap="round" stroke-linejoin="round"/>
<path d="M19.2002 13C19.2002 17.65 21.4502 22.15 25.2002 25C28.9502 22.15 31.2002 17.65 31.2002 13" stroke="#2581CD" stroke-width="2.4" stroke-miterlimit="10" stroke-linecap="round" stroke-linejoin="round"/>
<path d="M31.2002 37C31.2002 32.35 28.9502 27.85 25.2002 25C21.4502 27.85 19.2002 32.35 19.2002 37" stroke="#2581CD" stroke-width="2.4" stroke-miterlimit="10" stroke-linecap="round" stroke-linejoin="round"/>
</svg>
