<svg width="30" height="30" viewBox="0 0 30 30" fill="none" xmlns="http://www.w3.org/2000/svg">
<path d="M16.25 3.125V6.25C16.25 9.19627 16.25 10.6694 17.1652 11.5847C18.0806 12.5 19.5537 12.5 22.5 12.5H27.5" stroke="#D9D9D9" stroke-width="1.875"/>
<path d="M10.1824 16.2781C10.6574 15.426 10.8949 15 11.25 15C11.6051 15 11.8426 15.426 12.3176 16.2781L12.4404 16.4986C12.5754 16.7408 12.6429 16.8617 12.7481 16.9416C12.8534 17.0215 12.9844 17.0513 13.2465 17.1105L13.4851 17.1645C14.4075 17.3732 14.8687 17.4775 14.9785 17.8304C15.0882 18.1833 14.7737 18.5509 14.145 19.2862L13.9822 19.4765C13.8036 19.6854 13.7142 19.7899 13.674 19.9191C13.6339 20.0484 13.6474 20.1878 13.6744 20.4666L13.699 20.7204C13.794 21.7015 13.8416 22.192 13.5544 22.4101C13.267 22.6281 12.8352 22.4294 11.9716 22.0318L11.7482 21.9289C11.5028 21.8159 11.3801 21.7594 11.25 21.7594C11.1199 21.7594 10.9972 21.8159 10.7518 21.9289L10.5284 22.0318C9.66475 22.4294 9.23293 22.6281 8.94567 22.4101C8.65842 22.192 8.70595 21.7015 8.80102 20.7204L8.82562 20.4666C8.85263 20.1878 8.86613 20.0484 8.82595 19.9191C8.78575 19.7899 8.69641 19.6854 8.51772 19.4765L8.35503 19.2862C7.72621 18.5509 7.41181 18.1833 7.52153 17.8304C7.63126 17.4775 8.09245 17.3732 9.01482 17.1645L9.25346 17.1105C9.51557 17.0513 9.64662 17.0215 9.75185 16.9416C9.85708 16.8617 9.92457 16.7408 10.0595 16.4986L10.1824 16.2781Z" stroke="#D9D9D9" stroke-width="1.875"/>
<path d="M3.4375 12.5001C3.4375 11.9823 3.01776 11.5626 2.5 11.5626C1.98224 11.5626 1.5625 11.9823 1.5625 12.5001H3.4375ZM26.5625 17.5001C26.5625 18.0178 26.9822 18.4376 27.5 18.4376C28.0178 18.4376 28.4375 18.0178 28.4375 17.5001H26.5625ZM1.69386 7.40829C1.64319 7.92358 2.01981 8.38237 2.53509 8.43306C3.05038 8.48375 3.50918 8.10711 3.55986 7.59184L1.69386 7.40829ZM28.3061 22.5918C28.3569 22.0766 27.9801 21.6177 27.4649 21.5671C26.9496 21.5164 26.4909 21.8931 26.4401 22.4083L28.3061 22.5918ZM17.5 26.5626H12.5V28.4376H17.5V26.5626ZM3.4375 17.5001V12.5001H1.5625V17.5001H3.4375ZM26.5625 16.9537V17.5001H28.4375V16.9537H26.5625ZM18.614 5.76396L23.5625 10.2176L24.8167 8.8239L19.8684 4.37029L18.614 5.76396ZM28.4375 16.9537C28.4375 14.8432 28.4564 13.5069 27.9239 12.3113L26.2111 13.0741C26.5436 13.8207 26.5625 14.6776 26.5625 16.9537H28.4375ZM23.5625 10.2176C25.2543 11.7402 25.8786 12.3275 26.2111 13.0741L27.9239 12.3113C27.3914 11.1156 26.3855 10.2357 24.8167 8.8239L23.5625 10.2176ZM12.5373 3.43756C14.5145 3.43756 15.2606 3.45204 15.9256 3.70723L16.5974 1.95669C15.5326 1.54809 14.3725 1.56256 12.5373 1.56256V3.43756ZM19.8684 4.37029C18.5109 3.14854 17.6621 2.36524 16.5974 1.95669L15.9256 3.70723C16.5909 3.96248 17.1519 4.44801 18.614 5.76396L19.8684 4.37029ZM12.5 26.5626C10.1165 26.5626 8.42314 26.5606 7.13856 26.3878C5.88095 26.2188 5.15639 25.9017 4.62738 25.3727L3.30155 26.6986C4.23701 27.6339 5.42319 28.0491 6.88873 28.2462C8.32728 28.4396 10.1695 28.4376 12.5 28.4376V26.5626ZM1.5625 17.5001C1.5625 19.8306 1.56051 21.6728 1.75391 23.1113C1.95095 24.5768 2.3661 25.7631 3.30155 26.6986L4.62738 25.3727C4.09836 24.8437 3.78128 24.1191 3.6122 22.8616C3.43949 21.5769 3.4375 19.8836 3.4375 17.5001H1.5625ZM17.5 28.4376C19.8305 28.4376 21.6728 28.4396 23.1113 28.2462C24.5768 28.0491 25.763 27.6339 26.6985 26.6986L25.3726 25.3727C24.8436 25.9017 24.119 26.2188 22.8615 26.3878C21.5769 26.5606 19.8835 26.5626 17.5 26.5626V28.4376ZM12.5373 1.56256C10.1942 1.56256 8.34303 1.56059 6.89859 1.7539C5.4279 1.95074 4.23774 2.36544 3.30155 3.30161L4.62738 4.62744C5.15566 4.09916 5.88245 3.78163 7.14731 3.61234C8.43844 3.43954 10.1414 3.43756 12.5373 3.43756V1.56256ZM3.55986 7.59184C3.71164 6.04888 4.03806 5.21675 4.62738 4.62744L3.30155 3.30161C2.25791 4.34526 1.8618 5.70096 1.69386 7.40829L3.55986 7.59184ZM26.4401 22.4083C26.2884 23.9512 25.9619 24.7833 25.3726 25.3727L26.6985 26.6986C27.7421 25.6548 28.1382 24.2992 28.3061 22.5918L26.4401 22.4083Z" fill="#D9D9D9"/>
</svg>
