<svg width="42" height="42" viewBox="0 0 42 42" fill="none" xmlns="http://www.w3.org/2000/svg">
<path d="M18.6144 6.66943H10.92C9.13777 6.66943 7.42852 7.37754 6.16827 8.63777C4.90801 9.89802 4.20003 11.6072 4.20003 13.3894V30.1895C4.20003 31.9716 4.90801 33.6809 6.16827 34.941C7.42852 36.2014 9.13777 36.9095 10.92 36.9095H31.08C32.8623 36.9095 34.5716 36.2014 35.8317 34.941C37.0921 33.6809 37.8 31.9716 37.8 30.1895V23.3517" stroke="white" stroke-width="2.52" stroke-linecap="round" stroke-linejoin="round"/>
<path d="M18.6144 16.7495H4.20003" stroke="white" stroke-width="2.52" stroke-linecap="round" stroke-linejoin="round"/>
<path d="M9.24002 31.7856H19.32" stroke="white" stroke-width="2.52" stroke-linecap="round" stroke-linejoin="round"/>
<g clip-path="url(#clip0_1130_97)">
<path d="M27.0625 17.9375H25.1875V19.8125" stroke="white" stroke-width="1.5" stroke-linecap="round" stroke-linejoin="round"/>
<path d="M35.8125 19.8125H33.9375V17.9375" stroke="white" stroke-width="1.5" stroke-linecap="round" stroke-linejoin="round"/>
<path d="M33.9375 11.0625H35.8125V9.1875" stroke="white" stroke-width="1.5" stroke-linecap="round" stroke-linejoin="round"/>
<path d="M25.1875 9.1875H27.0625V11.0625" stroke="white" stroke-width="1.5" stroke-linecap="round" stroke-linejoin="round"/>
<path d="M27.0625 9.2793C25.368 10.3973 24.25 12.318 24.25 14.4999C24.25 14.8185 24.2738 15.1316 24.3198 15.4374" stroke="white" stroke-width="1.5" stroke-linecap="round" stroke-linejoin="round"/>
<path d="M31.4375 20.6802C31.1317 20.7262 30.8186 20.75 30.5 20.75C28.3181 20.75 26.3973 19.6319 25.2794 17.9375" stroke="white" stroke-width="1.5" stroke-linecap="round" stroke-linejoin="round"/>
<path d="M36.6802 13.5625C36.7262 13.8683 36.75 14.1814 36.75 14.5C36.75 16.6819 35.6319 18.6027 33.9375 19.7206" stroke="white" stroke-width="1.5" stroke-linecap="round" stroke-linejoin="round"/>
<path d="M29.5625 8.31984C29.8683 8.27384 30.1814 8.25 30.5 8.25C32.6819 8.25 34.6027 9.36806 35.7206 11.0625" stroke="white" stroke-width="1.5" stroke-linecap="round" stroke-linejoin="round"/>
</g>
<defs>
<clipPath id="clip0_1130_97">
<rect width="15" height="15" fill="white" transform="translate(23 7)"/>
</clipPath>
</defs>
</svg>
