<svg width="50" height="50" viewBox="0 0 50 50" fill="none" xmlns="http://www.w3.org/2000/svg">
<path d="M25.5 47C37.9264 47 48 36.9264 48 24.5C48 12.0736 37.9264 2 25.5 2C13.0736 2 3 12.0736 3 24.5C3 36.9264 13.0736 47 25.5 47Z" stroke="#FF8400" stroke-width="3.125"/>
<path d="M16.6666 19.7917C16.6666 18.821 16.6666 18.3357 16.8252 17.9528C17.0366 17.4424 17.4422 17.0368 17.9527 16.8253C18.3356 16.6667 18.8209 16.6667 19.7916 16.6667C20.7623 16.6667 21.2477 16.6667 21.6306 16.8253C22.141 17.0368 22.5466 17.4424 22.7581 17.9528C22.9166 18.3357 22.9166 18.821 22.9166 19.7917V30.2084C22.9166 31.179 22.9166 31.6645 22.7581 32.0474C22.5466 32.5578 22.141 32.9634 21.6306 33.1749C21.2477 33.3334 20.7623 33.3334 19.7916 33.3334C18.8209 33.3334 18.3356 33.3334 17.9527 33.1749C17.4422 32.9634 17.0366 32.5578 16.8252 32.0474C16.6666 31.6645 16.6666 31.179 16.6666 30.2084V19.7917Z" stroke="#FF8400" stroke-width="3.125"/>
<path d="M27.0834 19.7917C27.0834 18.821 27.0834 18.3357 27.2419 17.9528C27.4534 17.4424 27.859 17.0368 28.3694 16.8253C28.7523 16.6667 29.2377 16.6667 30.2084 16.6667C31.179 16.6667 31.6644 16.6667 32.0473 16.8253C32.5577 17.0368 32.9634 17.4424 33.1748 17.9528C33.3334 18.3357 33.3334 18.821 33.3334 19.7917V30.2084C33.3334 31.179 33.3334 31.6645 33.1748 32.0474C32.9634 32.5578 32.5577 32.9634 32.0473 33.1749C31.6644 33.3334 31.179 33.3334 30.2084 33.3334C29.2377 33.3334 28.7523 33.3334 28.3694 33.1749C27.859 32.9634 27.4534 32.5578 27.2419 32.0474C27.0834 31.6645 27.0834 31.179 27.0834 30.2084V19.7917Z" stroke="#FF8400" stroke-width="3.125"/>
</svg>
