<svg width="30" height="30" viewBox="0 0 30 30" fill="none" xmlns="http://www.w3.org/2000/svg">
<path fill-rule="evenodd" clip-rule="evenodd" d="M7.435 1.5625H7.565C8.6881 1.56246 9.62463 1.56244 10.3681 1.66239C11.1529 1.7679 11.8614 1.99999 12.4307 2.56933C13 3.13866 13.2321 3.84716 13.3376 4.6319C13.4376 5.37539 13.4375 6.31191 13.4375 7.43501V22.565C13.4375 23.6881 13.4376 24.6246 13.3376 25.3681C13.2321 26.1529 13 26.8614 12.4307 27.4306C11.8614 28 11.1529 28.2321 10.3681 28.3376C9.62463 28.4376 8.6881 28.4375 7.565 28.4375H7.43501C6.31191 28.4375 5.37539 28.4376 4.6319 28.3376C3.84716 28.2321 3.13866 28 2.56933 27.4306C1.99999 26.8614 1.7679 26.1529 1.66239 25.3681C1.56244 24.6246 1.56246 23.6881 1.5625 22.565V7.435C1.56246 6.3119 1.56244 5.37538 1.66239 4.6319C1.7679 3.84716 1.99999 3.13866 2.56933 2.56933C3.13866 1.99999 3.84716 1.7679 4.6319 1.66239C5.37538 1.56244 6.3119 1.56246 7.435 1.5625ZM4.88174 3.52068C4.30491 3.59823 4.05805 3.73225 3.89515 3.89515C3.73225 4.05805 3.59823 4.30491 3.52068 4.88174C3.4395 5.48554 3.4375 6.29499 3.4375 7.5V22.5C3.4375 23.705 3.4395 24.5145 3.52068 25.1183C3.59823 25.6951 3.73225 25.942 3.89515 26.1049C4.05805 26.2678 4.30491 26.4018 4.88174 26.4794C5.48554 26.5605 6.29499 26.5625 7.5 26.5625C8.70501 26.5625 9.51446 26.5605 10.1183 26.4794C10.6951 26.4018 10.942 26.2678 11.1049 26.1049C11.2678 25.942 11.4018 25.6951 11.4793 25.1183C11.5605 24.5145 11.5625 23.705 11.5625 22.5V7.5C11.5625 6.29499 11.5605 5.48554 11.4793 4.88174C11.4018 4.30491 11.2678 4.05805 11.1049 3.89515C10.942 3.73225 10.6951 3.59823 10.1183 3.52068C9.51446 3.4395 8.70501 3.4375 7.5 3.4375C6.29499 3.4375 5.48554 3.4395 4.88174 3.52068ZM22.435 1.5625H22.565C23.6881 1.56246 24.6246 1.56244 25.3681 1.66239C26.1529 1.7679 26.8614 1.99999 27.4306 2.56933C28 3.13866 28.2321 3.84716 28.3376 4.6319C28.4376 5.37539 28.4375 6.31191 28.4375 7.43501V22.565C28.4375 23.6881 28.4376 24.6246 28.3376 25.3681C28.2321 26.1529 28 26.8614 27.4306 27.4306C26.8614 28 26.1529 28.2321 25.3681 28.3376C24.6246 28.4376 23.6881 28.4375 22.565 28.4375H22.435C21.3119 28.4375 20.3754 28.4376 19.6319 28.3376C18.8471 28.2321 18.1386 28 17.5694 27.4306C17 26.8614 16.7679 26.1529 16.6624 25.3681C16.5624 24.6246 16.5625 23.6881 16.5625 22.565V7.43501C16.5625 6.31191 16.5624 5.37539 16.6624 4.6319C16.7679 3.84716 17 3.13866 17.5694 2.56933C18.1386 1.99999 18.8471 1.7679 19.6319 1.66239C20.3754 1.56244 21.3119 1.56246 22.435 1.5625ZM19.8818 3.52068C19.3049 3.59823 19.058 3.73225 18.8951 3.89515C18.7323 4.05805 18.5983 4.30491 18.5206 4.88174C18.4395 5.48554 18.4375 6.29499 18.4375 7.5V22.5C18.4375 23.705 18.4395 24.5145 18.5206 25.1183C18.5983 25.6951 18.7323 25.942 18.8951 26.1049C19.058 26.2678 19.3049 26.4018 19.8818 26.4794C20.4855 26.5605 21.295 26.5625 22.5 26.5625C23.705 26.5625 24.5145 26.5605 25.1183 26.4794C25.6951 26.4018 25.942 26.2678 26.1049 26.1049C26.2678 25.942 26.4018 25.6951 26.4794 25.1183C26.5605 24.5145 26.5625 23.705 26.5625 22.5V7.5C26.5625 6.29499 26.5605 5.48554 26.4794 4.88174C26.4018 4.30491 26.2678 4.05805 26.1049 3.89515C25.942 3.73225 25.6951 3.59823 25.1183 3.52068C24.5145 3.4395 23.705 3.4375 22.5 3.4375C21.295 3.4375 20.4855 3.4395 19.8818 3.52068Z" fill="white"/>
</svg>
