<svg width="50" height="50" viewBox="0 0 50 50" fill="none" xmlns="http://www.w3.org/2000/svg">
<path fill-rule="evenodd" clip-rule="evenodd" d="M25 5.72913C14.357 5.72913 5.72916 14.357 5.72916 25C5.72916 35.6429 14.357 44.2708 25 44.2708C35.6429 44.2708 44.2708 35.6429 44.2708 25C44.2708 14.357 35.6429 5.72913 25 5.72913ZM2.60416 25C2.60416 12.6311 12.6311 2.60413 25 2.60413C37.3689 2.60413 47.3958 12.6311 47.3958 25C47.3958 37.3689 37.3689 47.3958 25 47.3958C12.6311 47.3958 2.60416 37.3689 2.60416 25ZM25 15.1041C25.8629 15.1041 26.5625 15.8037 26.5625 16.6666V24.3527L31.3131 29.1035C31.9233 29.7137 31.9233 30.7029 31.3131 31.3131C30.7029 31.9233 29.7137 31.9233 29.1035 31.3131L23.8952 26.1047C23.6021 25.8118 23.4375 25.4143 23.4375 25V16.6666C23.4375 15.8037 24.1371 15.1041 25 15.1041Z" fill="#008D21"/>
</svg>
