<svg width="200" height="200" viewBox="0 0 200 200" fill="none" xmlns="http://www.w3.org/2000/svg">
<path fill-rule="evenodd" clip-rule="evenodd" d="M25 41.6666C25 37.0643 28.731 33.3333 33.3333 33.3333H58.3333C72.1404 33.3333 83.3333 44.5262 83.3333 58.3333V83.3333C83.3333 86.2549 82.8321 89.0599 81.9108 91.6666H83.3333C97.1408 91.6666 108.333 102.859 108.333 116.667V141.667C108.333 155.474 97.1408 166.667 83.3333 166.667H33.3333C28.731 166.667 25 162.936 25 158.333C25 153.731 28.731 150 33.3333 150H83.3333C87.9358 150 91.6667 146.269 91.6667 141.667V116.667C91.6667 112.064 87.9358 108.333 83.3333 108.333H58.3333H33.3333C28.731 108.333 25 104.602 25 99.9999C25 95.3974 28.731 91.6666 33.3333 91.6666H58.3333C62.9357 91.6666 66.6667 87.9358 66.6667 83.3333V58.3333C66.6667 53.7309 62.9357 49.9999 58.3333 49.9999H33.3333C28.731 49.9999 25 46.2689 25 41.6666ZM145.118 125L155.893 114.226C159.147 110.972 159.147 105.695 155.893 102.441C152.638 99.1866 147.362 99.1866 144.107 102.441L119.107 127.441C115.853 130.695 115.853 135.972 119.107 139.226L144.107 164.226C147.362 167.48 152.638 167.48 155.893 164.226C159.147 160.972 159.147 155.695 155.893 152.441L145.118 141.667H175C179.602 141.667 183.333 137.936 183.333 133.333C183.333 128.731 179.602 125 175 125H145.118Z" fill="#EF801C"/>
</svg>
