<svg width="30" height="30" viewBox="0 0 30 30" fill="none" xmlns="http://www.w3.org/2000/svg">
<path d="M26.0625 26.4375C24.8437 27.6563 22.9688 27.6563 21.75 26.4375L15.9375 20.625L20.25 16.3125L26.0625 22.125C27.2812 23.25 27.2812 25.2188 26.0625 26.4375Z" stroke="#D9D9D9" stroke-width="2" stroke-miterlimit="10" stroke-linecap="round" stroke-linejoin="round"/>
<path d="M5.8125 3.28125L3 6.1875L5.15625 9.84375L8.71875 12L16.6875 19.9688L19.5937 17.0625L11.625 9.09375L9.46875 5.4375L5.8125 3.28125Z" stroke="#D9D9D9" stroke-width="2" stroke-miterlimit="10" stroke-linecap="round" stroke-linejoin="round"/>
<path d="M17.7188 15.0938L20.25 12.5626C22.0313 13.2188 24.1875 12.9376 25.5937 11.4376C27 10.0313 27.375 7.87508 26.7188 6.09383L24.2812 8.53133L22.0313 7.96883L21.4688 5.71883L23.9063 3.28133C22.125 2.62508 19.9687 2.90633 18.5625 4.40633C17.1562 5.81258 16.7813 7.96883 17.4375 9.75008L14.9062 12.2813" stroke="#D9D9D9" stroke-width="2" stroke-miterlimit="10" stroke-linejoin="round"/>
<path d="M11.9065 15.2812L9.75022 17.4375C7.96897 16.7813 5.81272 17.0625 4.40647 18.5625C3.00022 19.9688 2.62522 22.125 3.28147 23.9063L5.71897 21.4688L7.96897 22.0313L8.53147 24.2813L6.09397 26.7188C7.87522 27.375 10.0315 27.0938 11.4377 25.5938C12.844 24.1875 13.219 22.0313 12.5627 20.25L14.8127 18" stroke="#D9D9D9" stroke-width="2" stroke-miterlimit="10" stroke-linejoin="round"/>
</svg>
