<svg width="30" height="30" viewBox="0 0 30 30" fill="none" xmlns="http://www.w3.org/2000/svg">
<g clip-path="url(#clip0_756_139)">
<path fill-rule="evenodd" clip-rule="evenodd" d="M15 28.125C7.75125 28.125 1.875 22.2469 1.875 15C1.875 7.75313 7.75125 1.875 15 1.875C22.2488 1.875 28.125 7.75313 28.125 15C28.125 22.2469 22.2488 28.125 15 28.125ZM15 0C6.71531 0 0 6.7125 0 15C0 23.2875 6.71531 30 15 30C23.2847 30 30 23.2875 30 15C30 6.7125 23.2847 0 15 0ZM21.1266 14.175L15.8241 8.86871C15.4575 8.50309 14.8641 8.50309 14.4984 8.86871C14.1319 9.24371 14.1319 9.83438 14.4984 10.2L18.3619 14.0625H8.4375C7.91906 14.0625 7.5 14.4844 7.5 15C7.5 15.5156 7.91906 15.9375 8.4375 15.9375H18.3619L14.4984 19.8C14.1319 20.1656 14.1319 20.7657 14.4984 21.1313C14.8641 21.4969 15.4575 21.4969 15.8241 21.1313L21.1266 15.825C21.3516 15.6 21.4219 15.2906 21.3703 15C21.4219 14.7094 21.3516 14.4 21.1266 14.175Z" fill="white"/>
</g>
<defs>
<clipPath id="clip0_756_139">
<rect width="30" height="30" fill="white"/>
</clipPath>
</defs>
</svg>
