<svg width="40" height="40" viewBox="0 0 40 40" fill="none" xmlns="http://www.w3.org/2000/svg">
<path d="M36.6688 11.0372V28.7418C36.6688 30.5967 35.4783 32.4515 33.6076 33.1258L25.1041 36.3297C24.594 36.4982 24.0838 36.6668 23.4035 36.6668C22.5531 36.6668 21.5328 36.3297 20.6825 35.8238C20.3423 35.4865 19.8321 35.1493 19.662 34.812H13.1994C10.6484 34.812 8.4375 32.7887 8.4375 30.0908V28.4047C8.4375 27.7302 8.94772 27.0557 9.79805 27.0557C10.6484 27.0557 11.1586 27.5615 11.1586 28.4047V30.0908C11.1586 31.2712 12.179 32.1142 13.1994 32.1142H18.8116V7.83345H13.1994C12.0089 7.83345 11.1586 8.67654 11.1586 9.85685V11.543C11.1586 12.2175 10.6484 12.8919 9.79805 12.8919C8.94772 12.8919 8.4375 12.2175 8.4375 11.543V9.85685C8.4375 7.3276 10.4783 5.13559 13.1994 5.13559H19.662C20.0021 4.79835 20.3423 4.46112 20.6825 4.12389C22.043 3.2808 23.5736 3.11219 25.1041 3.61804L33.6076 6.82175C35.3083 7.3276 36.6688 9.18239 36.6688 11.0372Z" fill="#EF801C"/>
<path d="M8.09784 24.6947C7.7577 24.6947 7.41757 24.5262 7.2475 24.3576L3.84614 20.9852C3.67607 20.8166 3.67607 20.6481 3.506 20.6481C3.506 20.4794 3.33594 20.3107 3.33594 20.1422C3.33594 19.9736 3.33594 19.8049 3.506 19.6364C3.506 19.4677 3.67607 19.2991 3.84614 19.2991L7.2475 15.9268C7.7577 15.4209 8.60805 15.4209 9.11825 15.9268C9.62845 16.4326 9.62845 17.2757 9.11825 17.7816L7.92777 18.9619H14.9006C15.5808 18.9619 16.2611 19.4677 16.2611 20.3107C16.2611 21.1539 15.5808 21.3226 14.9006 21.3226H7.7577L8.94819 22.5027C9.45839 23.0086 9.45839 23.8517 8.94819 24.3576C8.77812 24.5262 8.43797 24.6947 8.09784 24.6947Z" fill="#EF801C"/>
</svg>
