<svg width="40" height="40" viewBox="0 0 40 40" fill="none" xmlns="http://www.w3.org/2000/svg">
<path d="M35.815 7.94864C35.645 5.72642 33.7742 4.01702 31.5634 3.84607C28.162 3.50419 23.4 3.33325 19.6585 3.33325C15.9171 3.33325 11.3252 3.50419 7.92386 3.84607C6.7334 3.84607 5.88305 4.35889 5.03271 5.2136C4.35243 5.89735 3.84223 6.923 3.84223 7.94864C3.67216 10.6837 3.33203 14.4444 3.33203 17.3504C3.33203 20.2563 3.67216 24.0171 3.84223 26.7521C4.0123 28.9743 5.88305 30.6838 8.09393 30.8546C11.4953 31.1966 16.2572 31.3674 19.9987 31.3674C23.7402 31.3674 28.502 31.0256 31.9035 30.8546C34.1144 30.6838 35.815 28.9743 36.1552 26.7521C36.4954 24.0171 36.6654 20.2563 36.6654 17.3504C36.6654 14.4444 36.1552 10.6837 35.815 7.94864ZM27.4817 13.9315L22.3797 19.0598C21.8694 19.5726 21.019 19.5726 20.5089 19.0598L18.128 16.6666L13.8762 20.9401C13.5361 21.1111 13.366 21.2819 13.0259 21.2819C12.6858 21.2819 12.3456 21.1111 12.1756 20.9401C11.6654 20.4273 11.6654 19.5726 12.1756 19.0598L17.2775 13.9315C17.7879 13.4187 18.6382 13.4187 19.1484 13.9315L21.5294 16.3247L25.781 12.0512C26.2912 11.5384 27.1415 11.5384 27.6517 12.0512C27.9919 12.735 27.9919 13.4187 27.4817 13.9315Z" fill="#EF801C"/>
<path d="M26.634 36.6664H13.0285C12.3482 36.6664 11.668 36.1536 11.668 35.2989C11.668 34.4442 12.1782 33.9314 13.0285 33.9314H26.634C27.3143 33.9314 27.9945 34.4442 27.9945 35.2989C27.9945 36.1536 27.3143 36.6664 26.634 36.6664Z" fill="#EF801C"/>
</svg>
