<svg width="40" height="40" viewBox="0 0 40 40" fill="none" xmlns="http://www.w3.org/2000/svg">
<g clip-path="url(#clip0_2763_78)">
<path fill-rule="evenodd" clip-rule="evenodd" d="M10 3.33325C8.15905 3.33325 6.66667 4.82564 6.66667 6.66659V8.33325C5.7462 8.33325 5 9.07945 5 9.99992C5 10.9204 5.7462 11.6666 6.66667 11.6666V14.9999C5.7462 14.9999 5 15.7461 5 16.6666C5 17.5871 5.7462 18.3333 6.66667 18.3333V21.6666C5.7462 21.6666 5 22.4128 5 23.3333C5 24.2538 5.7462 24.9999 6.66667 24.9999V28.3333C5.7462 28.3333 5 29.0794 5 29.9999C5 30.9204 5.7462 31.6666 6.66667 31.6666V33.3333C6.66667 35.1743 8.15905 36.6666 10 36.6666H30C31.841 36.6666 33.3333 35.1743 33.3333 33.3333V6.66659C33.3333 4.82564 31.841 3.33325 30 3.33325H10ZM14.1667 9.99992C12.7859 9.99992 11.6667 11.1192 11.6667 12.4999V14.1666C11.6667 15.5473 12.7859 16.6666 14.1667 16.6666H25.8333C27.214 16.6666 28.3333 15.5473 28.3333 14.1666V12.4999C28.3333 11.1192 27.214 9.99992 25.8333 9.99992H14.1667Z" fill="#EF801C"/>
</g>
<defs>
<clipPath id="clip0_2763_78">
<rect width="40" height="40" fill="white"/>
</clipPath>
</defs>
</svg>
