<svg width="40" height="40" viewBox="0 0 40 40" fill="none" xmlns="http://www.w3.org/2000/svg">
<g clip-path="url(#clip0_2764_86)">
<mask id="mask0_2764_86" style="mask-type:luminance" maskUnits="userSpaceOnUse" x="0" y="0" width="40" height="40">
<path d="M40 0H0V40H40V0Z" fill="white"/>
</mask>
<g mask="url(#mask0_2764_86)">
<path d="M21.0909 4.60895C23.2864 4.60165 25.482 4.59615 27.6775 4.59277C28.697 4.59115 29.7165 4.58897 30.736 4.58539C31.6247 4.58227 32.5134 4.58025 33.4022 4.57955C33.8725 4.57915 34.343 4.5782 34.8134 4.57592C35.2565 4.57379 35.6997 4.57315 36.1429 4.57362C36.3052 4.57354 36.4675 4.5729 36.6297 4.5717C38.5984 4.55785 38.5984 4.55785 39.3937 5.31727C39.8519 5.83152 40.0064 6.25499 40.008 6.93947C40.0082 6.99337 40.0085 7.04727 40.0087 7.1028C40.0094 7.28427 40.0095 7.46574 40.0097 7.6472C40.01 7.77829 40.0104 7.90937 40.0109 8.04044C40.0119 8.40135 40.0125 8.76225 40.013 9.12317C40.0135 9.43257 40.0144 9.74195 40.015 10.0514C40.0177 11.0708 40.0194 12.0902 40.0209 13.1096C40.0212 13.375 40.0215 13.6405 40.022 13.9059C40.0244 15.5542 40.0265 17.2026 40.0277 18.8509C40.028 19.2328 40.0284 19.6146 40.0287 19.9964C40.0289 20.0913 40.0289 20.1863 40.029 20.2839C40.0302 21.8211 40.0335 23.3583 40.0375 24.8954C40.0415 26.4736 40.0439 28.0518 40.0444 29.6299C40.0447 30.5159 40.0459 31.4021 40.049 32.2881C40.0517 33.0428 40.0529 33.7974 40.0519 34.5523C40.0514 34.9371 40.0517 35.3221 40.054 35.7069C40.0562 36.0598 40.056 36.4124 40.0544 36.7653C40.054 36.8924 40.0547 37.0198 40.056 37.1469C40.0649 37.9868 39.9674 38.7001 39.4015 39.3681C39.2682 39.4929 39.1362 39.5904 38.9814 39.6871C38.9154 39.7298 38.9154 39.7298 38.8479 39.7731C38.2382 40.0981 37.5724 40.0429 36.9015 40.0393C36.7605 40.0396 36.6195 40.0401 36.4784 40.0408C36.0919 40.0421 35.7052 40.0414 35.3187 40.0404C34.9014 40.0398 34.484 40.0408 34.0667 40.0418C33.2495 40.0431 32.4322 40.0428 31.615 40.0419C30.9505 40.0411 30.2862 40.0411 29.6219 40.0414C29.5272 40.0414 29.4327 40.0414 29.3352 40.0416C29.143 40.0416 28.9509 40.0418 28.7587 40.0419C26.9569 40.0428 25.155 40.0418 23.3532 40.0401C21.8079 40.0386 20.2627 40.0389 18.7174 40.0403C16.9224 40.0419 15.1275 40.0426 13.3325 40.0418C13.141 40.0416 12.9494 40.0414 12.7579 40.0414C12.6165 40.0413 12.6165 40.0413 12.4723 40.0413C11.8091 40.0409 11.1459 40.0414 10.4826 40.0423C9.67383 40.0431 8.86505 40.0428 8.05625 40.0411C7.64378 40.0403 7.23133 40.0401 6.81886 40.0411C6.44085 40.0419 6.06285 40.0414 5.68483 40.0398C5.54851 40.0394 5.41218 40.0396 5.27586 40.0404C3.84753 40.0478 2.56296 39.7096 1.49955 38.7006C0.475961 37.6854 -0.0179903 36.5158 -0.0273419 35.0826C-0.0283431 33.6599 0.38628 32.5498 1.37921 31.5033C2.60776 30.3079 4.09685 29.9489 5.75833 29.9604C5.88373 29.9601 6.00913 29.9596 6.13453 29.9591C6.4709 29.9581 6.80721 29.9589 7.14358 29.9603C7.49736 29.9613 7.85116 29.9608 8.20495 29.9604C8.79806 29.9603 9.39115 29.9613 9.98425 29.9631C10.6688 29.9653 11.3532 29.9654 12.0377 29.9644C12.6988 29.9636 13.3599 29.9641 14.021 29.9653C14.3013 29.9656 14.5817 29.9656 14.862 29.9653C15.1919 29.9649 15.5217 29.9658 15.8516 29.9674C15.9723 29.9678 16.093 29.9678 16.2136 29.9674C17.0307 29.9651 17.698 30.0051 18.3564 30.5464C18.8264 31.1739 18.8847 31.7228 18.8252 32.4996C18.6977 33.0094 18.3275 33.3988 17.8877 33.6714C17.2965 33.9458 16.7135 33.9384 16.0723 33.9346C15.9613 33.9349 15.8504 33.9351 15.7394 33.9356C15.5018 33.9363 15.2642 33.9361 15.0266 33.9356C14.6507 33.9346 14.2747 33.9356 13.8988 33.9368C12.9655 33.9396 12.0322 33.9401 11.0989 33.9399C10.3725 33.9398 9.64605 33.9404 8.9196 33.9431C8.54606 33.9444 8.17256 33.9443 7.79903 33.9431C7.56666 33.9426 7.3343 33.9434 7.10193 33.9446C6.99441 33.9449 6.8869 33.9446 6.77938 33.9438C6.01561 33.9224 6.01561 33.9224 5.3877 34.2964C5.15991 34.6381 5.1089 34.9048 5.15331 35.3121C5.2633 35.5281 5.2633 35.5281 5.3877 35.7028C5.3877 35.7543 5.3877 35.8058 5.3877 35.8589C5.762 36.0108 6.05373 36.1031 6.45956 36.1048C6.59933 36.1056 6.59933 36.1058 6.74191 36.1066C6.8443 36.1068 6.9467 36.1069 7.05218 36.1071C7.16103 36.1076 7.26986 36.1083 7.37871 36.1088C7.73666 36.1104 8.09461 36.1113 8.45258 36.1119C8.57615 36.1123 8.69973 36.1126 8.82331 36.1129C9.40471 36.1144 9.98613 36.1156 10.5675 36.1161C11.2362 36.1169 11.9049 36.1189 12.5736 36.1221C13.0917 36.1246 13.6099 36.1256 14.128 36.1259C14.4367 36.1261 14.7455 36.1268 15.0542 36.1288C16.8422 36.1396 18.403 36.1471 19.8409 34.9214C20.955 33.7279 21.1037 32.3759 21.1002 30.8208C21.1002 30.7073 21.1004 30.5938 21.1004 30.4803C21.1005 30.1703 21.1004 29.8603 21.0999 29.5503C21.0995 29.2154 21.0997 28.8804 21.0997 28.5454C21.0997 27.9656 21.0995 27.3859 21.099 26.8061C21.0984 25.9679 21.0982 25.1298 21.0982 24.2914C21.098 22.9314 21.0975 21.5714 21.0967 20.2113C21.096 18.8904 21.0954 17.5694 21.095 16.2486C21.095 16.1671 21.095 16.0856 21.095 16.0017C21.095 15.593 21.0949 15.1842 21.0947 14.7755C21.0939 11.3867 21.0925 7.9978 21.0909 4.60895Z" fill="#EF801C"/>
<path d="M4.51025 -0.0112994C4.64393 -0.0121379 4.64393 -0.0121379 4.78033 -0.0129934C4.87742 -0.0132035 4.9745 -0.0134135 5.07452 -0.01363C5.17733 -0.0141433 5.28015 -0.0146567 5.38608 -0.0151857C5.72657 -0.0168248 6.06705 -0.0176388 6.40753 -0.0184174C6.52517 -0.0187339 6.6428 -0.0190554 6.76043 -0.0193823C7.3135 -0.0208699 7.86658 -0.0219818 8.41968 -0.0226333C9.05592 -0.0233953 9.69213 -0.0254479 10.3284 -0.0286098C10.8215 -0.0309754 11.3146 -0.0321238 11.8077 -0.0323818C12.1016 -0.0325644 12.3954 -0.0332514 12.6893 -0.0352303C12.9663 -0.0370656 13.2433 -0.0373733 13.5204 -0.0365769C13.6688 -0.0365206 13.8172 -0.0380006 13.9656 -0.0395508C15.3114 -0.0315183 16.5008 0.49026 17.4525 1.42812C18.4442 2.45674 18.8682 3.66772 18.8577 5.08252C18.8578 5.18184 18.858 5.28114 18.8582 5.38347C18.8587 5.65677 18.8578 5.93005 18.8567 6.20337C18.8557 6.49897 18.856 6.79457 18.8562 7.09018C18.8562 7.60155 18.8555 8.11294 18.8542 8.6243C18.8523 9.36365 18.8517 10.103 18.8513 10.8424C18.8508 12.0421 18.8493 13.2418 18.847 14.4415C18.845 15.6065 18.8433 16.7716 18.8423 17.9366C18.8422 18.0444 18.8422 18.0444 18.8422 18.1544C18.8418 18.5151 18.8415 18.8756 18.8412 19.2363C18.8388 22.2253 18.8347 25.2143 18.8293 28.2033C18.7672 28.1818 18.705 28.1601 18.6408 28.1378C18.558 28.1094 18.4752 28.0811 18.39 28.0519C18.3083 28.0239 18.2268 27.9958 18.1428 27.9668C17.718 27.8381 17.3222 27.8028 16.8798 27.8018C16.8272 27.8014 16.7743 27.8013 16.7198 27.8011C16.544 27.8004 16.368 27.8003 16.1921 27.8001C16.0655 27.7998 15.9389 27.7994 15.8124 27.7989C15.469 27.7979 15.1256 27.7974 14.7822 27.7971C14.5672 27.7968 14.3522 27.7966 14.1372 27.7961C13.463 27.7951 12.7888 27.7944 12.1146 27.7941C11.3391 27.7938 10.5636 27.7923 9.78808 27.7901C9.187 27.7884 8.58593 27.7876 7.98487 27.7874C7.62668 27.7874 7.26852 27.7869 6.91033 27.7856C6.57265 27.7843 6.23498 27.7841 5.89728 27.7848C5.77435 27.7848 5.65142 27.7844 5.52848 27.7838C3.7017 27.7728 1.79882 28.2104 0.401667 29.4582C0.334292 29.5247 0.334292 29.5247 0.265558 29.5927C0.157525 29.6877 0.157525 29.6878 0.00127554 29.6878C-0.00588173 26.4406 -0.0113861 23.1933 -0.0146824 19.9461C-0.0150733 19.5626 -0.0154777 19.1789 -0.0158906 18.7953C-0.0159726 18.7189 -0.0160544 18.6426 -0.0161389 18.5639C-0.0174975 17.3284 -0.0199612 16.0928 -0.0228348 14.8573C-0.0257602 13.5889 -0.0274935 12.3206 -0.0281272 11.0522C-0.0285553 10.27 -0.0299063 9.48774 -0.0324485 8.70549C-0.034104 8.16862 -0.0345987 7.63175 -0.0341937 7.09487C-0.0339942 6.78542 -0.0342938 6.47597 -0.0359762 6.16652C-0.0375085 5.88257 -0.0375663 5.59867 -0.0365055 5.31472C-0.036313 5.16464 -0.0376505 5.01455 -0.0390625 4.86449C-0.0296032 3.47669 0.532777 2.2927 1.49847 1.31307C2.32728 0.54282 3.36043 -0.00633001 4.51025 -0.0112994Z" fill="#EF801C"/>
</g>
<path fill-rule="evenodd" clip-rule="evenodd" d="M32.5013 38.6667C29.7515 38.6667 28.3765 38.6667 27.5223 37.8123C26.668 36.9582 26.668 35.5832 26.668 32.8333C26.668 30.0835 26.668 28.7085 27.5223 27.8543C28.3765 27 29.7515 27 32.5013 27C35.2511 27 36.6261 27 37.4803 27.8543C38.3346 28.7085 38.3346 30.0835 38.3346 32.8333C38.3346 35.5832 38.3346 36.9582 37.4803 37.8123C36.6261 38.6667 35.2511 38.6667 32.5013 38.6667ZM35.7813 31.5763C36.161 31.1967 36.161 30.5812 35.7813 30.2015C35.4016 29.8217 34.7861 29.8217 34.4065 30.2015L31.205 33.4028L30.5961 32.794C30.2165 32.4143 29.601 32.4143 29.2213 32.794C28.8416 33.1737 28.8416 33.7893 29.2213 34.169L30.5175 35.4652C30.8971 35.845 31.5128 35.845 31.8925 35.4652L35.7813 31.5763Z" fill="white"/>
</g>
<defs>
<clipPath id="clip0_2764_86">
<rect width="40" height="40" fill="white"/>
</clipPath>
</defs>
</svg>
