<svg width="40" height="40" viewBox="0 0 40 40" fill="none" xmlns="http://www.w3.org/2000/svg">
<g clip-path="url(#clip0_2760_60)">
<mask id="mask0_2760_60" style="mask-type:luminance" maskUnits="userSpaceOnUse" x="0" y="0" width="40" height="40">
<path d="M40 0H0V40H40V0Z" fill="white"/>
</mask>
<g mask="url(#mask0_2760_60)">
<path d="M18.2032 0.0782612C18.338 0.178855 18.338 0.178855 18.4585 0.305923C18.5258 0.375355 18.5258 0.375355 18.5945 0.446188C18.6642 0.520266 18.6642 0.520266 18.7353 0.59584C18.8333 0.696881 18.9315 0.797793 19.0298 0.898573C19.0765 0.946611 19.123 0.99465 19.171 1.04414C19.4082 1.28511 19.6633 1.50146 19.9218 1.71888C20.0027 1.78896 20.0835 1.85918 20.1642 1.92946C20.7493 2.43773 21.3468 2.92545 21.9598 3.39953C22.1193 3.5235 22.2777 3.64878 22.4358 3.77425C26.0927 6.66386 30.3158 9.32391 35.1038 9.39985C35.2345 9.4023 35.2345 9.4023 35.3677 9.40478C35.6423 9.40983 35.9168 9.41446 36.1913 9.41908C36.3792 9.42246 36.5668 9.42586 36.7545 9.4293C37.2113 9.43761 37.6682 9.44556 38.125 9.45326C37.8412 9.77078 37.5027 9.98261 37.1482 10.2122C37.0815 10.2559 37.0148 10.2995 36.9462 10.3445C36.8015 10.4391 36.657 10.5336 36.5122 10.6279C36.1205 10.8831 35.7298 11.1397 35.339 11.3963C35.2585 11.4492 35.178 11.502 35.095 11.5565C34.2905 12.0855 33.4925 12.6241 32.6953 13.1642C31.4967 13.9759 30.2913 14.7768 29.0812 15.5714C27.9458 16.3173 26.8175 17.0731 25.6925 17.8349C24.4152 18.6996 23.1292 19.5504 21.8395 20.3967C21.769 20.4431 21.6985 20.4892 21.6258 20.5371C21.4933 20.6239 21.361 20.7107 21.2285 20.7974C21.1703 20.8356 21.1122 20.8737 21.0523 20.9129C21.0017 20.9462 20.9508 20.9794 20.8985 21.0137C20.7828 21.0876 20.7828 21.0876 20.7032 21.1721C19.1835 21.3034 17.7618 21.0184 16.3281 20.5471C16.2733 20.5294 16.2184 20.5117 16.1619 20.4934C13.0671 19.4814 10.2026 17.6229 7.65625 15.6251C7.5624 15.5527 7.4685 15.4802 7.37457 15.4078C6.83332 14.9888 6.30687 14.5546 5.78675 14.1096C5.57208 13.9265 5.3525 13.7502 5.13183 13.5744C4.59788 13.1394 4.10325 12.6631 3.60417 12.1892C3.26968 11.8725 2.93253 11.5586 2.59592 11.2441C2.35168 11.0154 2.10957 10.7857 1.875 10.547C1.9854 10.2772 2.10107 10.165 2.34833 10.0142C2.41453 9.97306 2.48073 9.93195 2.54895 9.88958C2.65765 9.82346 2.65765 9.82346 2.76855 9.756C2.92505 9.65876 3.08138 9.5613 3.23762 9.46363C3.3207 9.4117 3.4038 9.35976 3.48942 9.30625C3.94295 9.01823 4.3881 8.71776 4.83398 8.4181C5.43243 8.01668 6.03237 7.6195 6.6461 7.24171C7.33755 6.81498 8.01418 6.36496 8.694 5.92005C8.99038 5.72641 9.28757 5.53401 9.58497 5.34193C10.0574 5.03665 10.5294 4.7306 11.001 4.42396C11.0662 4.38156 11.1314 4.33916 11.1986 4.29548C11.398 4.1658 11.5975 4.0361 11.7969 3.90638C12.5925 3.38888 13.3884 2.87168 14.1854 2.35631C14.543 2.12506 14.9003 1.8934 15.2573 1.66125C15.3879 1.57633 15.5187 1.49157 15.6496 1.40696C15.9964 1.18239 16.3409 0.954928 16.6827 0.722793C16.7887 0.6517 16.7887 0.6517 16.8967 0.57917C17.0325 0.487976 17.1677 0.395873 17.302 0.302756C17.3632 0.261906 17.4245 0.221056 17.4875 0.17897C17.541 0.142475 17.5945 0.105981 17.6495 0.0683812C17.8677 -0.0229378 17.9812 0.00333799 18.2032 0.0782612Z" fill="#EF801C"/>
<path d="M6.17187 26.6408C6.32645 26.7328 6.32645 26.7328 6.47705 26.8493C6.53432 26.8928 6.59157 26.9363 6.65057 26.9809C6.71173 27.0283 6.77292 27.0756 6.83593 27.1243C8.0725 28.0566 9.36782 28.9036 10.7031 29.6878C10.7579 29.7199 10.8126 29.7521 10.8691 29.7851C13.5712 31.3579 16.7112 32.7753 19.8995 32.8053C20.0782 32.8128 20.0782 32.8128 20.3038 32.8489C21.3055 32.9536 21.9648 32.3709 22.749 31.8214C22.8995 31.7188 23.0502 31.6164 23.201 31.5141C23.5143 31.3013 23.8268 31.0871 24.1383 30.8716C24.5962 30.5554 25.0567 30.2438 25.5182 29.9334C25.5913 29.8841 25.6647 29.8348 25.74 29.7841C26.0285 29.5899 26.317 29.3961 26.6055 29.2021C26.8122 29.0631 27.0188 28.9241 27.2253 28.7849C27.3228 28.7193 27.3228 28.7193 27.4223 28.6524C27.7565 28.4268 28.0885 28.1988 28.4173 27.9654C28.545 27.8749 28.6735 27.7858 28.802 27.6966C28.9458 27.5966 29.0885 27.4946 29.2292 27.3903C29.6548 27.0986 29.6548 27.0986 29.9642 27.1293C30.1663 27.1878 30.3538 27.2604 30.5468 27.3439C30.6465 27.3783 30.7463 27.4118 30.8465 27.4441C30.9378 27.4754 31.029 27.5069 31.123 27.5393C32.8165 28.1056 34.496 28.1494 36.2695 28.1741C36.4507 28.1771 36.6317 28.1801 36.8127 28.1833C37.2502 28.1906 37.6875 28.1973 38.125 28.2033C37.9237 28.4141 37.7252 28.5864 37.4813 28.7456C37.4165 28.7883 37.3518 28.8308 37.285 28.8746C37.2153 28.9199 37.1457 28.9651 37.074 29.0118C37.001 29.0596 36.9282 29.1074 36.8532 29.1566C36.6197 29.3096 36.386 29.4621 36.1523 29.6144C35.8475 29.8138 35.5427 30.0133 35.238 30.2129C35.1632 30.2619 35.0883 30.3111 35.0112 30.3616C34.4828 30.7086 33.9605 31.0631 33.441 31.4228C32.8027 31.8644 32.1573 32.2959 31.5137 32.7298C31.4398 32.7794 31.3662 32.8291 31.2902 32.8804C30.3478 33.5158 29.4042 34.1489 28.4577 34.7781C27.482 35.4268 26.5112 36.0826 25.5402 36.7383C24.4625 37.4661 23.3825 38.1904 22.299 38.9093C22.2498 38.9419 22.2008 38.9746 22.1502 39.0083C22.056 39.0708 21.9617 39.1331 21.8672 39.1953C21.6625 39.3308 21.4635 39.4694 21.2688 39.6193C20.8112 39.9708 20.4935 40.0853 19.917 40.0588C19.8435 40.0569 19.77 40.0549 19.6943 40.0529C15.2917 39.8619 11.206 37.1264 7.8125 34.5314C7.76233 34.4931 7.71217 34.4548 7.66048 34.4153C7.07378 33.9651 6.50455 33.4964 5.94268 33.0156C5.72987 32.8341 5.51198 32.6596 5.29297 32.4856C4.73145 32.0284 4.21367 31.5238 3.68962 31.0248C3.354 30.7061 3.01528 30.3909 2.67695 30.0753C2.40462 29.8204 2.13693 29.5626 1.875 29.2971C1.98162 29.0429 2.08152 28.9271 2.31628 28.7848C2.37475 28.7486 2.43323 28.7124 2.49348 28.6753C2.55687 28.6373 2.62025 28.5991 2.68555 28.5598C2.8203 28.4768 2.95498 28.3936 3.0896 28.3104C3.19452 28.2459 3.19452 28.2459 3.30155 28.1801C3.6529 27.9618 3.9993 27.7361 4.3457 27.5099C4.40848 27.4691 4.47127 27.4283 4.53595 27.3863C4.59663 27.3468 4.65732 27.3071 4.71985 27.2664C4.77898 27.2283 4.83813 27.1899 4.89907 27.1506C5.0233 27.0679 5.14565 26.9824 5.26635 26.8946C5.35777 26.8291 5.35777 26.8291 5.45105 26.7623C5.50517 26.7223 5.55928 26.6821 5.61505 26.6408C5.83628 26.5368 5.94245 26.5644 6.17187 26.6408Z" fill="#EF801C"/>
<path d="M6.17187 17.2658C6.32645 17.3578 6.32645 17.3578 6.47705 17.4743C6.53432 17.5178 6.59157 17.5613 6.65057 17.6059C6.71173 17.6533 6.77292 17.7006 6.83593 17.7493C8.0725 18.6816 9.36782 19.5286 10.7031 20.3128C10.7579 20.3449 10.8126 20.3771 10.8691 20.4101C13.5712 21.9829 16.7112 23.4003 19.8995 23.4303C20.0782 23.4378 20.0782 23.4378 20.3038 23.4739C21.3055 23.5786 21.9648 22.9959 22.749 22.4464C22.8995 22.3438 23.0502 22.2414 23.201 22.1391C23.5143 21.9263 23.8268 21.7121 24.1383 21.4966C24.5962 21.1804 25.0567 20.8688 25.5182 20.5584C25.5913 20.5091 25.6647 20.4598 25.74 20.4091C26.0285 20.2149 26.317 20.0211 26.6055 19.8271C26.8122 19.6881 27.0188 19.5491 27.2253 19.4099C27.3228 19.3443 27.3228 19.3443 27.4223 19.2774C27.7565 19.0518 28.0885 18.8238 28.4173 18.5904C28.545 18.4999 28.6735 18.4108 28.802 18.3216C28.9458 18.2216 29.0885 18.1196 29.2292 18.0153C29.6548 17.7236 29.6548 17.7236 29.9642 17.7543C30.1663 17.8128 30.3538 17.8854 30.5468 17.9689C30.6465 18.0033 30.7463 18.0368 30.8465 18.0691C30.9378 18.1004 31.029 18.1319 31.123 18.1643C32.8165 18.7306 34.496 18.7744 36.2695 18.7991C36.4507 18.8021 36.6317 18.8051 36.8127 18.8083C37.2502 18.8156 37.6875 18.8223 38.125 18.8283C37.8412 19.1459 37.5027 19.3578 37.1482 19.5873C37.0815 19.6309 37.0148 19.6746 36.9462 19.7196C36.8015 19.8143 36.657 19.9086 36.5122 20.0029C36.1205 20.2583 35.7298 20.5148 35.339 20.7714C35.2183 20.8506 35.2183 20.8506 35.095 20.9316C34.2905 21.4606 33.4925 21.9991 32.6953 22.5393C31.4967 23.3509 30.2913 24.1519 29.0812 24.9464C27.9458 25.6924 26.8175 26.4483 25.6925 27.2099C24.4152 28.0746 23.1292 28.9256 21.8395 29.7718C21.769 29.8181 21.6985 29.8644 21.6258 29.9121C21.4933 29.9989 21.361 30.0858 21.2285 30.1724C21.1703 30.2106 21.1122 30.2488 21.0523 30.2881C21.0017 30.3213 20.9508 30.3546 20.8985 30.3888C20.7828 30.4626 20.7828 30.4626 20.7032 30.5471C19.1835 30.6784 17.7618 30.3934 16.3281 29.9221C16.2733 29.9044 16.2184 29.8868 16.1619 29.8686C13.0671 28.8564 10.2026 26.9979 7.65625 25.0003C7.5624 24.9278 7.4685 24.8553 7.37457 24.7829C6.83332 24.3639 6.30687 23.9296 5.78675 23.4848C5.57208 23.3016 5.3525 23.1253 5.13183 22.9494C4.59788 22.5146 4.10325 22.0381 3.60417 21.5643C3.26968 21.2476 2.93253 20.9336 2.59592 20.6193C2.35168 20.3904 2.10957 20.1608 1.875 19.9221C1.98162 19.6679 2.08152 19.5519 2.31628 19.4098C2.37475 19.3736 2.43323 19.3374 2.49348 19.3003C2.55687 19.2623 2.62025 19.2241 2.68555 19.1848C2.8203 19.1018 2.95498 19.0186 3.0896 18.9354C3.19452 18.8709 3.19452 18.8709 3.30155 18.8051C3.6529 18.5868 3.9993 18.3611 4.3457 18.1349C4.40848 18.0941 4.47127 18.0533 4.53595 18.0113C4.59663 17.9718 4.65732 17.9321 4.71985 17.8914C4.77898 17.8533 4.83813 17.8149 4.89907 17.7756C5.0233 17.6929 5.14565 17.6074 5.26635 17.5196C5.35777 17.4541 5.35777 17.4541 5.45105 17.3873C5.50517 17.3473 5.55928 17.3071 5.61505 17.2658C5.83628 17.1618 5.94245 17.1894 6.17187 17.2658Z" fill="#EF801C"/>
</g>
</g>
<defs>
<clipPath id="clip0_2760_60">
<rect width="40" height="40" fill="white"/>
</clipPath>
</defs>
</svg>
