<svg width="40" height="40" viewBox="0 0 40 40" fill="none" xmlns="http://www.w3.org/2000/svg">
<path d="M26.2451 24.9049C26.2451 24.3042 26.479 23.7395 26.9038 23.3146L31.5262 18.6923H18.3583C17.1182 18.6923 16.1094 17.6835 16.1094 16.4434C16.1094 15.2033 17.1182 14.1945 18.3583 14.1945H31.5261L26.9037 9.57213C26.479 9.14736 26.245 8.5826 26.245 7.98182C26.245 7.38103 26.4789 6.81635 26.9037 6.39158C27.3285 5.96682 27.8933 5.73291 28.4941 5.73291C29.0948 5.73291 29.6595 5.96682 30.0843 6.39166L38.5457 14.8531C38.9705 15.2778 39.2045 15.8426 39.2045 16.4433C39.2045 17.044 38.9705 17.6087 38.5457 18.0335L30.0843 26.4952C29.6595 26.9199 29.0948 27.1539 28.4941 27.1539C27.8933 27.1539 27.3286 26.9201 26.9037 26.4953C26.4789 26.0704 26.2451 25.5056 26.2451 24.9049Z" fill="#EF801C"/>
<path d="M9.91703 33.6081L1.45563 25.1467C1.03086 24.7219 0.796875 24.1571 0.796875 23.5563C0.796875 22.9556 1.03078 22.3909 1.45563 21.9661L9.91703 13.5047C10.3417 13.0799 10.9065 12.8459 11.5073 12.8459C12.108 12.8459 12.6727 13.0799 13.0976 13.5047C13.5223 13.9295 13.7563 14.4942 13.7563 15.0949C13.7563 15.6956 13.5224 16.2604 13.0976 16.6852L8.47523 21.3075H21.643C22.8831 21.3075 23.892 22.3163 23.892 23.5564C23.892 24.7965 22.8831 25.8053 21.643 25.8053H8.47523L13.0976 30.4277C13.5223 30.8524 13.7563 31.4172 13.7563 32.018C13.7563 32.6188 13.5224 33.1834 13.0976 33.6082C12.6728 34.033 12.108 34.2669 11.5073 34.2669C10.9066 34.2667 10.3418 34.0328 9.91703 33.6081Z" fill="#EF801C"/>
</svg>
