<svg width="40" height="40" viewBox="0 0 40 40" fill="none" xmlns="http://www.w3.org/2000/svg">
<path fill-rule="evenodd" clip-rule="evenodd" d="M3.89488 13.1251C2.99412 15.004 3.31032 17.2015 3.94272 21.5966L4.40734 24.8254C5.21968 30.4714 5.62586 33.2942 7.58432 34.9804C9.54274 36.6668 12.4149 36.6668 18.1591 36.6668H21.846C27.5902 36.6668 30.4624 36.6668 32.421 34.9804C34.3792 33.2942 34.7854 30.4714 35.598 24.8254L36.0624 21.5966C36.695 17.2015 37.011 15.004 36.1102 13.1251C35.2096 11.2462 33.2922 10.1041 29.4578 7.81984L27.1496 6.44494C23.6676 4.37064 21.9264 3.3335 20.0026 3.3335C18.0788 3.3335 16.3377 4.37064 12.8555 6.44494L10.5474 7.81984C6.71292 10.1041 4.79564 11.2462 3.89488 13.1251ZM13.7528 29.9998C13.7528 29.3094 14.3124 28.7498 15.0028 28.7498H25.0028C25.693 28.7498 26.2528 29.3094 26.2528 29.9998C26.2528 30.6902 25.693 31.2498 25.0028 31.2498H15.0028C14.3124 31.2498 13.7528 30.6902 13.7528 29.9998Z" fill="#EF801C"/>
</svg>
