<svg width="40" height="40" viewBox="0 0 40 40" fill="none" xmlns="http://www.w3.org/2000/svg">
<path d="M26.6654 9.99992C26.6654 13.6818 23.6805 16.6666 19.9987 16.6666C16.3168 16.6666 13.332 13.6818 13.332 9.99992C13.332 6.31802 16.3168 3.33325 19.9987 3.33325C23.6805 3.33325 26.6654 6.31802 26.6654 9.99992Z" fill="#EF801C"/>
<path d="M26.1316 22.5047C25.3431 22.5142 24.6083 22.5431 23.9678 22.6291C22.8963 22.7732 21.7236 23.1176 20.7545 24.0866C19.7855 25.0556 19.4411 26.2284 19.2971 27.2999C19.1676 28.2627 19.1678 29.4392 19.168 30.6901V30.9767C19.1678 32.2276 19.1676 33.4041 19.2971 34.3669C19.3981 35.1187 19.5978 35.9204 20.0428 36.6667C20.029 36.6667 20.0151 36.6667 20.0013 36.6667C6.66797 36.6667 6.66797 33.3089 6.66797 29.1667C6.66797 25.0246 12.6375 21.6667 20.0013 21.6667C22.2116 21.6667 24.2963 21.9692 26.1316 22.5047Z" fill="#EF801C"/>
<path fill-rule="evenodd" clip-rule="evenodd" d="M27.5013 36.6667C24.7515 36.6667 23.3765 36.6667 22.5223 35.8123C21.668 34.9582 21.668 33.5832 21.668 30.8333C21.668 28.0835 21.668 26.7085 22.5223 25.8543C23.3765 25 24.7515 25 27.5013 25C30.2511 25 31.6261 25 32.4803 25.8543C33.3346 26.7085 33.3346 28.0835 33.3346 30.8333C33.3346 33.5832 33.3346 34.9582 32.4803 35.8123C31.6261 36.6667 30.2511 36.6667 27.5013 36.6667ZM30.7813 29.5763C31.161 29.1967 31.161 28.5812 30.7813 28.2015C30.4016 27.8217 29.7861 27.8217 29.4065 28.2015L26.205 31.4028L25.5961 30.794C25.2165 30.4143 24.601 30.4143 24.2213 30.794C23.8416 31.1737 23.8416 31.7893 24.2213 32.169L25.5175 33.4652C25.8971 33.845 26.5128 33.845 26.8925 33.4652L30.7813 29.5763Z" fill="#EF801C"/>
</svg>
