<svg width="24" height="24" viewBox="0 0 24 24" fill="none" xmlns="http://www.w3.org/2000/svg">
<path d="M17.5787 4.43152L15.5787 3.38197C13.8231 2.46066 12.9453 2 12.001 2C11.0567 2 10.1789 2.46066 8.42328 3.38197L8.10156 3.5508L17.0246 8.64967L21.0413 6.64132C20.3951 5.90949 19.3525 5.36234 17.5787 4.43152Z" fill="white"/>
<path d="M21.7484 7.96436L17.75 9.96354V13C17.75 13.4142 17.4142 13.75 17 13.75C16.5858 13.75 16.25 13.4142 16.25 13V10.7135L12.75 12.4635V21.904C13.4679 21.7252 14.2848 21.2965 15.5777 20.618L17.5777 19.5685C19.7294 18.4393 20.8052 17.8748 21.4026 16.8603C22 15.8458 22 14.5833 22 12.0585V11.9415C22 10.0489 22 8.86559 21.7484 7.96436Z" fill="white"/>
<path d="M11.25 21.904V12.4635L2.25164 7.96436C2 8.86559 2 10.0489 2 11.9415V12.0585C2 14.5833 2 15.8458 2.5974 16.8603C3.19479 17.8748 4.27062 18.4393 6.42228 19.5685L8.42229 20.618C9.71524 21.2965 10.5321 21.7252 11.25 21.904Z" fill="white"/>
<path d="M2.96094 6.6414L12.0012 11.1616L15.4124 9.45598L6.52581 4.37793L6.42354 4.4316C4.6498 5.36242 3.60715 5.90957 2.96094 6.6414Z" fill="white"/>
</svg>
