<svg width="24" height="24" viewBox="0 0 24 24" fill="none" xmlns="http://www.w3.org/2000/svg">
<g clip-path="url(#clip0_2321_102)">
<path d="M12.6553 2.76542C13.9726 2.76104 15.29 2.75774 16.6073 2.75571C17.219 2.75474 17.8307 2.75343 18.4424 2.75128C18.9756 2.74941 19.5088 2.7482 20.0421 2.74778C20.3243 2.74754 20.6066 2.74697 20.8888 2.7456C21.1547 2.74432 21.4206 2.74394 21.6865 2.74422C21.7839 2.74417 21.8813 2.74379 21.9786 2.74307C23.1598 2.73476 23.1598 2.73476 23.637 3.19041C23.9119 3.49896 24.0046 3.75304 24.0056 4.16373C24.0057 4.19607 24.0059 4.22841 24.006 4.26173C24.0064 4.37061 24.0065 4.47949 24.0066 4.58837C24.0068 4.66702 24.007 4.74567 24.0073 4.82431C24.0079 5.04086 24.0083 5.2574 24.0086 5.47395C24.0089 5.65959 24.0094 5.84522 24.0098 6.03086C24.0114 6.6425 24.0124 7.25415 24.0133 7.8658C24.0135 8.02507 24.0137 8.18433 24.014 8.3436C24.0154 9.33259 24.0167 10.3216 24.0174 11.3106C24.0176 11.5397 24.0178 11.7688 24.018 11.9979C24.0181 12.0548 24.0181 12.1118 24.0182 12.1704C24.0189 13.0927 24.0209 14.015 24.0233 14.9373C24.0257 15.8842 24.0271 16.8311 24.0274 17.778C24.0276 18.3096 24.0283 18.8413 24.0302 19.3729C24.0318 19.8257 24.0325 20.2785 24.0319 20.7314C24.0316 20.9623 24.0318 21.1933 24.0332 21.4242C24.0345 21.6359 24.0344 21.8475 24.0334 22.0592C24.0332 22.1355 24.0336 22.2119 24.0344 22.2882C24.0397 22.7921 23.9812 23.2201 23.6417 23.6209C23.5617 23.6958 23.4825 23.7543 23.3896 23.8123C23.35 23.8379 23.35 23.8379 23.3095 23.8639C22.9437 24.0589 22.5442 24.0258 22.1417 24.0236C22.0571 24.0238 21.9725 24.0241 21.8878 24.0245C21.6559 24.0253 21.4239 24.0249 21.192 24.0243C20.9416 24.0239 20.6912 24.0245 20.4408 24.0251C19.9505 24.0259 19.4601 24.0257 18.9698 24.0252C18.5711 24.0247 18.1725 24.0247 17.7739 24.0249C17.7171 24.0249 17.6604 24.0249 17.6019 24.025C17.4866 24.025 17.3713 24.0251 17.256 24.0252C16.1749 24.0257 15.0938 24.0251 14.0127 24.0241C13.0855 24.0232 12.1584 24.0234 11.2312 24.0242C10.1542 24.0252 9.07726 24.0256 8.00028 24.0251C7.88536 24.025 7.77044 24.0249 7.65552 24.0249C7.57071 24.0248 7.57071 24.0248 7.48419 24.0248C7.08625 24.0246 6.68831 24.0249 6.29036 24.0254C5.80508 24.0259 5.31981 24.0257 4.83453 24.0247C4.58705 24.0242 4.33958 24.0241 4.0921 24.0247C3.86529 24.0252 3.63849 24.0249 3.41168 24.0239C3.32989 24.0237 3.24809 24.0238 3.1663 24.0243C2.3093 24.0287 1.53856 23.8258 0.90051 23.2204C0.286358 22.6113 -0.0100129 21.9095 -0.0156239 21.0496C-0.0162246 20.196 0.232549 19.5299 0.828309 18.902C1.56544 18.1848 2.45889 17.9694 3.45578 17.9763C3.53102 17.9761 3.60626 17.9758 3.6815 17.9755C3.88332 17.9749 4.08511 17.9754 4.28693 17.9762C4.4992 17.9768 4.71148 17.9765 4.92375 17.9763C5.27962 17.9762 5.63547 17.9768 5.99133 17.9779C6.40204 17.9792 6.81273 17.9793 7.22343 17.9787C7.62008 17.9782 8.01673 17.9785 8.41338 17.9792C8.58158 17.9794 8.74978 17.9794 8.91798 17.9792C9.11591 17.979 9.31382 17.9795 9.51174 17.9805C9.58415 17.9807 9.65656 17.9807 9.72897 17.9805C10.2192 17.9791 10.6196 18.0031 11.0146 18.3279C11.2966 18.7044 11.3316 19.0337 11.2959 19.4998C11.2194 19.8057 10.9973 20.0393 10.7334 20.2029C10.3787 20.3675 10.0289 20.3631 9.64416 20.3608C9.57759 20.361 9.51102 20.3611 9.44445 20.3614C9.30189 20.3618 9.15933 20.3617 9.01676 20.3614C8.79119 20.3608 8.56563 20.3614 8.34006 20.3621C7.78009 20.3638 7.22012 20.3641 6.66014 20.364C6.22427 20.3639 5.78841 20.3643 5.35254 20.3659C5.12842 20.3667 4.90432 20.3666 4.6802 20.3659C4.54078 20.3656 4.40136 20.3661 4.26194 20.3668C4.19743 20.367 4.13292 20.3668 4.06841 20.3663C3.61015 20.3535 3.61015 20.3535 3.2334 20.5779C3.09673 20.7829 3.06612 20.9429 3.09277 21.1873C3.15876 21.3169 3.15876 21.3169 3.2334 21.4217C3.2334 21.4526 3.2334 21.4835 3.2334 21.5154C3.45798 21.6065 3.63302 21.6619 3.87652 21.6629C3.96038 21.6634 3.96038 21.6635 4.04593 21.664C4.10736 21.6641 4.1688 21.6642 4.23209 21.6643C4.2974 21.6646 4.3627 21.665 4.42801 21.6653C4.64278 21.6663 4.85755 21.6668 5.07233 21.6672C5.14647 21.6674 5.22062 21.6676 5.29477 21.6678C5.64361 21.6687 5.99246 21.6694 6.3413 21.6697C6.74252 21.6702 7.14373 21.6714 7.54494 21.6733C7.85582 21.6748 8.1667 21.6754 8.47758 21.6756C8.66283 21.6757 8.84808 21.6761 9.03333 21.6773C10.1061 21.6838 11.0426 21.6883 11.9053 20.9529C12.5738 20.2368 12.663 19.4256 12.6609 18.4925C12.6609 18.4244 12.661 18.3563 12.661 18.2882C12.6611 18.1022 12.661 17.9162 12.6607 17.7302C12.6605 17.5293 12.6606 17.3283 12.6606 17.1273C12.6606 16.7794 12.6605 16.4316 12.6602 16.0837C12.6598 15.5808 12.6597 15.0779 12.6597 14.5749C12.6596 13.7589 12.6593 12.9429 12.6588 12.1268C12.6584 11.3343 12.658 10.5417 12.6578 9.74918C12.6578 9.7003 12.6578 9.65142 12.6578 9.60105C12.6578 9.35582 12.6577 9.11058 12.6576 8.86534C12.6571 6.83204 12.6563 4.79873 12.6553 2.76542Z" fill="white"/>
<path d="M2.70615 -0.00673079C2.78636 -0.0072339 2.78636 -0.0072339 2.8682 -0.00774717C2.92645 -0.00787321 2.9847 -0.00799926 3.04471 -0.00812912C3.1064 -0.00843714 3.16809 -0.00874517 3.23165 -0.00906253C3.43594 -0.010046 3.64023 -0.0105344 3.84452 -0.0110016C3.9151 -0.0111915 3.98568 -0.0113844 4.05626 -0.0115805C4.3881 -0.0124731 4.71995 -0.0131402 5.05181 -0.0135311C5.43355 -0.0139883 5.81528 -0.0152199 6.19703 -0.017117C6.4929 -0.0185364 6.78877 -0.0192254 7.08464 -0.0193802C7.26096 -0.0194898 7.43726 -0.019902 7.61357 -0.0210893C7.77979 -0.0221905 7.94598 -0.0223751 8.11221 -0.0218973C8.20127 -0.0218635 8.29033 -0.0227515 8.37938 -0.0236816C9.18686 -0.0188621 9.90048 0.294205 10.4715 0.856918C11.0665 1.47409 11.3209 2.20068 11.3146 3.04956C11.3147 3.10915 11.3148 3.16873 11.3149 3.23013C11.3152 3.39411 11.3147 3.55808 11.314 3.72207C11.3134 3.89943 11.3136 4.07679 11.3137 4.25416C11.3137 4.56098 11.3133 4.86781 11.3125 5.17463C11.3114 5.61824 11.311 6.06185 11.3108 6.50546C11.3105 7.2253 11.3096 7.94513 11.3082 8.66496C11.307 9.36396 11.306 10.063 11.3054 10.762C11.3053 10.8267 11.3053 10.8267 11.3053 10.8927C11.3051 11.1091 11.3049 11.3254 11.3047 11.5418C11.3033 13.3352 11.3008 15.1286 11.2976 16.922C11.2603 16.9091 11.223 16.8961 11.1845 16.8827C11.1348 16.8657 11.0851 16.8487 11.034 16.8312C10.985 16.8144 10.9361 16.7975 10.8857 16.7801C10.6308 16.7029 10.3933 16.6817 10.1279 16.6811C10.0963 16.6809 10.0646 16.6808 10.0319 16.6807C9.92638 16.6803 9.82082 16.6802 9.71526 16.6801C9.63932 16.6799 9.56337 16.6797 9.48742 16.6794C9.2814 16.6788 9.07537 16.6785 8.86934 16.6783C8.74033 16.6781 8.61131 16.678 8.4823 16.6777C8.07779 16.6771 7.67328 16.6767 7.26878 16.6765C6.80346 16.6763 6.33816 16.6754 5.87285 16.6741C5.5122 16.6731 5.15156 16.6726 4.79092 16.6725C4.57601 16.6725 4.36111 16.6722 4.1462 16.6714C3.94359 16.6706 3.74099 16.6705 3.53837 16.6709C3.46461 16.6709 3.39085 16.6707 3.31709 16.6703C2.22102 16.6637 1.07929 16.9263 0.241 17.675C0.200575 17.7149 0.200575 17.7149 0.159335 17.7557C0.0945153 17.8127 0.0945153 17.8127 0.000765322 17.8127C-0.00352904 15.8644 -0.00683163 13.916 -0.00880945 11.9677C-0.00904395 11.7376 -0.00928661 11.5074 -0.00953436 11.2772C-0.00958354 11.2314 -0.00963264 11.1856 -0.00968331 11.1384C-0.0104985 10.3971 -0.0119767 9.65574 -0.0137009 8.91443C-0.0154561 8.15341 -0.0164961 7.3924 -0.0168763 6.63139C-0.0171332 6.16203 -0.0179438 5.69269 -0.0194691 5.22334C-0.0204624 4.90122 -0.0207592 4.5791 -0.0205162 4.25697C-0.0203965 4.0713 -0.0205763 3.88563 -0.0215857 3.69996C-0.0225051 3.52959 -0.0225398 3.35925 -0.0219033 3.18888C-0.0217878 3.09883 -0.0225903 3.00878 -0.0234375 2.91874C-0.0177619 2.08606 0.319666 1.37567 0.899081 0.787888C1.39637 0.325741 2.01626 -0.00374914 2.70615 -0.00673079Z" fill="white"/>
</g>
<defs>
<clipPath id="clip0_2321_102">
<rect width="24" height="24" fill="white"/>
</clipPath>
</defs>
</svg>
