<svg width="20" height="20" viewBox="0 0 20 20" fill="none" xmlns="http://www.w3.org/2000/svg">
<path fill-rule="evenodd" clip-rule="evenodd" d="M1.94744 6.56254C1.49706 7.50199 1.65516 8.60075 1.97136 10.7983L2.20367 12.4127C2.60984 15.2357 2.81293 16.6471 3.79216 17.4902C4.77137 18.3334 6.20744 18.3334 9.07955 18.3334H10.923C13.7951 18.3334 15.2312 18.3334 16.2105 17.4902C17.1896 16.6471 17.3927 15.2357 17.799 12.4127L18.0312 10.7983C18.3475 8.60075 18.5055 7.50199 18.0551 6.56254C17.6048 5.62308 16.6461 5.05203 14.7289 3.90992L13.5748 3.22247C11.8338 2.18532 10.9632 1.66675 10.0013 1.66675C9.03938 1.66675 8.16883 2.18532 6.42776 3.22247L5.27372 3.90992C3.35646 5.05203 2.39782 5.62308 1.94744 6.56254ZM6.87638 14.9999C6.87638 14.6547 7.15621 14.3749 7.50138 14.3749H12.5014C12.8465 14.3749 13.1264 14.6547 13.1264 14.9999C13.1264 15.3451 12.8465 15.6249 12.5014 15.6249H7.50138C7.15621 15.6249 6.87638 15.3451 6.87638 14.9999Z" fill="white"/>
</svg>
