<svg width="40" height="40" viewBox="0 0 40 40" fill="none" xmlns="http://www.w3.org/2000/svg">
<g clip-path="url(#clip0_2918_5)">
<path fill-rule="evenodd" clip-rule="evenodd" d="M10 3.33325C8.15905 3.33325 6.66667 4.82564 6.66667 6.66659V8.33325C5.7462 8.33325 5 9.07945 5 9.99992C5 10.9204 5.7462 11.6666 6.66667 11.6666V14.9999C5.7462 14.9999 5 15.7461 5 16.6666C5 17.5871 5.7462 18.3333 6.66667 18.3333V21.6666C5.7462 21.6666 5 22.4128 5 23.3333C5 24.2538 5.7462 24.9999 6.66667 24.9999V28.3333C5.7462 28.3333 5 29.0794 5 29.9999C5 30.9204 5.7462 31.6666 6.66667 31.6666V33.3333C6.66667 35.1743 8.15905 36.6666 10 36.6666H28.7608C33 36.6666 34 36.5 34 32.5V31.5L28.7608 36.6666H21.2952L23 31.5L33.5 21L33.3333 6.66659C33.3333 4.82564 31.841 3.33325 30 3.33325H10ZM14.1667 9.99992C12.7859 9.99992 11.6667 11.1192 11.6667 12.4999V14.1666C11.6667 15.5473 12.7859 16.6666 14.1667 16.6666H25.8333C27.214 16.6666 28.3333 15.5473 28.3333 14.1666V12.4999C28.3333 11.1192 27.214 9.99992 25.8333 9.99992H14.1667Z" fill="#EF801C"/>
<path d="M29.5014 35.1342L35.6646 28.9709C34.8258 28.6218 33.8323 28.0483 32.8927 27.1087C31.953 26.169 31.3794 25.1753 31.0303 24.3364L24.867 30.4998C24.386 30.9808 24.1455 31.2213 23.9387 31.4863C23.6947 31.7992 23.4856 32.1376 23.3149 32.4957C23.1702 32.7993 23.0627 33.1219 22.8476 33.7672L21.7133 37.17C21.6075 37.4875 21.6901 37.8376 21.9268 38.0743C22.1635 38.311 22.5136 38.3937 22.8312 38.2878L26.234 37.1535C26.8792 36.9384 27.2019 36.8309 27.5055 36.6863C27.8635 36.5156 28.202 36.3064 28.5148 36.0624C28.7799 35.8556 29.0205 35.6151 29.5014 35.1342Z" fill="white"/>
<path d="M37.3736 27.261C38.6533 25.9812 38.6533 23.9063 37.3736 22.6266C36.0938 21.3468 34.0189 21.3468 32.7392 22.6266L32 23.3658C32.0102 23.3963 32.0206 23.4273 32.0315 23.4587C32.3024 24.2397 32.8137 25.2634 33.7753 26.2251C34.737 27.1868 35.7607 27.698 36.5417 27.9689C36.573 27.9798 36.6038 27.9902 36.6342 28.0003L37.3736 27.261Z" fill="white"/>
</g>
<defs>
<clipPath id="clip0_2918_5">
<rect width="40" height="40" fill="white"/>
</clipPath>
</defs>
</svg>
