<svg width="20" height="20" viewBox="0 0 20 20" fill="none" xmlns="http://www.w3.org/2000/svg">
<path fill-rule="evenodd" clip-rule="evenodd" d="M2.88445 2.8869C1.66406 4.10728 1.66406 6.07146 1.66406 9.99984C1.66406 13.9282 1.66406 15.8924 2.88445 17.1128C4.10484 18.3332 6.06902 18.3332 9.9974 18.3332C13.9257 18.3332 15.89 18.3332 17.1103 17.1128C18.3307 15.8924 18.3307 13.9282 18.3307 9.99984C18.3307 6.07146 18.3307 4.10728 17.1103 2.8869C15.89 1.6665 13.9257 1.6665 9.9974 1.6665C6.06902 1.6665 4.10484 1.6665 2.88445 2.8869ZM9.9974 10.8332C10.4576 10.8332 10.8307 10.4601 10.8307 9.99984C10.8307 9.53959 10.4576 9.1665 9.9974 9.1665C9.53715 9.1665 9.16406 9.53959 9.16406 9.99984C9.16406 10.4601 9.53715 10.8332 9.9974 10.8332ZM7.4974 9.99984C7.4974 10.4601 7.1243 10.8332 6.66406 10.8332C6.20383 10.8332 5.83073 10.4601 5.83073 9.99984C5.83073 9.53959 6.20383 9.1665 6.66406 9.1665C7.1243 9.1665 7.4974 9.53959 7.4974 9.99984ZM13.3307 10.8332C13.791 10.8332 14.1641 10.4601 14.1641 9.99984C14.1641 9.53959 13.791 9.1665 13.3307 9.1665C12.8705 9.1665 12.4974 9.53959 12.4974 9.99984C12.4974 10.4601 12.8705 10.8332 13.3307 10.8332Z" fill="white"/>
</svg>
