<svg width="20" height="20" viewBox="0 0 20 20" fill="none" xmlns="http://www.w3.org/2000/svg">
<path fill-rule="evenodd" clip-rule="evenodd" d="M9.9974 18.3332C6.06902 18.3332 4.10484 18.3332 2.88445 17.1128C1.66406 15.8924 1.66406 13.9282 1.66406 9.99984C1.66406 6.07146 1.66406 4.10728 2.88445 2.8869C4.10484 1.6665 6.06902 1.6665 9.9974 1.6665C13.9257 1.6665 15.89 1.6665 17.1103 2.8869C18.3307 4.10728 18.3307 6.07146 18.3307 9.99984C18.3307 13.9282 18.3307 15.8924 17.1103 17.1128C15.89 18.3332 13.9257 18.3332 9.9974 18.3332ZM13.356 7.47456C13.6001 7.71864 13.6001 8.11437 13.356 8.35842L9.18931 12.5251C8.94523 12.7692 8.54956 12.7692 8.30545 12.5251L6.63879 10.8584C6.39471 10.6143 6.39471 10.2187 6.63879 9.97459C6.88286 9.7305 7.2786 9.7305 7.52267 9.97459L8.7474 11.1993L12.4721 7.47456C12.7162 7.23049 13.1119 7.23049 13.356 7.47456Z" fill="white"/>
</svg>
