<svg width="40" height="40" viewBox="0 0 40 40" fill="none" xmlns="http://www.w3.org/2000/svg">
<path d="M9.99766 17.6001C9.99766 16.9374 9.46039 16.4001 8.79766 16.4001C8.13492 16.4001 7.59766 16.9374 7.59766 17.6001H9.99766ZM18.3977 32.4001C19.0604 32.4001 19.5977 31.8628 19.5977 31.2001C19.5977 30.5374 19.0604 30.0001 18.3977 30.0001V32.4001ZM7.59766 17.6001C7.59766 18.2628 8.13492 18.8001 8.79766 18.8001C9.46039 18.8001 9.99766 18.2628 9.99766 17.6001H7.59766ZM18.3977 10.0001C19.0604 10.0001 19.5977 9.46283 19.5977 8.8001C19.5977 8.13736 19.0604 7.6001 18.3977 7.6001V10.0001ZM8.79766 16.4001C8.13492 16.4001 7.59766 16.9374 7.59766 17.6001C7.59766 18.2628 8.13492 18.8001 8.79766 18.8001V16.4001ZM18.3977 18.8001C19.0604 18.8001 19.5977 18.2628 19.5977 17.6001C19.5977 16.9374 19.0604 16.4001 18.3977 16.4001V18.8001ZM17.1977 17.6001C17.1977 18.2628 17.7349 18.8001 18.3977 18.8001C19.0604 18.8001 19.5977 18.2628 19.5977 17.6001H17.1977ZM19.5977 8.8001C19.5977 8.13736 19.0604 7.6001 18.3977 7.6001C17.7349 7.6001 17.1977 8.13736 17.1977 8.8001H19.5977ZM19.5977 17.6001C19.5977 16.9374 19.0604 16.4001 18.3977 16.4001C17.7349 16.4001 17.1977 16.9374 17.1977 17.6001H19.5977ZM17.1977 23.2001C17.1977 23.8628 17.7349 24.4001 18.3977 24.4001C19.0604 24.4001 19.5977 23.8628 19.5977 23.2001H17.1977ZM18.3977 30.0001C17.7349 30.0001 17.1977 30.5374 17.1977 31.2001C17.1977 31.8628 17.7349 32.4001 18.3977 32.4001V30.0001ZM32.3977 23.2001C32.3977 22.5374 31.8604 22.0001 31.1977 22.0001C30.5349 22.0001 29.9977 22.5374 29.9977 23.2001H32.3977ZM17.1977 31.2001C17.1977 31.8628 17.7349 32.4001 18.3977 32.4001C19.0604 32.4001 19.5977 31.8628 19.5977 31.2001H17.1977ZM19.5977 23.2001C19.5977 22.5374 19.0604 22.0001 18.3977 22.0001C17.7349 22.0001 17.1977 22.5374 17.1977 23.2001H19.5977ZM18.3977 7.6001C17.7349 7.6001 17.1977 8.13736 17.1977 8.8001C17.1977 9.46283 17.7349 10.0001 18.3977 10.0001V7.6001ZM29.9977 23.2001C29.9977 23.8628 30.5349 24.4001 31.1977 24.4001C31.8604 24.4001 32.3977 23.8628 32.3977 23.2001H29.9977ZM31.1977 24.4001C31.8604 24.4001 32.3977 23.8628 32.3977 23.2001C32.3977 22.5374 31.8604 22.0001 31.1977 22.0001V24.4001ZM18.3977 22.0001C17.7349 22.0001 17.1977 22.5374 17.1977 23.2001C17.1977 23.8628 17.7349 24.4001 18.3977 24.4001V22.0001ZM7.59766 17.6001V24.8001H9.99766V17.6001H7.59766ZM7.59766 24.8001C7.59766 28.9975 11.0003 32.4001 15.1977 32.4001V30.0001C12.3258 30.0001 9.99766 27.6719 9.99766 24.8001H7.59766ZM15.1977 32.4001H18.3977V30.0001H15.1977V32.4001ZM9.99766 17.6001V15.2001H7.59766V17.6001H9.99766ZM9.99766 15.2001C9.99766 12.3282 12.3258 10.0001 15.1977 10.0001V7.6001C11.0003 7.6001 7.59766 11.0027 7.59766 15.2001H9.99766ZM15.1977 10.0001H18.3977V7.6001H15.1977V10.0001ZM8.79766 18.8001H18.3977V16.4001H8.79766V18.8001ZM19.5977 17.6001V8.8001H17.1977V17.6001H19.5977ZM17.1977 17.6001V23.2001H19.5977V17.6001H17.1977ZM19.5977 31.2001V23.2001H17.1977V31.2001H19.5977ZM18.3977 10.0001H24.7977V7.6001H18.3977V10.0001ZM24.7977 10.0001C27.6695 10.0001 29.9977 12.3282 29.9977 15.2001H32.3977C32.3977 11.0027 28.9951 7.6001 24.7977 7.6001V10.0001ZM29.9977 15.2001V23.2001H32.3977V15.2001H29.9977ZM31.1977 22.0001H18.3977V24.4001H31.1977V22.0001Z" fill="#EF801C"/>
<path d="M33.1225 32.4527C33.1225 32.1524 33.2395 31.87 33.4519 31.6576L35.7631 29.3464H29.1791C28.5591 29.3464 28.0547 28.842 28.0547 28.2219C28.0547 27.6019 28.5591 27.0975 29.1791 27.0975H35.763L33.4519 24.7863C33.2395 24.5739 33.1225 24.2915 33.1225 23.9912C33.1225 23.6908 33.2395 23.4084 33.4519 23.196C33.6643 22.9837 33.9466 22.8667 34.247 22.8667C34.5474 22.8667 34.8298 22.9837 35.0421 23.1961L39.2729 27.4268C39.4852 27.6392 39.6022 27.9215 39.6022 28.2219C39.6022 28.5222 39.4853 28.8046 39.2729 29.017L35.0421 33.2478C34.8298 33.4602 34.5474 33.5772 34.247 33.5772C33.9466 33.5772 33.6643 33.4603 33.4519 33.2479C33.2395 33.0354 33.1225 32.7531 33.1225 32.4527Z" fill="#EF801C"/>
<path d="M24.9585 36.8039L20.7278 32.5732C20.5154 32.3608 20.3984 32.0784 20.3984 31.778C20.3984 31.4777 20.5154 31.1954 20.7278 30.9829L24.9585 26.7522C25.1709 26.5398 25.4532 26.4229 25.7536 26.4229C26.054 26.4229 26.3364 26.5398 26.5488 26.7522C26.7612 26.9646 26.8782 27.247 26.8782 27.5473C26.8782 27.8477 26.7612 28.1301 26.5488 28.3425L24.2376 30.6536H30.8215C31.4416 30.6536 31.946 31.158 31.946 31.7781C31.946 32.3981 31.4416 32.9025 30.8215 32.9025H24.2376L26.5488 35.2137C26.7612 35.4261 26.8782 35.7085 26.8782 36.0089C26.8782 36.3093 26.7612 36.5916 26.5488 36.804C26.3364 37.0164 26.054 37.1333 25.7536 37.1333C25.4533 37.1332 25.1709 37.0163 24.9585 36.8039Z" fill="#EF801C"/>
</svg>
