<svg width="24" height="24" viewBox="0 0 24 24" fill="none" xmlns="http://www.w3.org/2000/svg">
<g clip-path="url(#clip0_2322_105)">
<path d="M10.9219 0.0469079C11.0028 0.107264 11.0028 0.107264 11.0751 0.183505C11.1155 0.225164 11.1155 0.225164 11.1567 0.267664C11.1985 0.312111 11.1985 0.312111 11.2412 0.357455C11.3 0.41808 11.3589 0.478627 11.4179 0.539095C11.4459 0.567918 11.4738 0.596741 11.5026 0.626437C11.6449 0.771016 11.798 0.90083 11.9531 1.03128C12.0016 1.07333 12.0501 1.11546 12.0985 1.15763C12.4496 1.46259 12.8081 1.75522 13.1759 2.03967C13.2716 2.11405 13.3666 2.18922 13.4615 2.2645C15.6556 3.99827 18.1895 5.5943 21.0623 5.63986C21.1407 5.64133 21.1407 5.64133 21.2206 5.64282C21.3854 5.64585 21.5501 5.64863 21.7148 5.6514C21.8275 5.65343 21.9401 5.65547 22.0527 5.65753C22.3268 5.66252 22.6009 5.66729 22.875 5.67191C22.7047 5.86242 22.5016 5.98952 22.2889 6.12729C22.2489 6.15348 22.2089 6.17967 22.1677 6.20666C22.0809 6.26342 21.9942 6.32009 21.9073 6.37668C21.6723 6.52984 21.4379 6.68378 21.2034 6.83774C21.1551 6.86946 21.1068 6.90117 21.057 6.93385C20.5743 7.25124 20.0955 7.57441 19.6172 7.89847C18.898 8.38549 18.1748 8.86605 17.4487 9.34281C16.7675 9.79032 16.0905 10.2438 15.4155 10.7009C14.6491 11.2197 13.8775 11.7302 13.1037 12.238C13.0614 12.2658 13.0191 12.2935 12.9755 12.3222C12.896 12.3743 12.8166 12.4264 12.7371 12.4784C12.7022 12.5013 12.6673 12.5242 12.6314 12.5477C12.601 12.5677 12.5705 12.5876 12.5391 12.6082C12.4697 12.6525 12.4697 12.6525 12.4219 12.7032C11.5101 12.782 10.6571 12.611 9.79688 12.3282C9.76396 12.3176 9.73104 12.307 9.69713 12.296C7.84023 11.6888 6.12158 10.5737 4.59375 9.37503C4.53744 9.33155 4.4811 9.28809 4.42474 9.24466C4.09999 8.99323 3.78412 8.73269 3.47205 8.46573C3.34325 8.35585 3.2115 8.25009 3.0791 8.14457C2.75873 7.88362 2.46195 7.59781 2.1625 7.31347C1.96181 7.12344 1.75952 6.93511 1.55755 6.74644C1.41101 6.60922 1.26574 6.47139 1.125 6.32816C1.19124 6.16629 1.26064 6.09895 1.409 6.00846C1.44872 5.98379 1.48844 5.95912 1.52937 5.9337C1.59459 5.89403 1.59459 5.89403 1.66113 5.85355C1.75503 5.79521 1.84883 5.73673 1.94257 5.67813C1.99242 5.64697 2.04228 5.61581 2.09365 5.5837C2.36577 5.41089 2.63286 5.23061 2.90039 5.05081C3.25946 4.80996 3.61942 4.57165 3.98766 4.34498C4.40253 4.08894 4.80851 3.81893 5.2164 3.55198C5.39423 3.4358 5.57254 3.32036 5.75098 3.20511C6.03445 3.02194 6.31763 2.83831 6.60059 2.65433C6.63971 2.62889 6.67884 2.60345 6.71915 2.57724C6.83881 2.49943 6.95847 2.42161 7.07812 2.34378C7.55552 2.03328 8.03303 1.72296 8.51127 1.41374C8.7258 1.27499 8.94016 1.13599 9.15435 0.996699C9.23276 0.945752 9.31122 0.894894 9.38975 0.844126C9.59787 0.709386 9.80453 0.572908 10.0096 0.433627C10.0732 0.390971 10.0732 0.390971 10.138 0.347453C10.2195 0.292737 10.3006 0.237475 10.3812 0.181605C10.4179 0.157095 10.4547 0.132585 10.4925 0.107333C10.5246 0.0854363 10.5567 0.0635399 10.5897 0.0409799C10.7206 -0.0138115 10.7887 0.00195396 10.9219 0.0469079Z" fill="white"/>
<path d="M3.70312 15.9844C3.79587 16.0396 3.79587 16.0396 3.88623 16.1095C3.92059 16.1356 3.95494 16.1617 3.99034 16.1885C4.02704 16.2169 4.06375 16.2453 4.10156 16.2745C4.8435 16.8339 5.62069 17.3421 6.42188 17.8126C6.45473 17.8319 6.48759 17.8512 6.52144 17.871C8.14272 18.8147 10.0267 19.6651 11.9397 19.6831C12.0469 19.6876 12.0469 19.6876 12.1823 19.7093C12.7833 19.7721 13.1789 19.4225 13.6494 19.0928C13.7397 19.0312 13.8301 18.9698 13.9206 18.9084C14.1086 18.7807 14.2961 18.6522 14.483 18.5229C14.7577 18.3332 15.034 18.1462 15.3109 17.96C15.3548 17.9304 15.3988 17.9008 15.444 17.8704C15.6171 17.7539 15.7902 17.6376 15.9633 17.5212C16.0873 17.4378 16.2113 17.3544 16.3352 17.2709C16.3937 17.2315 16.3937 17.2315 16.4534 17.1914C16.6539 17.056 16.8531 16.9192 17.0504 16.7792C17.127 16.7249 17.2041 16.6714 17.2812 16.6179C17.3675 16.5579 17.4531 16.4967 17.5375 16.4341C17.7929 16.2591 17.7929 16.2591 17.9785 16.2775C18.0998 16.3126 18.2123 16.3562 18.3281 16.4063C18.3879 16.4269 18.4478 16.447 18.5079 16.4664C18.5627 16.4852 18.6174 16.5041 18.6738 16.5235C19.6899 16.8633 20.6976 16.8896 21.7617 16.9044C21.8704 16.9062 21.979 16.908 22.0876 16.9099C22.3501 16.9143 22.6125 16.9183 22.875 16.9219C22.7542 17.0484 22.6351 17.1518 22.4888 17.2473C22.4499 17.2729 22.4111 17.2984 22.371 17.3247C22.3292 17.3519 22.2874 17.379 22.2444 17.407C22.2006 17.4357 22.1569 17.4644 22.1119 17.4939C21.9718 17.5857 21.8316 17.6772 21.6914 17.7686C21.5085 17.8882 21.3256 18.0079 21.1428 18.1277C21.0979 18.1571 21.053 18.1866 21.0067 18.2169C20.6897 18.4251 20.3763 18.6378 20.0646 18.8536C19.6816 19.1186 19.2944 19.3775 18.9082 19.6378C18.8639 19.6676 18.8197 19.6974 18.7741 19.7282C18.2087 20.1094 17.6425 20.4893 17.0746 20.8668C16.4892 21.256 15.9067 21.6495 15.3241 22.0429C14.6775 22.4796 14.0295 22.9142 13.3794 23.3455C13.3499 23.3651 13.3205 23.3847 13.2901 23.4049C13.2336 23.4424 13.177 23.4798 13.1203 23.5171C12.9975 23.5984 12.8781 23.6816 12.7613 23.7715C12.4867 23.9824 12.2961 24.0511 11.9502 24.0352C11.9061 24.0341 11.862 24.0329 11.8166 24.0317C9.175 23.9171 6.7236 22.2758 4.6875 20.7188C4.6574 20.6958 4.6273 20.6728 4.59629 20.6491C4.24427 20.379 3.90273 20.0978 3.56561 19.8093C3.43792 19.7004 3.30719 19.5957 3.17578 19.4913C2.83887 19.217 2.5282 18.9142 2.21377 18.6148C2.0124 18.4236 1.80917 18.2345 1.60617 18.0451C1.44277 17.8922 1.28216 17.7375 1.125 17.5782C1.18897 17.4257 1.24891 17.3562 1.38977 17.2708C1.42485 17.2491 1.45994 17.2274 1.49609 17.2051C1.53412 17.1823 1.57215 17.1594 1.61133 17.1358C1.69218 17.086 1.77299 17.0361 1.85376 16.9862C1.91671 16.9475 1.91671 16.9475 1.98093 16.908C2.19174 16.777 2.39958 16.6416 2.60742 16.5059C2.64509 16.4814 2.68276 16.4569 2.72157 16.4317C2.75798 16.408 2.79439 16.3842 2.83191 16.3598C2.86739 16.3369 2.90288 16.3139 2.93944 16.2903C3.01398 16.2407 3.08739 16.1894 3.15981 16.1367C3.21466 16.0974 3.21466 16.0974 3.27063 16.0573C3.3031 16.0333 3.33557 16.0092 3.36903 15.9844C3.50177 15.922 3.56547 15.9386 3.70312 15.9844Z" fill="white"/>
<path d="M3.70312 10.3594C3.79587 10.4146 3.79587 10.4146 3.88623 10.4845C3.92059 10.5106 3.95494 10.5367 3.99034 10.5635C4.02704 10.5919 4.06375 10.6203 4.10156 10.6495C4.8435 11.2089 5.62069 11.7171 6.42188 12.1876C6.45473 12.2069 6.48759 12.2262 6.52144 12.246C8.14272 13.1897 10.0267 14.0401 11.9397 14.0581C12.0469 14.0626 12.0469 14.0626 12.1823 14.0843C12.7833 14.1471 13.1789 13.7975 13.6494 13.4678C13.7397 13.4062 13.8301 13.3448 13.9206 13.2834C14.1086 13.1557 14.2961 13.0272 14.483 12.8979C14.7577 12.7082 15.034 12.5212 15.3109 12.335C15.3548 12.3054 15.3988 12.2758 15.444 12.2454C15.6171 12.1289 15.7902 12.0126 15.9633 11.8962C16.0873 11.8128 16.2113 11.7294 16.3352 11.6459C16.3937 11.6065 16.3937 11.6065 16.4534 11.5664C16.6539 11.431 16.8531 11.2942 17.0504 11.1542C17.127 11.0999 17.2041 11.0464 17.2812 10.9929C17.3675 10.9329 17.4531 10.8717 17.5375 10.8091C17.7929 10.6341 17.7929 10.6341 17.9785 10.6525C18.0998 10.6876 18.2123 10.7312 18.3281 10.7813C18.3879 10.8019 18.4478 10.822 18.5079 10.8414C18.5627 10.8602 18.6174 10.8791 18.6738 10.8985C19.6899 11.2383 20.6976 11.2646 21.7617 11.2794C21.8704 11.2812 21.979 11.283 22.0876 11.2849C22.3501 11.2893 22.6125 11.2933 22.875 11.2969C22.7047 11.4875 22.5016 11.6146 22.2889 11.7523C22.2489 11.7785 22.2089 11.8047 22.1677 11.8317C22.0809 11.8885 21.9942 11.9451 21.9073 12.0017C21.6723 12.1549 21.4379 12.3088 21.2034 12.4628C21.131 12.5103 21.131 12.5103 21.057 12.5589C20.5743 12.8763 20.0955 13.1994 19.6172 13.5235C18.898 14.0105 18.1748 14.4911 17.4487 14.9678C16.7675 15.4154 16.0905 15.8689 15.4155 16.3259C14.6491 16.8447 13.8775 17.3553 13.1037 17.863C13.0614 17.8908 13.0191 17.9186 12.9755 17.9472C12.896 17.9993 12.8166 18.0514 12.7371 18.1034C12.7022 18.1263 12.6673 18.1492 12.6314 18.1728C12.601 18.1927 12.5705 18.2127 12.5391 18.2332C12.4697 18.2775 12.4697 18.2775 12.4219 18.3282C11.5101 18.407 10.6571 18.236 9.79688 17.9532C9.76396 17.9426 9.73104 17.932 9.69713 17.9211C7.84023 17.3138 6.12158 16.1987 4.59375 15.0001C4.53744 14.9566 4.4811 14.9131 4.42474 14.8697C4.09999 14.6183 3.78412 14.3577 3.47205 14.0908C3.34325 13.9809 3.2115 13.8751 3.0791 13.7696C2.75873 13.5087 2.46195 13.2228 2.1625 12.9385C1.96181 12.7485 1.75952 12.5601 1.55755 12.3715C1.41101 12.2342 1.26574 12.0964 1.125 11.9532C1.18897 11.8007 1.24891 11.7311 1.38977 11.6458C1.42485 11.6241 1.45994 11.6024 1.49609 11.5801C1.53412 11.5573 1.57215 11.5344 1.61133 11.5108C1.69218 11.461 1.77299 11.4111 1.85376 11.3612C1.91671 11.3225 1.91671 11.3225 1.98093 11.283C2.19174 11.152 2.39958 11.0166 2.60742 10.8809C2.64509 10.8564 2.68276 10.8319 2.72157 10.8067C2.75798 10.783 2.79439 10.7592 2.83191 10.7348C2.86739 10.7119 2.90288 10.6889 2.93944 10.6653C3.01398 10.6157 3.08739 10.5644 3.15981 10.5117C3.21466 10.4724 3.21466 10.4724 3.27063 10.4323C3.3031 10.4083 3.33557 10.3842 3.36903 10.3594C3.50177 10.297 3.56547 10.3136 3.70312 10.3594Z" fill="white"/>
</g>
<defs>
<clipPath id="clip0_2322_105">
<rect width="24" height="24" fill="white"/>
</clipPath>
</defs>
</svg>
