<svg width="24" height="24" viewBox="0 0 24 24" fill="none" xmlns="http://www.w3.org/2000/svg">
<path d="M16.2564 13.8647L13 17.1208L17.2521 21.3724C18.1513 22.2716 19.6081 22.2716 20.5074 21.3724C21.4069 20.4728 21.4073 19.0163 20.5081 18.1159L16.2564 13.8647Z" fill="white"/>
<path d="M6.29676 10.42L8.83272 12.956L12.0891 9.69963L9.55359 7.16397L12.62 4.09717C12.8718 3.84539 12.8718 3.43656 12.62 3.18432L12.0527 2.61739C11.741 2.30575 11.2985 2.16202 10.8632 2.23199L5.9614 3.01772C5.67544 3.06356 5.41154 3.19838 5.2068 3.40272L4.98995 3.61998L4.81279 3.44236C4.561 3.19058 4.15217 3.19058 3.90034 3.44236L2.57486 4.76794C2.32267 5.01973 2.32267 5.42856 2.57486 5.68039L2.75202 5.85796L0.188838 8.42074C-0.062946 8.67252 -0.062946 9.08135 0.188838 9.33318L3.33031 12.4747C3.58209 12.7264 3.99092 12.7264 4.24276 12.4747L6.29676 10.42Z" fill="white"/>
<path d="M23.3754 5.69324C23.2864 5.60426 23.1699 5.55952 23.0537 5.55952C22.9375 5.55952 22.8209 5.60426 22.7319 5.69324L20.9246 7.49942C20.766 7.65877 20.5577 7.73799 20.3498 7.73799C20.1419 7.73799 19.9337 7.65872 19.775 7.49942L18.4527 6.17664C18.2991 6.0251 18.2145 5.81796 18.2145 5.60226C18.2145 5.38656 18.2992 5.17992 18.4523 5.02717L20.2597 3.2202C20.4373 3.04258 20.4373 2.75421 20.2597 2.577C19.8475 2.16517 19.3022 1.95337 18.7531 1.95337C18.326 1.95337 17.8966 2.08159 17.526 2.34348L16.5439 3.03713C15.6105 3.69579 15.0311 4.74611 14.9698 5.88707L14.8536 8.05934L4.53578 18.3778C3.69641 19.2176 3.69641 20.5773 4.53578 21.4167C4.95583 21.8364 5.50569 22.0466 6.0556 22.0466C6.60546 22.0466 7.15492 21.8367 7.57496 21.4171L17.8938 11.0987L20.0653 10.9825C21.2058 10.9214 22.2558 10.3421 22.9149 9.4086L23.6089 8.42628C24.207 7.57985 24.1079 6.42572 23.3754 5.69324ZM6.1621 20.6919C5.65883 20.6919 5.25075 20.2839 5.25075 19.7806C5.25075 19.2774 5.65878 18.8693 6.1621 18.8693C6.66531 18.8693 7.07334 19.2774 7.07334 19.7806C7.07334 20.2839 6.66531 20.6919 6.1621 20.6919Z" fill="white"/>
</svg>
