<svg width="40" height="40" viewBox="0 0 40 40" fill="none" xmlns="http://www.w3.org/2000/svg">
<path d="M10.0013 10L11.3361 30.0215C11.453 31.775 11.5114 32.6518 11.8902 33.3167C12.2236 33.902 12.7266 34.3725 13.3328 34.6663C14.0213 35 14.9036 35 16.668 35M30.0013 10L29.668 15M6.66797 10H33.3346M26.668 10L26.217 8.64678C25.7798 7.33542 25.5611 6.67973 25.1558 6.19497C24.7978 5.76688 24.3381 5.43553 23.8188 5.2313C23.2306 5 22.5396 5 21.1573 5H18.8453C17.463 5 16.772 5 16.1838 5.2313C15.6645 5.43553 15.2048 5.76688 14.8468 6.19497C14.4414 6.67973 14.2228 7.33542 13.7857 8.64678L13.3346 10" stroke="#EF801C" stroke-width="1.5" stroke-linecap="round" stroke-linejoin="round"/>
<g clip-path="url(#clip0_2919_23)">
<path d="M30 20C24.4738 20 20 24.4989 20 30C20 35.5135 24.4878 40 30 40C35.534 40 40 35.4897 40 30C40 24.4884 35.5147 20 30 20ZM38.695 29.9466L37.4441 28.6957L38.3977 27.742C38.5872 28.4459 38.6904 29.1847 38.695 29.9466ZM37.9085 26.3866L36.5218 27.7734L34.8354 26.087L36.5896 24.3326C37.12 24.9485 37.5657 25.6392 37.9085 26.3866ZM35.6673 23.4103L33.913 25.1646L32.2266 23.4782L33.6134 22.0915C34.3607 22.4343 35.0515 22.8799 35.6673 23.4103ZM32.258 21.6023L31.3043 22.556L30.0534 21.3051C30.8153 21.3096 31.5541 21.4128 32.258 21.6023ZM21.3043 30C21.3043 28.5089 21.6818 27.1045 22.3458 25.8768L25.1647 28.6957L21.6023 32.258C21.4084 31.5376 21.3043 30.7808 21.3043 30ZM22.0915 33.6134L26.087 29.6179L27.7734 31.3044L23.4104 35.6673C22.88 35.0515 22.4343 34.3607 22.0915 33.6134ZM24.3327 36.5896L28.6957 32.2266L30.3821 33.913L26.3866 37.9085C25.6392 37.5657 24.9485 37.12 24.3327 36.5896ZM30 38.6957C29.2192 38.6957 28.4623 38.5916 27.742 38.3977L31.3043 34.8353L34.1232 37.6542C32.8955 38.3182 31.4911 38.6957 30 38.6957ZM35.2448 36.9311L23.0689 24.7553C23.5514 24.1192 24.1192 23.5514 24.7553 23.0689L36.9311 35.2447C36.4487 35.8808 35.8808 36.4486 35.2448 36.9311ZM37.6542 34.1232L25.8768 22.3458C26.6439 21.9309 27.4802 21.6284 28.3633 21.4595L38.5405 31.6367C38.3716 32.5198 38.0691 33.3561 37.6542 34.1232Z" fill="#EF801C"/>
</g>
<defs>
<clipPath id="clip0_2919_23">
<rect width="20" height="20" fill="white" transform="translate(20 20)"/>
</clipPath>
</defs>
</svg>
