<svg width="30" height="30" viewBox="0 0 30 30" fill="none" xmlns="http://www.w3.org/2000/svg">
<path d="M27.5 22.506C27.5 23.193 26.943 23.75 26.256 23.75H16.244C15.557 23.75 15 23.193 15 22.506C15 21.819 15.557 21.262 16.244 21.262H26.256C26.943 21.262 27.5 21.819 27.5 22.506Z" fill="#CAF0F8"/>
<path d="M27.5 15.0002C27.5 15.6873 26.943 16.2442 26.256 16.2442H3.74399C3.05695 16.2442 2.5 15.6873 2.5 15.0002C2.5 14.3132 3.05695 13.7563 3.74399 13.7563H26.256C26.943 13.7563 27.5 14.3132 27.5 15.0002Z" fill="#CAF0F8"/>
<path d="M26.256 8.73799C26.943 8.73799 27.5 8.18103 27.5 7.49399C27.5 6.80695 26.943 6.25 26.256 6.25H11.244C10.5569 6.25 10 6.80695 10 7.49399C10 8.18103 10.5569 8.73799 11.244 8.73799H26.256Z" fill="#CAF0F8"/>
</svg>
