<svg width="512" height="512" viewBox="0 0 512 512" fill="none" xmlns="http://www.w3.org/2000/svg">
<g clip-path="url(#clip0_1676_47)">
<mask id="mask0_1676_47" style="mask-type:luminance" maskUnits="userSpaceOnUse" x="56" y="213" width="400" height="86">
<path d="M456 213H56V299H456V213Z" fill="white"/>
</mask>
<g mask="url(#mask0_1676_47)">
<mask id="mask1_1676_47" style="mask-type:luminance" maskUnits="userSpaceOnUse" x="56" y="213" width="400" height="86">
<path d="M456 213H56V299H456V213Z" fill="white"/>
</mask>
<g mask="url(#mask1_1676_47)">
<path fill-rule="evenodd" clip-rule="evenodd" d="M324.549 267.192L336.612 238.921V267.192H324.549ZM312.926 297.932H281.27L323.471 214.876H356.153L366.497 297.932H337.95V286.093H317.263L312.922 297.932H312.926Z" fill="#2A2B6A"/>
<path d="M412.856 299C400.085 299 389.767 295.432 382.19 288.391C374.576 281.32 370.716 271.732 370.716 259.893C370.716 253.43 371.891 247.199 374.209 241.366C376.532 235.53 379.918 230.335 384.268 225.926C388.414 221.758 393.396 218.524 399.068 216.314C404.718 214.115 410.915 213 417.484 213C425.227 213 432.102 214.586 437.92 217.713C443.744 220.843 448.844 225.702 453.084 232.151L453.878 233.356L434.578 246.6L433.801 245.192C431.966 241.87 429.671 239.362 426.982 237.735C424.266 236.092 421.158 235.295 417.484 235.295C411.258 235.295 406.261 237.491 402.213 242.004C398.123 246.559 396.134 252.181 396.134 259.189C396.134 264.91 397.677 269.349 400.85 272.756C403.995 276.136 408.065 277.781 413.285 277.781C415.239 277.781 417.099 277.551 418.808 277.1C420.521 276.648 422.123 275.982 423.574 275.119C424.234 274.712 424.823 274.262 425.361 273.764L429.48 269.957H410.718L413.704 250.85L456 250.908L455.964 252.406C455.637 266.805 451.614 278.283 444.008 286.523C436.36 294.802 425.88 298.997 412.858 298.997L412.856 299Z" fill="#2A2B6A"/>
<path fill-rule="evenodd" clip-rule="evenodd" d="M224.457 297.932L230.45 254.427L245.488 297.932H275.103L290.561 214.876H261.288L254.076 258.803L239.503 214.876H209.464L194.53 297.932H224.457Z" fill="#2A2B6A"/>
<path d="M209.472 214.876H166.752L109.632 256.308L154.317 297.932H194.509L150.854 256.202L209.472 214.876Z" fill="#005C90"/>
<path d="M153.764 214.876H111.045L99.1388 225.028L100.97 214.876H70.9738L56 297.932H85.9154L87.7491 287.819L98.6065 297.932H138.801L95.146 256.202L153.764 214.876Z" fill="#005C90"/>
</g>
</g>
</g>
<defs>
<clipPath id="clip0_1676_47">
<rect width="400" height="86" fill="white" transform="translate(56 213)"/>
</clipPath>
</defs>
</svg>
