<svg width="192" height="192" viewBox="0 0 192 192" fill="none" xmlns="http://www.w3.org/2000/svg">
<g clip-path="url(#clip0_1676_31)">
<mask id="mask0_1676_31" style="mask-type:luminance" maskUnits="userSpaceOnUse" x="21" y="80" width="150" height="32">
<path d="M171 80H21V112H171V80Z" fill="white"/>
</mask>
<g mask="url(#mask0_1676_31)">
<mask id="mask1_1676_31" style="mask-type:luminance" maskUnits="userSpaceOnUse" x="21" y="80" width="150" height="32">
<path d="M171 80H21V112H171V80Z" fill="white"/>
</mask>
<g mask="url(#mask1_1676_31)">
<path fill-rule="evenodd" clip-rule="evenodd" d="M121.705 100.164L126.229 89.6452V100.164H121.705ZM117.347 111.603H105.476L121.301 80.6982H133.557L137.436 111.603H126.731V107.198H118.973L117.345 111.603H117.347Z" fill="#2A2B6A"/>
<path d="M154.821 112C150.032 112 146.163 110.672 143.321 108.052C140.466 105.421 139.019 101.854 139.019 97.4485C139.019 95.0437 139.459 92.7254 140.329 90.5549C141.199 88.3834 142.469 86.4503 144.1 84.8097C145.655 83.2588 147.524 82.0553 149.651 81.233C151.769 80.4147 154.093 80 156.557 80C159.46 80 162.038 80.59 164.22 81.7537C166.404 82.9184 168.316 84.7262 169.907 87.1259L170.204 87.5743L162.967 92.5022L162.675 91.9785C161.987 90.7424 161.127 89.809 160.118 89.2037C159.1 88.5923 157.934 88.2958 156.557 88.2958C154.222 88.2958 152.348 89.1131 150.83 90.7924C149.296 92.4869 148.55 94.579 148.55 97.1867C148.55 99.3154 149.129 100.967 150.319 102.235C151.498 103.492 153.024 104.105 154.982 104.105C155.715 104.105 156.412 104.019 157.053 103.851C157.696 103.683 158.296 103.435 158.841 103.114C159.088 102.962 159.309 102.795 159.51 102.61L161.055 101.193H154.019L155.139 94.0837L171 94.1051L170.987 94.6626C170.864 100.021 169.355 104.291 166.503 107.357C163.635 110.438 159.705 111.999 154.822 111.999L154.821 112Z" fill="#2A2B6A"/>
<path fill-rule="evenodd" clip-rule="evenodd" d="M84.1716 111.603L86.4191 95.4148L92.0584 111.603H103.164L108.961 80.6982H97.9832L95.279 97.0432L89.814 80.6982H78.5493L72.9492 111.603H84.1716Z" fill="#2A2B6A"/>
<path d="M78.5523 80.6982H62.5325L41.1123 96.1149L57.8691 111.603H72.9411L56.5705 96.0752L78.5523 80.6982Z" fill="#005C90"/>
<path d="M57.6616 80.6982H41.6418L37.1771 84.4757L37.8638 80.6982H26.6152L21 111.603H32.2183L32.9059 107.84L36.9774 111.603H52.0505L35.6797 96.0752L57.6616 80.6982Z" fill="#005C90"/>
</g>
</g>
</g>
<defs>
<clipPath id="clip0_1676_31">
<rect width="150" height="32" fill="white" transform="translate(21 80)"/>
</clipPath>
</defs>
</svg>
