<svg width="50" height="50" viewBox="0 0 50 50" fill="none" xmlns="http://www.w3.org/2000/svg">
<mask id="path-1-inside-1_1789_693" fill="white">
<path d="M5 30H20V37.5C20 41.6421 16.6421 45 12.5 45C8.35786 45 5 41.6421 5 37.5V30Z"/>
</mask>
<path d="M5 30H20H5ZM23 37.5C23 43.299 18.299 48 12.5 48C6.70101 48 2 43.299 2 37.5H8C8 39.9853 10.0147 42 12.5 42C14.9853 42 17 39.9853 17 37.5H23ZM12.5 48C6.70101 48 2 43.299 2 37.5V30H8V37.5C8 39.9853 10.0147 42 12.5 42V48ZM23 30V37.5C23 43.299 18.299 48 12.5 48V42C14.9853 42 17 39.9853 17 37.5V30H23Z" fill="#D9D9D9" mask="url(#path-1-inside-1_1789_693)"/>
<mask id="path-3-inside-2_1789_693" fill="white">
<path d="M30 30H45V42C45 43.6569 43.6569 45 42 45H33C31.3431 45 30 43.6569 30 42V30Z"/>
</mask>
<path d="M30 30H45H30ZM48 42C48 45.3137 45.3137 48 42 48H33C29.6863 48 27 45.3137 27 42H33H42H48ZM33 48C29.6863 48 27 45.3137 27 42V30H33V42V48ZM48 30V42C48 45.3137 45.3137 48 42 48V42V30H48Z" fill="#D9D9D9" mask="url(#path-3-inside-2_1789_693)"/>
<rect x="33" y="33" width="9" height="9" fill="#D9D9D9"/>
<path d="M13 25V13C13 10.2386 15.2386 8 18 8H32C34.7614 8 37 10.2386 37 13V25" stroke="#D9D9D9" stroke-width="3" stroke-linecap="round"/>
<path fill-rule="evenodd" clip-rule="evenodd" d="M37.825 26.6653C37.3694 27.1116 36.6306 27.1116 36.1751 26.6653L30.3417 20.951C29.8861 20.5047 29.8861 19.7811 30.3417 19.3347C30.7973 18.8884 31.536 18.8884 31.9916 19.3347L37 24.2409L42.0084 19.3347C42.464 18.8884 43.2027 18.8884 43.6583 19.3347C44.1139 19.7811 44.1139 20.5047 43.6583 20.951L37.825 26.6653Z" fill="#D9D9D9"/>
</svg>
