<svg width="50" height="50" viewBox="0 0 50 50" fill="none" xmlns="http://www.w3.org/2000/svg">
<g clip-path="url(#clip0_2759_5)">
<path d="M35.3336 11.4158V5.94447H38.2566C39.3246 5.94447 40.2053 5.06382 40.2053 3.9958C40.2053 2.92777 39.3246 2.04712 38.2566 2.04712H28.2134C27.1454 2.04712 26.2648 2.92777 26.2648 3.9958C26.2648 5.06382 27.1454 5.94447 28.2134 5.94447H31.4269V6.82512H11.7434C8.3332 6.82512 5.60692 9.15791 5.60692 12.184V35.6337C3.48024 36.43 2 38.4817 2 40.8426C2 43.9624 4.52953 46.3982 7.5556 46.3982C10.5817 46.3982 13.1112 43.9624 13.1112 40.8426C13.1112 38.3787 11.5841 36.3363 9.41059 35.5962V12.2777C9.41059 11.5001 10.4786 10.7225 11.7527 10.7225H31.4363V11.4158C24.4941 11.7249 18.8635 17.4492 18.8635 24.5599V46.0048C18.8635 47.0728 19.7442 47.9534 20.8122 47.9534H46.0513C47.1194 47.9534 48 47.0728 48 46.0984V24.5599C48 17.5147 42.3226 11.6781 35.3336 11.4158ZM9.21385 40.8426C9.21385 41.7233 8.52994 42.5009 7.5556 42.5009C6.67495 42.5009 5.89735 41.817 5.89735 40.8426C5.89735 39.962 6.58126 39.1844 7.5556 39.1844C8.52994 39.1844 9.30754 39.962 9.21385 40.8426ZM44.1026 44.1498H22.5642V24.5599C22.5642 19.3978 26.7519 15.2007 31.9234 15.2007H34.7434C39.9055 15.2007 44.1026 19.3885 44.1026 24.5599V44.1498Z" fill="#D9D9D9"/>
</g>
<defs>
<clipPath id="clip0_2759_5">
<rect width="46" height="46" fill="white" transform="translate(2 2)"/>
</clipPath>
</defs>
</svg>
