<svg width="50" height="50" viewBox="0 0 50 50" fill="none" xmlns="http://www.w3.org/2000/svg">
<mask id="path-1-inside-1_1789_700" fill="white">
<path d="M5 30H20V42C20 43.6569 18.6569 45 17 45H8C6.34315 45 5 43.6569 5 42V30Z"/>
</mask>
<path d="M5 30H20H5ZM23 42C23 45.3137 20.3137 48 17 48H8C4.68629 48 2 45.3137 2 42H8H17H23ZM8 48C4.68629 48 2 45.3137 2 42V30H8V42V48ZM23 30V42C23 45.3137 20.3137 48 17 48V42V30H23Z" fill="#D9D9D9" mask="url(#path-1-inside-1_1789_700)"/>
<mask id="path-3-inside-2_1789_700" fill="white">
<path d="M30 30H45V45H30V30Z"/>
</mask>
<path d="M45 45V48H48V45H45ZM30 45H27V48H30V45ZM45 30H42V45H45H48V30H45ZM45 45V42H30V45V48H45V45ZM30 45H33V30H30H27V45H30Z" fill="#D9D9D9" mask="url(#path-3-inside-2_1789_700)"/>
<rect x="33" y="33" width="9" height="9" fill="#D9D9D9"/>
<path d="M13 25V13C13 10.2386 15.2386 8 18 8H32C34.7614 8 37 10.2386 37 13V25" stroke="#D9D9D9" stroke-width="3" stroke-linecap="round"/>
<path fill-rule="evenodd" clip-rule="evenodd" d="M37.825 26.6653C37.3694 27.1116 36.6306 27.1116 36.1751 26.6653L30.3417 20.951C29.8861 20.5047 29.8861 19.7811 30.3417 19.3347C30.7973 18.8884 31.536 18.8884 31.9916 19.3347L37 24.2409L42.0084 19.3347C42.464 18.8884 43.2027 18.8884 43.6583 19.3347C44.1139 19.7811 44.1139 20.5047 43.6583 20.951L37.825 26.6653Z" fill="#D9D9D9"/>
</svg>
