<svg width="50" height="50" viewBox="0 0 50 50" fill="none" xmlns="http://www.w3.org/2000/svg">
<mask id="path-1-inside-1_1954_2" fill="white">
<path d="M5 5H45V35C45 40.5228 40.5228 45 35 45H15C9.47715 45 5 40.5228 5 35V5Z"/>
</mask>
<path d="M5 5H45H5ZM50 35C50 43.2843 43.2843 50 35 50H15C6.71573 50 0 43.2843 0 35H10C10 37.7614 12.2386 40 15 40H35C37.7614 40 40 37.7614 40 35H50ZM15 50C6.71573 50 0 43.2843 0 35V5H10V35C10 37.7614 12.2386 40 15 40V50ZM50 5V35C50 43.2843 43.2843 50 35 50V40C37.7614 40 40 37.7614 40 35V5H50Z" fill="#D9D9D9" mask="url(#path-1-inside-1_1954_2)"/>
<rect x="10" y="16" width="30" height="24" fill="#D9D9D9"/>
</svg>
