<svg width="30" height="30" viewBox="0 0 30 30" fill="none" xmlns="http://www.w3.org/2000/svg">
<path d="M16.25 26.25C16.25 26.5815 16.1183 26.8995 15.8839 27.1339C15.6495 27.3683 15.3315 27.5 15 27.5H10C8.34301 27.498 6.75445 26.8389 5.58277 25.6672C4.4111 24.4956 3.75198 22.907 3.75 21.25V8.75C3.75198 7.09301 4.4111 5.50445 5.58277 4.33277C6.75445 3.1611 8.34301 2.50198 10 2.5H15C15.3315 2.5 15.6495 2.6317 15.8839 2.86612C16.1183 3.10054 16.25 3.41848 16.25 3.75C16.25 4.08152 16.1183 4.39946 15.8839 4.63388C15.6495 4.8683 15.3315 5 15 5H10C9.00544 5 8.05161 5.39509 7.34835 6.09835C6.64509 6.80161 6.25 7.75544 6.25 8.75V21.25C6.25 22.2446 6.64509 23.1984 7.34835 23.9016C8.05161 24.6049 9.00544 25 10 25H15C15.3315 25 15.6495 25.1317 15.8839 25.3661C16.1183 25.6005 16.25 25.9185 16.25 26.25ZM25.8837 14.1162L20.8837 9.11625C20.7684 8.99686 20.6305 8.90163 20.478 8.83612C20.3255 8.77061 20.1615 8.73613 19.9955 8.73469C19.8295 8.73324 19.6649 8.76487 19.5113 8.82772C19.3577 8.89057 19.2181 8.98339 19.1008 9.10076C18.9834 9.21812 18.8906 9.35769 18.8277 9.51131C18.7649 9.66493 18.7332 9.82953 18.7347 9.9955C18.7361 10.1615 18.7706 10.3255 18.8361 10.478C18.9016 10.6305 18.9969 10.7684 19.1162 10.8837L21.9825 13.75H12.5C12.1685 13.75 11.8505 13.8817 11.6161 14.1161C11.3817 14.3505 11.25 14.6685 11.25 15C11.25 15.3315 11.3817 15.6495 11.6161 15.8839C11.8505 16.1183 12.1685 16.25 12.5 16.25H21.9825L19.1162 19.1162C18.9969 19.2316 18.9016 19.3695 18.8361 19.522C18.7706 19.6745 18.7361 19.8385 18.7347 20.0045C18.7332 20.1705 18.7649 20.3351 18.8277 20.4887C18.8906 20.6423 18.9834 20.7819 19.1008 20.8992C19.2181 21.0166 19.3577 21.1094 19.5113 21.1723C19.6649 21.2351 19.8295 21.2668 19.9955 21.2653C20.1615 21.2639 20.3255 21.2294 20.478 21.1639C20.6305 21.0984 20.7684 21.0031 20.8837 20.8837L25.8837 15.8837C26.1181 15.6493 26.2497 15.3315 26.2497 15C26.2497 14.6685 26.1181 14.3507 25.8837 14.1162Z" fill="white"/>
</svg>
