<svg width="30" height="30" viewBox="0 0 30 30" fill="none" xmlns="http://www.w3.org/2000/svg">
<path fill-rule="evenodd" clip-rule="evenodd" d="M3.75 6.25C3.75 5.55965 4.30965 5 5 5H8.75C10.8211 5 12.5 6.67894 12.5 8.75V12.5C12.5 12.9383 12.4248 13.359 12.2866 13.75H12.5C14.5711 13.75 16.25 15.4289 16.25 17.5V21.25C16.25 23.3211 14.5711 25 12.5 25H5C4.30965 25 3.75 24.4404 3.75 23.75C3.75 23.0596 4.30965 22.5 5 22.5H12.5C13.1904 22.5 13.75 21.9404 13.75 21.25V17.5C13.75 16.8096 13.1904 16.25 12.5 16.25H8.75H5C4.30965 16.25 3.75 15.6904 3.75 15C3.75 14.3096 4.30965 13.75 5 13.75H8.75C9.44036 13.75 10 13.1904 10 12.5V8.75C10 8.05965 9.44036 7.5 8.75 7.5H5C4.30965 7.5 3.75 6.94035 3.75 6.25Z" fill="white"/>
<path fill-rule="evenodd" clip-rule="evenodd" d="M22.6327 20.8501L21.0165 22.4663C20.5284 22.9544 20.5284 23.7459 21.0165 24.234C21.5047 24.7221 22.2962 24.7221 22.7843 24.234L26.5343 20.484C27.0224 19.9959 27.0224 19.2044 26.5343 18.7163L22.7843 14.9663C22.2962 14.4781 21.5047 14.4781 21.0165 14.9663C20.5284 15.4544 20.5284 16.2459 21.0165 16.734L22.6327 18.3501H18.1504C17.46 18.3501 16.9004 18.9098 16.9004 19.6001C16.9004 20.2905 17.46 20.8501 18.1504 20.8501H22.6327Z" fill="white"/>
</svg>
