<svg width="300" height="300" viewBox="0 0 300 300" fill="none" xmlns="http://www.w3.org/2000/svg">
<path d="M175.002 250H187.502C199.127 250 204.939 250 209.708 248.722C222.649 245.255 232.757 235.146 236.224 222.206C237.502 217.437 237.502 211.625 237.502 200" stroke="white" stroke-width="12.5" stroke-linejoin="round"/>
<path d="M125.002 250H112.502C100.877 250 95.0644 250 90.2957 248.722C77.3557 245.255 67.2469 235.146 63.7794 222.206C62.5019 217.437 62.5019 211.625 62.5019 200" stroke="white" stroke-width="12.5" stroke-linejoin="round"/>
<path d="M62.5019 125V112.5C62.5019 89.1344 62.5019 77.4516 67.5257 68.7498C70.8169 63.049 75.5507 58.3151 81.2519 55.0238C89.9545 49.9998 101.637 49.9998 125.002 49.9998" stroke="white" stroke-width="12.5" stroke-linejoin="round"/>
<path d="M237.502 125V112.5C237.502 89.1344 237.502 77.4516 232.478 68.7498C229.187 63.049 224.453 58.3151 218.752 55.0238C210.05 49.9998 198.367 49.9998 175.002 49.9998" stroke="white" stroke-width="12.5" stroke-linejoin="round"/>
<path d="M37.5 125H262.5" stroke="white" stroke-width="12.5" stroke-linecap="round" stroke-linejoin="round"/>
</svg>
