<svg width="30" height="30" viewBox="0 0 30 30" fill="none" xmlns="http://www.w3.org/2000/svg">
<path fill-rule="evenodd" clip-rule="evenodd" d="M3.75 6.25C3.75 5.55965 4.30965 5 5 5H8.75C10.8211 5 12.5 6.67894 12.5 8.75V12.5C12.5 12.9383 12.4248 13.359 12.2866 13.75H12.5C14.5711 13.75 16.25 15.4289 16.25 17.5V21.25C16.25 23.3211 14.5711 25 12.5 25H5C4.30965 25 3.75 24.4404 3.75 23.75C3.75 23.0596 4.30965 22.5 5 22.5H12.5C13.1904 22.5 13.75 21.9404 13.75 21.25V17.5C13.75 16.8096 13.1904 16.25 12.5 16.25H8.75H5C4.30965 16.25 3.75 15.6904 3.75 15C3.75 14.3096 4.30965 13.75 5 13.75H8.75C9.44036 13.75 10 13.1904 10 12.5V8.75C10 8.05965 9.44036 7.5 8.75 7.5H5C4.30965 7.5 3.75 6.94035 3.75 6.25ZM21.7677 18.75L23.3839 17.1339C23.872 16.6457 23.872 15.8542 23.3839 15.3661C22.8958 14.878 22.1043 14.878 21.6161 15.3661L17.8661 19.1161C17.378 19.6043 17.378 20.3957 17.8661 20.8839L21.6161 24.6339C22.1043 25.122 22.8958 25.122 23.3839 24.6339C23.872 24.1458 23.872 23.3543 23.3839 22.8661L21.7677 21.25H26.25C26.9404 21.25 27.5 20.6904 27.5 20C27.5 19.3096 26.9404 18.75 26.25 18.75H21.7677Z" fill="white"/>
</svg>
