<?xml version="1.0" encoding="utf-8"?>
<!-- Generator: Adobe Illustrator 23.0.5, SVG Export Plug-In . SVG Version: 6.00 Build 0)  -->
<svg version="1.1" xmlns="http://www.w3.org/2000/svg" xmlns:xlink="http://www.w3.org/1999/xlink" x="0px" y="0px"
	 viewBox="0 0 64 64" enable-background="new 0 0 64 64" xml:space="preserve">
<g id="Ruler">
</g>
<g id="temp" display="none">
	<g display="inline">
		<rect x="54.9" y="26.46" fill="#18CDEA" width="6.7" height="2.32"/>
		
			<rect x="48.6" y="10.89" transform="matrix(0.7071 -0.7071 0.7071 0.7071 6.6966 40.2661)" fill="#18CDEA" width="6.7" height="2.32"/>
		
			<rect x="50.79" y="39.85" transform="matrix(0.7071 -0.7071 0.7071 0.7071 -15.3323 49.3873)" fill="#18CDEA" width="2.32" height="6.7"/>
		<rect x="35.21" y="2.4" fill="#18CDEA" width="2.32" height="6.7"/>
		<path fill="#18CDEA" d="M37.4,37.35c4.91-0.51,8.75-4.68,8.75-9.72c0-5.39-4.38-9.77-9.77-9.77c-0.39,0.01-0.78,0.03-1.16,0.08
			v-2.34c0.39-0.04,0.78-0.06,1.17-0.06c6.66,0,12.09,5.43,12.09,12.1c0,6.33-4.88,11.53-11.07,12.06V37.35z"/>
		<path fill="#18CDEA" d="M16.69,52.88c-2.34,0-4.44-1.48-5.22-3.69c-0.49-1.39-0.41-2.9,0.22-4.23c0.64-1.33,1.76-2.34,3.15-2.83
			l0.68-0.24V13.34h2.32v28.54l0.68,0.24c1.58,0.56,2.81,1.79,3.37,3.37c1.02,2.88-0.5,6.05-3.37,7.07
			C17.94,52.77,17.32,52.88,16.69,52.88L16.69,52.88z"/>
		<path fill="#18CDEA" d="M16.67,61.6c-7.86,0-14.26-6.4-14.27-14.26c0-3.76,1.45-7.32,4.08-10l0.29-0.3V12.32
			c0-5.46,4.45-9.91,9.91-9.91s9.91,4.45,9.91,9.91v24.72l0.29,0.3c5.51,5.62,5.42,14.67-0.2,20.18c-2.68,2.63-6.23,4.08-9.99,4.08
			H16.67z M8.72,38.41c-2.38,2.13-3.79,5.06-3.97,8.25c-0.18,3.19,0.9,6.26,3.02,8.64c2.27,2.54,5.52,3.99,8.92,3.99c0,0,0,0,0,0
			c2.94,0,5.77-1.08,7.97-3.04c4.92-4.4,5.34-11.97,0.95-16.89c-0.3-0.33-0.62-0.65-0.95-0.95l-0.38-0.34V12.32
			c0-4.18-3.41-7.58-7.59-7.59h0c-4.18,0-7.58,3.41-7.59,7.59v25.75L8.72,38.41z"/>
	</g>
</g>
<g id="RH">
	<g id="humidity">
		<g>
			<path fill="#AA4522" d="M50.01,35.97C47.57,21.01,29.46,3.51,28.64,2.79c-0.41-0.41-1.02-0.41-1.42,0
				C26.3,3.61,5.54,23.55,5.54,39.12c0,12.31,10.07,22.39,22.39,22.39c3.46,0,6.82-0.81,9.87-2.34c2.14,1.42,4.68,2.34,7.43,2.34
				c7.33,0,13.23-5.9,13.23-13.23C58.46,42.68,55,37.9,50.01,35.97z M27.93,59.48c-11.19,0-20.35-9.16-20.35-20.35
				C7.58,26,24.27,8.6,27.93,4.93c3.36,3.36,17.3,17.91,19.95,30.43c-0.92-0.2-1.73-0.31-2.65-0.31C37.9,35.05,32,40.95,32,48.28
				c0,3.77,1.53,7.12,4.07,9.46C33.53,58.86,30.78,59.48,27.93,59.48z M45.23,59.48c-6.21,0-11.19-4.99-11.19-11.19
				s4.99-11.19,11.19-11.19s11.19,4.99,11.19,11.19S51.44,59.48,45.23,59.48z"/>
			<path fill="#AA4522" d="M27.93,54.39c-8.45,0-15.26-6.82-15.26-15.26c0-0.61-0.41-1.02-1.02-1.02s-1.02,0.41-1.02,1.02
				c0,9.57,7.73,17.3,17.3,17.3c0.61,0,1.02-0.41,1.02-1.02C28.95,54.79,28.54,54.39,27.93,54.39z"/>
			<path fill="#AA4522" d="M48.69,40.24c-0.51-0.2-1.12,0-1.32,0.51L41.26,55c-0.2,0.51,0,1.12,0.51,1.32c0.1,0.1,0.31,0.1,0.41,0.1
				c0.41,0,0.81-0.2,0.92-0.61l6.11-14.25C49.4,41.06,49.2,40.45,48.69,40.24z"/>
			<path fill="#AA4522" d="M44.21,44.21c0-1.73-1.32-3.05-3.05-3.05s-3.05,1.32-3.05,3.05s1.32,3.05,3.05,3.05
				S44.21,45.94,44.21,44.21z M40.14,44.21c0-0.61,0.41-1.02,1.02-1.02s1.02,0.41,1.02,1.02c0,0.61-0.41,1.02-1.02,1.02
				S40.14,44.82,40.14,44.21z"/>
			<path fill="#AA4522" d="M49.3,49.3c-1.73,0-3.05,1.32-3.05,3.05s1.32,3.05,3.05,3.05s3.05-1.32,3.05-3.05S51.03,49.3,49.3,49.3z
				 M49.3,53.37c-0.61,0-1.02-0.41-1.02-1.02c0-0.61,0.41-1.02,1.02-1.02c0.61,0,1.02,0.41,1.02,1.02
				C50.32,52.96,49.91,53.37,49.3,53.37z"/>
		</g>
	</g>
</g>
</svg>
