<?xml version="1.0" encoding="utf-8"?>
<!-- Generator: Adobe Illustrator 23.0.5, SVG Export Plug-In . SVG Version: 6.00 Build 0)  -->
<svg version="1.1" xmlns="http://www.w3.org/2000/svg" xmlns:xlink="http://www.w3.org/1999/xlink" x="0px" y="0px"
	 viewBox="0 0 64 64" enable-background="new 0 0 64 64" xml:space="preserve">
<g id="Layer_1" display="none">
	<g display="inline">
		<rect x="54.9" y="26.46" fill="#18CDEA" width="6.7" height="2.32"/>
		
			<rect x="48.6" y="10.89" transform="matrix(0.7071 -0.7071 0.7071 0.7071 6.6966 40.2661)" fill="#18CDEA" width="6.7" height="2.32"/>
		
			<rect x="50.79" y="39.85" transform="matrix(0.7071 -0.7071 0.7071 0.7071 -15.3323 49.3873)" fill="#18CDEA" width="2.32" height="6.7"/>
		<rect x="35.21" y="2.4" fill="#18CDEA" width="2.32" height="6.7"/>
		<path fill="#18CDEA" d="M37.4,37.35c4.91-0.51,8.75-4.68,8.75-9.72c0-5.39-4.38-9.77-9.77-9.77c-0.39,0.01-0.78,0.03-1.16,0.08
			v-2.34c0.39-0.04,0.78-0.06,1.17-0.06c6.66,0,12.09,5.43,12.09,12.1c0,6.33-4.88,11.53-11.07,12.06V37.35z"/>
		<path fill="#18CDEA" d="M16.69,52.88c-2.34,0-4.44-1.48-5.22-3.69c-0.49-1.39-0.41-2.9,0.22-4.23c0.64-1.33,1.76-2.34,3.15-2.83
			l0.68-0.24V13.34h2.32v28.54l0.68,0.24c1.58,0.56,2.81,1.79,3.37,3.37c1.02,2.88-0.5,6.05-3.37,7.07
			C17.94,52.77,17.32,52.88,16.69,52.88L16.69,52.88z"/>
		<path fill="#18CDEA" d="M16.67,61.6c-7.86,0-14.26-6.4-14.27-14.26c0-3.76,1.45-7.32,4.08-10l0.29-0.3V12.32
			c0-5.46,4.45-9.91,9.91-9.91s9.91,4.45,9.91,9.91v24.72l0.29,0.3c5.51,5.62,5.42,14.67-0.2,20.18c-2.68,2.63-6.23,4.08-9.99,4.08
			H16.67z M8.72,38.41c-2.38,2.13-3.79,5.06-3.97,8.25c-0.18,3.19,0.9,6.26,3.02,8.64c2.27,2.54,5.52,3.99,8.92,3.99c0,0,0,0,0,0
			c2.94,0,5.77-1.08,7.97-3.04c4.92-4.4,5.34-11.97,0.95-16.89c-0.3-0.33-0.62-0.65-0.95-0.95l-0.38-0.34V12.32
			c0-4.18-3.41-7.58-7.59-7.59h0c-4.18,0-7.58,3.41-7.59,7.59v25.75L8.72,38.41z"/>
	</g>
</g>
<g id="Layer_2">
	<g>
		<linearGradient id="SVGID_1_" gradientUnits="userSpaceOnUse" x1="32" y1="53.4255" x2="32" y2="4.7256">
			<stop  offset="2.024560e-07" style="stop-color:#00DB41"/>
			<stop  offset="0.2665" style="stop-color:#479E31"/>
			<stop  offset="0.776" style="stop-color:#CA2D13"/>
			<stop  offset="1" style="stop-color:#FF0007"/>
		</linearGradient>
		<path fill="url(#SVGID_1_)" d="M56,8.77H8c-1.1,0-2-0.9-2-2v-2c0-1.1,0.9-2,2-2h48c1.1,0,2,0.9,2,2v2C58,7.87,57.1,8.77,56,8.77z"
			/>
		<linearGradient id="SVGID_2_" gradientUnits="userSpaceOnUse" x1="32" y1="53.4255" x2="32" y2="4.7256">
			<stop  offset="2.024560e-07" style="stop-color:#00DB41"/>
			<stop  offset="0.2665" style="stop-color:#479E31"/>
			<stop  offset="0.776" style="stop-color:#CA2D13"/>
			<stop  offset="1" style="stop-color:#FF0007"/>
		</linearGradient>
		<path fill="url(#SVGID_2_)" d="M56,17.51H8c-1.1,0-2-0.9-2-2v-2c0-1.1,0.9-2,2-2h48c1.1,0,2,0.9,2,2v2
			C58,16.62,57.1,17.51,56,17.51z"/>
		<linearGradient id="SVGID_3_" gradientUnits="userSpaceOnUse" x1="32" y1="53.4255" x2="32" y2="4.7256">
			<stop  offset="2.024560e-07" style="stop-color:#00DB41"/>
			<stop  offset="0.2665" style="stop-color:#479E31"/>
			<stop  offset="0.776" style="stop-color:#CA2D13"/>
			<stop  offset="1" style="stop-color:#FF0007"/>
		</linearGradient>
		<path fill="url(#SVGID_3_)" d="M56,26.26H8c-1.1,0-2-0.9-2-2v-2c0-1.1,0.9-2,2-2h48c1.1,0,2,0.9,2,2v2
			C58,25.36,57.1,26.26,56,26.26z"/>
		<linearGradient id="SVGID_4_" gradientUnits="userSpaceOnUse" x1="32" y1="53.4255" x2="32" y2="4.7256">
			<stop  offset="2.024560e-07" style="stop-color:#00DB41"/>
			<stop  offset="0.2665" style="stop-color:#479E31"/>
			<stop  offset="0.776" style="stop-color:#CA2D13"/>
			<stop  offset="1" style="stop-color:#FF0007"/>
		</linearGradient>
		<path fill="url(#SVGID_4_)" d="M56,35H8c-1.1,0-2-0.9-2-2v-2c0-1.1,0.9-2,2-2h48c1.1,0,2,0.9,2,2v2C58,34.1,57.1,35,56,35z"/>
		<linearGradient id="SVGID_5_" gradientUnits="userSpaceOnUse" x1="32" y1="53.4255" x2="32" y2="4.7256">
			<stop  offset="2.024560e-07" style="stop-color:#00DB41"/>
			<stop  offset="0.2665" style="stop-color:#479E31"/>
			<stop  offset="0.776" style="stop-color:#CA2D13"/>
			<stop  offset="1" style="stop-color:#FF0007"/>
		</linearGradient>
		<path fill="url(#SVGID_5_)" d="M56,43.74H8c-1.1,0-2-0.9-2-2v-2c0-1.1,0.9-2,2-2h48c1.1,0,2,0.9,2,2v2
			C58,42.85,57.1,43.74,56,43.74z"/>
		<linearGradient id="SVGID_6_" gradientUnits="userSpaceOnUse" x1="32" y1="53.4255" x2="32" y2="4.7256">
			<stop  offset="2.024560e-07" style="stop-color:#00DB41"/>
			<stop  offset="0.2665" style="stop-color:#479E31"/>
			<stop  offset="0.776" style="stop-color:#CA2D13"/>
			<stop  offset="1" style="stop-color:#FF0007"/>
		</linearGradient>
		<path fill="url(#SVGID_6_)" d="M56,52.49H8c-1.1,0-2-0.9-2-2v-2c0-1.1,0.9-2,2-2h48c1.1,0,2,0.9,2,2v2
			C58,51.59,57.1,52.49,56,52.49z"/>
		<linearGradient id="SVGID_7_" gradientUnits="userSpaceOnUse" x1="32" y1="53.4255" x2="32" y2="4.7256">
			<stop  offset="2.024560e-07" style="stop-color:#00DB41"/>
			<stop  offset="0.2665" style="stop-color:#479E31"/>
			<stop  offset="0.776" style="stop-color:#CA2D13"/>
			<stop  offset="1" style="stop-color:#FF0007"/>
		</linearGradient>
		<path fill="url(#SVGID_7_)" d="M56,61.23H8c-1.1,0-2-0.9-2-2v-2c0-1.1,0.9-2,2-2h48c1.1,0,2,0.9,2,2v2
			C58,60.34,57.1,61.23,56,61.23z"/>
	</g>
</g>
</svg>
