<?xml version="1.0" encoding="utf-8"?>
<!-- Generator: Adobe Illustrator 23.0.5, SVG Export Plug-In . SVG Version: 6.00 Build 0)  -->
<svg version="1.1" xmlns="http://www.w3.org/2000/svg" xmlns:xlink="http://www.w3.org/1999/xlink" x="0px" y="0px"
	 viewBox="0 0 64 64" enable-background="new 0 0 64 64" xml:space="preserve">
<g id="Ruler">
</g>
<g id="temp" display="none">
	<g display="inline">
		<rect x="54.9" y="26.46" fill="#18CDEA" width="6.7" height="2.32"/>
		
			<rect x="48.6" y="10.89" transform="matrix(0.7071 -0.7071 0.7071 0.7071 6.6966 40.2661)" fill="#18CDEA" width="6.7" height="2.32"/>
		
			<rect x="50.79" y="39.85" transform="matrix(0.7071 -0.7071 0.7071 0.7071 -15.3323 49.3873)" fill="#18CDEA" width="2.32" height="6.7"/>
		<rect x="35.21" y="2.4" fill="#18CDEA" width="2.32" height="6.7"/>
		<path fill="#18CDEA" d="M37.4,37.35c4.91-0.51,8.75-4.68,8.75-9.72c0-5.39-4.38-9.77-9.77-9.77c-0.39,0.01-0.78,0.03-1.16,0.08
			v-2.34c0.39-0.04,0.78-0.06,1.17-0.06c6.66,0,12.09,5.43,12.09,12.1c0,6.33-4.88,11.53-11.07,12.06V37.35z"/>
		<path fill="#18CDEA" d="M16.69,52.88c-2.34,0-4.44-1.48-5.22-3.69c-0.49-1.39-0.41-2.9,0.22-4.23c0.64-1.33,1.76-2.34,3.15-2.83
			l0.68-0.24V13.34h2.32v28.54l0.68,0.24c1.58,0.56,2.81,1.79,3.37,3.37c1.02,2.88-0.5,6.05-3.37,7.07
			C17.94,52.77,17.32,52.88,16.69,52.88L16.69,52.88z"/>
		<path fill="#18CDEA" d="M16.67,61.6c-7.86,0-14.26-6.4-14.27-14.26c0-3.76,1.45-7.32,4.08-10l0.29-0.3V12.32
			c0-5.46,4.45-9.91,9.91-9.91s9.91,4.45,9.91,9.91v24.72l0.29,0.3c5.51,5.62,5.42,14.67-0.2,20.18c-2.68,2.63-6.23,4.08-9.99,4.08
			H16.67z M8.72,38.41c-2.38,2.13-3.79,5.06-3.97,8.25c-0.18,3.19,0.9,6.26,3.02,8.64c2.27,2.54,5.52,3.99,8.92,3.99c0,0,0,0,0,0
			c2.94,0,5.77-1.08,7.97-3.04c4.92-4.4,5.34-11.97,0.95-16.89c-0.3-0.33-0.62-0.65-0.95-0.95l-0.38-0.34V12.32
			c0-4.18-3.41-7.58-7.59-7.59h0c-4.18,0-7.58,3.41-7.59,7.59v25.75L8.72,38.41z"/>
	</g>
</g>
<g id="RH" display="none">
	<g id="humidity" display="inline">
		<g>
			<path fill="#AA4522" d="M50.01,35.97C47.57,21.01,29.46,3.51,28.64,2.79c-0.41-0.41-1.02-0.41-1.42,0
				C26.3,3.61,5.54,23.55,5.54,39.12c0,12.31,10.07,22.39,22.39,22.39c3.46,0,6.82-0.81,9.87-2.34c2.14,1.42,4.68,2.34,7.43,2.34
				c7.33,0,13.23-5.9,13.23-13.23C58.46,42.68,55,37.9,50.01,35.97z M27.93,59.48c-11.19,0-20.35-9.16-20.35-20.35
				C7.58,26,24.27,8.6,27.93,4.93c3.36,3.36,17.3,17.91,19.95,30.43c-0.92-0.2-1.73-0.31-2.65-0.31C37.9,35.05,32,40.95,32,48.28
				c0,3.77,1.53,7.12,4.07,9.46C33.53,58.86,30.78,59.48,27.93,59.48z M45.23,59.48c-6.21,0-11.19-4.99-11.19-11.19
				s4.99-11.19,11.19-11.19s11.19,4.99,11.19,11.19S51.44,59.48,45.23,59.48z"/>
			<path fill="#AA4522" d="M27.93,54.39c-8.45,0-15.26-6.82-15.26-15.26c0-0.61-0.41-1.02-1.02-1.02s-1.02,0.41-1.02,1.02
				c0,9.57,7.73,17.3,17.3,17.3c0.61,0,1.02-0.41,1.02-1.02C28.95,54.79,28.54,54.39,27.93,54.39z"/>
			<path fill="#AA4522" d="M48.69,40.24c-0.51-0.2-1.12,0-1.32,0.51L41.26,55c-0.2,0.51,0,1.12,0.51,1.32c0.1,0.1,0.31,0.1,0.41,0.1
				c0.41,0,0.81-0.2,0.92-0.61l6.11-14.25C49.4,41.06,49.2,40.45,48.69,40.24z"/>
			<path fill="#AA4522" d="M44.21,44.21c0-1.73-1.32-3.05-3.05-3.05s-3.05,1.32-3.05,3.05s1.32,3.05,3.05,3.05
				S44.21,45.94,44.21,44.21z M40.14,44.21c0-0.61,0.41-1.02,1.02-1.02s1.02,0.41,1.02,1.02c0,0.61-0.41,1.02-1.02,1.02
				S40.14,44.82,40.14,44.21z"/>
			<path fill="#AA4522" d="M49.3,49.3c-1.73,0-3.05,1.32-3.05,3.05s1.32,3.05,3.05,3.05s3.05-1.32,3.05-3.05S51.03,49.3,49.3,49.3z
				 M49.3,53.37c-0.61,0-1.02-0.41-1.02-1.02c0-0.61,0.41-1.02,1.02-1.02c0.61,0,1.02,0.41,1.02,1.02
				C50.32,52.96,49.91,53.37,49.3,53.37z"/>
		</g>
	</g>
</g>
<g id="CO2" display="none">
	<g display="inline">
		<path fill="#CFF80B" d="M54.9,23.61c0.36-6.36-3.96-12.23-10.19-13.55c-1.92-0.48-3.84-0.48-5.76,0
			c-3.12-3.48-7.67-5.64-12.35-5.88C16.65,3.83,8.13,11.5,7.65,21.45c0,1.32,0,2.52,0.24,3.84c-3.24,2.04-5.28,5.4-5.4,9.23
			c-0.12,3.12,0.96,6,3,8.27c2.04,2.28,4.92,3.6,8.03,3.72l35.13,0.12c0.24,0,0.36,0,0.6,0c3.12,0,6-1.08,8.27-3.24
			c2.4-2.16,3.84-5.28,3.96-8.51C61.74,30.21,59.1,25.77,54.9,23.61z M55.86,41.6c-1.92,1.8-4.44,2.64-7.07,2.52L13.65,44
			c-5.04-0.24-8.87-4.44-8.75-9.47c0.12-3.24,2.04-6.12,4.92-7.67c0.48-0.24,0.72-0.84,0.6-1.32c-0.24-1.32-0.36-2.64-0.36-4.08
			c0.36-8.39,7.31-14.99,15.71-14.99c0.24,0,0.48,0,0.72,0c4.32,0.24,8.51,2.16,11.27,5.52c0.36,0.36,0.84,0.48,1.2,0.36
			c1.68-0.48,3.48-0.48,5.28-0.12c5.04,1.08,8.63,5.88,8.27,11.15c0,0.12,0,0.36,0,0.6v0.12l0,0l0,0l0,0l0,0l0,0l0,0
			c0,0.24,0.12,0.6,0.24,0.84c0,0.12,0.12,0.12,0.12,0.12c0.12,0.12,0.24,0.12,0.36,0.24c3.72,1.56,6,5.4,5.88,9.47
			C58.98,37.4,57.78,39.92,55.86,41.6z"/>
		<path fill="#CFF80B" d="M19.29,48.67c-0.6-0.24-1.32,0-1.56,0.6l-4.32,8.75c-0.24,0.6,0,1.32,0.6,1.56
			c0.12,0.12,0.36,0.12,0.48,0.12c0.48,0,0.84-0.24,1.08-0.72l4.32-8.75C20.13,49.75,19.89,49.03,19.29,48.67z"/>
		<path fill="#CFF80B" d="M26.24,48.67c-0.6-0.24-1.32,0-1.56,0.6l-4.32,8.75c-0.12,0.12-0.12,0.36-0.12,0.48
			c0,0.48,0.24,0.84,0.72,1.08c0.12,0.12,0.36,0.12,0.48,0.12c0.48,0,0.84-0.24,1.08-0.72l4.32-8.75c0.12-0.12,0.12-0.36,0.12-0.48
			C26.96,49.39,26.72,48.91,26.24,48.67z"/>
		<path fill="#CFF80B" d="M33.32,48.67c-0.6-0.24-1.32,0-1.56,0.6l-4.32,8.75c-0.12,0.24-0.24,0.36-0.24,0.6
			c0,0.48,0.24,0.84,0.72,1.08c0.12,0.12,0.36,0.12,0.48,0.12c0.48,0,0.84-0.24,1.08-0.72l4.32-8.75c0.12-0.12,0.12-0.36,0.12-0.48
			C33.92,49.39,33.68,48.91,33.32,48.67z"/>
		<path fill="#CFF80B" d="M40.27,48.67c-0.6-0.24-1.32,0-1.56,0.6l-4.32,8.75c-0.12,0.12-0.12,0.36-0.12,0.48
			c0,0.48,0.24,0.84,0.72,1.08c0.12,0.12,0.36,0.12,0.48,0.12c0.48,0,0.84-0.24,1.08-0.72l4.32-8.75c0.12-0.12,0.12-0.36,0.12-0.48
			C40.99,49.39,40.75,48.91,40.27,48.67z"/>
		<path fill="#CFF80B" d="M47.35,48.67c-0.6-0.24-1.32,0-1.56,0.6l-4.32,8.75c-0.12,0.12-0.12,0.36-0.12,0.48
			c0,0.48,0.24,0.84,0.72,1.08c0.12,0.12,0.36,0.12,0.48,0.12c0.48,0,0.84-0.24,1.08-0.72l4.32-8.75c0.12-0.12,0.12-0.36,0.12-0.48
			C48.07,49.39,47.71,48.91,47.35,48.67z"/>
		<path fill="#CFF80B" d="M26.36,21.69c1.32,0,2.28,0.36,2.88,0.6l0.6-1.92c-0.72-0.36-2.04-0.72-3.48-0.72
			c-4.56,0-7.43,3.12-7.43,7.31s2.76,7.07,6.84,7.07c1.92,0,3.36-0.48,3.96-0.84l-0.48-1.92c-0.72,0.36-1.68,0.72-3.12,0.72
			c-2.76,0-4.8-1.92-4.8-5.16C21.44,24.09,23.12,21.69,26.36,21.69z"/>
		<path fill="#CFF80B" d="M38.47,19.66c-3.84,0-6.84,2.76-6.84,7.31c0,4.32,2.88,7.07,6.6,7.07c3.36,0,6.84-2.28,6.84-7.31
			C45.07,22.53,42.43,19.66,38.47,19.66z M38.35,32.25c-2.52,0-4.2-2.28-4.2-5.28c0-2.64,1.32-5.4,4.32-5.4c3,0,4.2,3,4.2,5.28
			C42.55,29.97,40.75,32.25,38.35,32.25z"/>
		<path fill="#CFF80B" d="M47.35,34.16l0.48-0.36c1.2-1.08,1.92-1.92,1.92-3c0-0.84-0.48-1.56-1.68-1.56c-0.6,0-1.2,0.24-1.56,0.6
			l0.24,0.48c0.24-0.24,0.72-0.48,1.2-0.48c0.84,0,1.08,0.48,1.08,1.08c0,0.84-0.6,1.56-2.04,2.88l-0.6,0.48v0.48h3.6v-0.6H47.35
			L47.35,34.16z"/>
	</g>
</g>
<g id="PM2.5" display="none">
	<g id="PM2.5_1_" display="inline">
		<path fill="#75CC60" d="M9.08,22.44H4.17c-0.93,0-1.68,0.75-1.68,1.68v14.03c0,0.93,0.75,1.68,1.68,1.68s1.68-0.75,1.68-1.68
			v-5.39h3.24c2.85,0.01,5.16-2.3,5.17-5.15c0.01-2.85-2.3-5.16-5.15-5.17C9.1,22.44,9.09,22.44,9.08,22.44L9.08,22.44z M9.08,29.4
			H5.85v-3.6h3.24c0.99,0,1.8,0.8,1.81,1.79c0,0.99-0.8,1.8-1.79,1.81C9.09,29.4,9.09,29.4,9.08,29.4L9.08,29.4z"/>
		<path fill="#75CC60" d="M30.12,24.12c0-0.93-0.75-1.68-1.68-1.68c-0.54,0-1.05,0.26-1.37,0.7l-3.67,5.14l-3.67-5.14
			c-0.54-0.75-1.59-0.93-2.34-0.39c-0.44,0.32-0.7,0.82-0.7,1.37v14.1c0,0.93,0.75,1.68,1.68,1.68s1.68-0.75,1.68-1.68v-8.86
			l1.99,2.79c0.54,0.75,1.59,0.93,2.34,0.39c0.15-0.11,0.28-0.24,0.39-0.39l1.99-2.79v8.86c0,0.93,0.75,1.68,1.68,1.68
			s1.68-0.75,1.68-1.68V24.12z"/>
		<path fill="#75CC60" d="M44.59,27.98c0-3.06-2.48-5.54-5.54-5.54h-0.46c-3.06,0-5.54,2.48-5.54,5.54v0.49
			c0,0.93,0.75,1.68,1.68,1.68s1.68-0.75,1.68-1.68v-0.49c0-1.21,0.98-2.18,2.18-2.18h0.46c1.21,0,2.18,0.98,2.18,2.18
			c0,0.55-0.21,1.08-0.58,1.48c-0.02,0.03-0.05,0.05-0.07,0.08l-6.32,7.74c-0.59,0.72-0.48,1.78,0.24,2.36
			c0.3,0.24,0.67,0.38,1.06,0.38h7.35c0.93,0,1.68-0.75,1.68-1.68s-0.75-1.68-1.68-1.68H39.1l4.05-4.96
			C44.08,30.68,44.59,29.36,44.59,27.98z"/>
		<circle fill="#75CC60" cx="47.72" cy="38.44" r="1.58"/>
		<path fill="#75CC60" d="M55.94,28.84h-1.81V25.8h4.24c0.93,0,1.68-0.75,1.68-1.68s-0.75-1.68-1.68-1.68h-5.92
			c-0.93,0-1.68,0.75-1.68,1.68v6.4c0,0.93,0.75,1.68,1.68,1.68h3.49c1.22,0,2.21,0.99,2.21,2.21c0,1.22-0.99,2.21-2.21,2.21h-3.49
			c-0.93,0-1.68,0.75-1.68,1.68c0,0.93,0.75,1.68,1.68,1.68h3.49c3.07,0,5.57-2.49,5.57-5.57C61.51,31.33,59.02,28.84,55.94,28.84
			L55.94,28.84z"/>
		<circle fill="#75CC60" cx="32" cy="15.11" r="2.14"/>
		<circle fill="#75CC60" cx="48.22" cy="15.11" r="2.14"/>
		<circle fill="#75CC60" cx="15.78" cy="15.11" r="2.14"/>
		<circle fill="#75CC60" cx="23.89" cy="8.28" r="2.14"/>
		<circle fill="#75CC60" cx="40.11" cy="8.28" r="2.14"/>
		<circle fill="#75CC60" cx="32" cy="48.89" r="2.14"/>
		<circle fill="#75CC60" cx="15.78" cy="48.89" r="2.14"/>
		<circle fill="#75CC60" cx="48.22" cy="48.89" r="2.14"/>
		<circle fill="#75CC60" cx="40.11" cy="55.72" r="2.14"/>
		<circle fill="#75CC60" cx="23.89" cy="55.72" r="2.14"/>
	</g>
</g>
<g id="AQI" display="none">
	<g display="inline">
		<path fill="#8CF980" d="M52.46,17.7l-14.35,7.18c-7.96,3.98-12.63,9.21-13.87,15.54c-1.77,8.97,4.77,19.04,6.84,19.91
			c0.29,0.12,0.6,0.19,0.92,0.19l0,0c15.99,0,26.32-8.45,26.32-21.53c0-16.01-2.15-19.9-3.09-20.83
			C54.5,17.42,53.39,17.24,52.46,17.7z M34.28,55.64c-0.05-8.49,5.12-16.13,13.02-19.25c1.22-0.5,1.8-1.9,1.3-3.12
			c-0.5-1.22-1.9-1.8-3.12-1.3c-0.02,0.01-0.04,0.02-0.06,0.03c-7.9,3.09-13.67,10.01-15.3,18.34c-1.27-2.83-1.69-5.97-1.18-9.04
			c0.96-4.78,4.76-8.87,11.31-12.14l12.03-6.02c1.02,5.21,1.44,10.53,1.25,15.84C53.53,48.7,46.21,54.94,34.28,55.64L34.28,55.64z
			 M11.72,23.14c-1.02,5.21-1.44,10.53-1.25,15.84c-0.16,6.71,4.08,12.74,10.45,14.86c1.24,0.47,1.86,1.85,1.4,3.08
			c-0.47,1.24-1.85,1.86-3.08,1.4c-0.02-0.01-0.04-0.02-0.07-0.03c-8.2-2.84-13.64-10.64-13.48-19.31c0-16.01,2.15-19.9,3.09-20.83
			c0.73-0.73,1.84-0.91,2.76-0.45l14.35,7.18c1.19,0.59,1.67,2.03,1.08,3.22c-0.59,1.19-2.03,1.67-3.22,1.08L11.72,23.14z"/>
		<circle fill="#8CF980" cx="30.49" cy="16.16" r="4.28"/>
		<circle fill="#8CF980" cx="15.17" cy="5.53" r="3.13"/>
		<circle fill="#8CF980" cx="42.3" cy="9.55" r="3.13"/>
	</g>
</g>
<g id="Fan_x5F_RPM" display="none">
	<g display="inline">
		<path fill="#18CDEA" d="M58.24,18.78L58.24,18.78c-0.22-0.43-0.66-0.7-1.14-0.7c-0.2,0-0.39,0.05-0.57,0.14
			c-0.62,0.32-0.88,1.08-0.56,1.71c3.22,6.41,3.76,13.69,1.5,20.5c-2.25,6.81-7.02,12.34-13.43,15.56
			c-3.72,1.87-7.9,2.86-12.06,2.86c-6,0-11.83-2.01-16.54-5.7h3.06c0.7,0,1.27-0.57,1.27-1.27c0-0.7-0.57-1.27-1.27-1.27h-6.65
			l-0.22,0.04l-0.26,0.13c-0.14,0.09-0.26,0.21-0.38,0.41c-0.04,0.05-0.07,0.11-0.08,0.23l-0.07,0.09l-0.01,0.12l0,6.65
			c0,0.7,0.57,1.27,1.27,1.27c0.7,0,1.27-0.57,1.27-1.27v-3.56c5.24,4.28,11.81,6.63,18.59,6.63c8.57,0,16.69-3.72,22.28-10.2
			C62.01,42.14,63.59,29.43,58.24,18.78z"/>
		<path fill="#18CDEA" d="M13.01,12.97C18.09,7.91,24.83,5.12,32,5.12c5.99,0,11.82,2.01,16.53,5.68h-3.06
			c-0.7,0-1.27,0.57-1.27,1.27s0.57,1.27,1.27,1.27h6.41v-0.36h0l0.25,0.36l0.27-0.07l-0.09-0.36l0,0l0.27,0.26
			c0.14-0.09,0.26-0.21,0.38-0.39l0.09-0.17l0.09-0.29l0-6.65c0-0.7-0.57-1.27-1.27-1.27c-0.7,0-1.27,0.57-1.27,1.27v3.57
			C45.36,4.97,38.8,2.63,32.04,2.63c-8.58,0-16.71,3.73-22.31,10.23c-7.73,8.99-9.31,21.66-4.03,32.27c0.22,0.43,0.65,0.7,1.14,0.7
			c0.2,0,0.39-0.05,0.57-0.13c0.3-0.15,0.53-0.41,0.64-0.73c0.11-0.32,0.08-0.67-0.07-0.97C2.78,33.63,4.8,21.16,13.01,12.97z"/>
		<path fill="#18CDEA" d="M43,32.53c0.69,0.24,1.42,0.37,2.16,0.37c1.53-0.01,3.03-0.54,4.22-1.49c1.99-1.53,3.17-3.93,3-6.11
			c-0.23-2.52-1.56-4.8-3.63-6.25c-1.45-1.01-3.2-1.54-5.06-1.54c-1.04,0-2.13,0.16-3.25,0.48c-6.22,1.78-7.85,7.3-8.28,10.07
			c-1.41-1.72-1.05-3,0.38-7.08c0.75-2.19,0.33-4.58-1.12-6.38c-1.42-1.87-3.59-3.03-5.67-3.03c-0.14,0-0.28,0.01-0.43,0.02
			c-2.52,0.23-4.8,1.56-6.25,3.63c-1.11,1.59-2.2,4.33-1.06,8.31c1.78,6.22,7.29,7.85,10.07,8.28c-0.78,0.64-1.43,0.89-2.25,0.89
			c-1.11,0-2.57-0.48-4.85-1.27c-0.7-0.24-1.43-0.36-2.17-0.36c-1.53,0-3.03,0.53-4.21,1.48c-1.99,1.53-3.17,3.93-3,6.11
			c0.23,2.52,1.56,4.8,3.64,6.25c1.46,1,3.16,1.53,5.05,1.53c0,0,0,0,0.01,0c1.1,0,2.21-0.16,3.28-0.47
			c6.2-1.79,7.83-7.3,8.26-10.09c1.35,1.64,1.11,2.81-0.38,7.09c-0.75,2.19-0.33,4.58,1.12,6.37c1.35,1.82,3.42,2.92,5.68,3.02
			l0.21,0.01l0.23-0.01c2.52-0.23,4.8-1.56,6.25-3.63c1.11-1.59,2.2-4.33,1.06-8.31c-1.78-6.23-7.3-7.87-10.08-8.3
			c0.78-0.63,1.43-0.89,2.24-0.89C39.26,31.26,40.72,31.74,43,32.53z M29.39,34.7c-0.07,1.25-0.73,7.16-6.55,8.83
			c-0.88,0.25-1.74,0.38-2.55,0.38c-1.37,0-2.58-0.36-3.62-1.08c-1.46-1.01-2.39-2.61-2.57-4.37c-0.1-1.33,0.71-2.9,2.03-3.91
			c0.74-0.61,1.69-0.95,2.65-0.95c0.46,0,0.91,0.07,1.34,0.22c2.28,0.79,4.09,1.42,5.69,1.42c1.14,0,2.16-0.32,3.17-0.99
			C29.11,34.42,29.25,34.57,29.39,34.7z M20.44,22.84c-0.69-2.39-0.44-4.52,0.7-6.16c1.01-1.46,2.61-2.4,4.37-2.57l0.22-0.01
			c1.29,0,2.74,0.8,3.69,2.04c0.92,1.12,1.19,2.61,0.73,3.99c-1.34,3.85-2.17,6.23-0.44,8.86c-0.16,0.12-0.31,0.26-0.45,0.4
			C28,29.31,22.11,28.66,20.44,22.84z M31.98,30.75l0-0.36l0.01,0.36c0.67,0,1.22,0.55,1.22,1.22c0,0.33-0.13,0.64-0.36,0.87
			c-0.23,0.23-0.54,0.36-0.87,0.36c-0.67,0-1.22-0.55-1.23-1.22C30.76,31.31,31.31,30.76,31.98,30.75z M33.84,43.84
			c1.34-3.86,2.17-6.24,0.44-8.86c0.16-0.12,0.3-0.25,0.44-0.39c1.25,0.07,7.16,0.73,8.83,6.54c0.69,2.39,0.44,4.52-0.7,6.16
			c-1.01,1.46-2.61,2.4-4.37,2.57l-0.22,0.01c-1.29,0-2.73-0.79-3.69-2.04C33.65,46.72,33.38,45.19,33.84,43.84z M34.58,29.25
			c0.07-1.25,0.72-7.15,6.54-8.81c0.88-0.25,1.74-0.38,2.54-0.38c1.37,0,2.59,0.36,3.62,1.08c1.46,1.01,2.4,2.61,2.57,4.37
			c0.1,1.33-0.71,2.9-2.03,3.91c-0.75,0.61-1.69,0.95-2.65,0.95c-0.46,0-0.91-0.07-1.34-0.22c-2.28-0.79-4.08-1.42-5.69-1.42
			c-1.14,0-2.15,0.31-3.17,0.98C34.86,29.54,34.73,29.39,34.58,29.25z"/>
	</g>
</g>
<g id="Power" display="none">
	<g display="inline">
		<path fill="#CFF80B" d="M21.33,61.25c0.16,0.08,0.35,0.13,0.53,0.13c0.35,0,0.71-0.16,0.93-0.46l26.4-34.08
			c0.27-0.35,0.33-0.83,0.13-1.23c-0.2-0.4-0.61-0.66-1.06-0.66h-10.8L43,4.1c0.14-0.54-0.12-1.12-0.62-1.36s-1.12-0.11-1.46,0.34
			L14.8,37.55c-0.27,0.35-0.32,0.83-0.12,1.23c0.2,0.4,0.61,0.66,1.06,0.66h10.77l-5.79,20.45C20.57,60.43,20.83,61.01,21.33,61.25z
			 M29.2,38.59c0.11-0.35,0.02-0.74-0.19-1.03c-0.22-0.29-0.56-0.47-0.94-0.47h-9.96L39.19,9.26L34.8,25.83
			c-0.09,0.35-0.01,0.73,0.2,1.02c0.22,0.29,0.56,0.46,0.93,0.46h9.93L24.63,54.7L29.2,38.59z"/>
		<path fill="#CFF80B" d="M30.45,57.88c0.52,0.04,1.03,0.05,1.55,0.05c14.29,0,25.92-11.63,25.92-25.92
			c0-9.13-4.65-17.41-12.47-22.16c-0.55-0.34-1.28-0.16-1.61,0.39c-0.34,0.55-0.16,1.28,0.39,1.61C51.33,16.17,55.57,23.7,55.57,32
			c0,13-10.58,23.57-23.57,23.57c-0.48,0-0.95-0.01-1.42-0.05c-0.67-0.02-1.21,0.46-1.25,1.1C29.3,57.29,29.8,57.85,30.45,57.88z"/>
		<path fill="#CFF80B" d="M18.37,54.06c0.19,0.12,0.41,0.18,0.62,0.18c0.39,0,0.78-0.2,1-0.55c0.34-0.55,0.18-1.28-0.38-1.62
			c-7-4.34-11.19-11.83-11.19-20.06C8.43,19.01,19,8.44,32,8.44c0.42,0,0.83,0.01,1.25,0.04c0.65,0.04,1.2-0.46,1.23-1.12
			c0.04-0.65-0.46-1.2-1.12-1.23C32.92,6.1,32.46,6.09,32,6.09c-14.29,0-25.92,11.63-25.92,25.92
			C6.08,41.06,10.67,49.29,18.37,54.06z"/>
	</g>
</g>
<g id="Pressure" display="none">
	<g display="inline">
		<path fill="#75CC60" d="M41.02,27.14l-7.7,13.07c-0.41,0-0.81-0.1-1.32-0.1c-2.84,0-5.07,2.23-5.07,5.07s2.23,5.07,5.07,5.07
			s5.07-2.23,5.07-5.07c0-1.62-0.81-3.04-1.93-3.95l7.4-12.56c2.03,2.33,3.34,5.27,3.55,8.51c0,0.51,0.51,0.91,1.01,0.91h3.44
			c0.51,0,0.81-0.3,1.01-0.71c0.51-1.72,0.71-3.55,0.71-5.37c0-11.15-9.12-20.26-20.26-20.26S11.74,20.85,11.74,32
			c0,1.82,0.2,3.65,0.71,5.37c0.1,0.41,0.51,0.71,1.01,0.71h3.34c0.51,0,1.01-0.41,1.01-0.91c0.51-7.5,6.69-13.27,14.18-13.27
			C35.44,23.89,38.59,25.11,41.02,27.14z M32,48.21c-1.72,0-3.04-1.32-3.04-3.04s1.32-3.04,3.04-3.04c1.72,0,3.04,1.32,3.04,3.04
			S33.72,48.21,32,48.21z M25.72,23.19l-2.94-6.79c0,0,0-0.1-0.1-0.1c2.43-1.42,5.27-2.33,8.21-2.53v8.11
			C29.16,22.07,27.34,22.48,25.72,23.19z M33.01,21.87v-8.11c3.04,0.2,5.78,1.01,8.21,2.53c0,0,0,0.1-0.1,0.1l-2.94,6.79
			C36.66,22.48,34.84,22.07,33.01,21.87z M49.83,36.05h-1.72c-0.3-2.33-1.11-4.46-2.23-6.38l3.65-2.74
			c0.51,1.62,0.71,3.24,0.71,5.07C50.24,33.42,50.04,34.74,49.83,36.05z M48.82,25.01c-0.1,0-0.2,0.1-0.2,0.1l-3.95,2.94
			c-0.3-0.41-0.71-0.81-1.11-1.22l1.42-2.43c0.3-0.51,0.1-1.11-0.41-1.42s-1.11-0.1-1.42,0.41l-1.22,2.03
			c-0.61-0.51-1.32-0.91-1.93-1.32l2.84-6.59C45.58,19.44,47.6,21.97,48.82,25.01z M15.89,36.05h-1.72
			c-0.3-1.32-0.41-2.63-0.41-4.05c0-1.72,0.3-3.44,0.71-5.07l3.65,2.74C17,31.59,16.19,33.72,15.89,36.05z M19.33,28.05l-3.95-2.94
			c-0.1-0.1-0.1-0.1-0.2-0.1c1.22-3.04,3.34-5.57,5.88-7.6L23.89,24C22.07,25.11,20.55,26.43,19.33,28.05z"/>
		<path fill="#75CC60" d="M56.32,51.25h-6.38C55.1,46.49,58.34,39.6,58.34,32C58.34,17.51,46.49,5.66,32,5.66
			c-1.11,0-2.23,0.1-3.34,0.2c-0.81-1.93-2.63-3.24-4.76-3.24h-1.01c-2.23,0-4.05,1.82-4.05,4.05c0,0.81,0.3,1.52,0.81,2.03
			c-1.11,0.61-2.13,1.22-3.14,2.03H3.63c-0.61,0-1.01,0.41-1.01,1.01c0,0.61,0.41,1.01,1.01,1.01h10.44C8.9,17.51,5.66,24.4,5.66,32
			c0,14.49,11.85,26.34,26.34,26.34c5.78,0,11.15-1.93,15.5-5.07h8.81c1.72,0,3.04,1.32,3.04,3.04s-1.32,3.04-3.04,3.04H55.3
			c-1.11,0-2.03-0.91-2.03-2.03c0-0.61,0.41-1.01,1.01-1.01s1.01-0.41,1.01-1.01s-0.41-1.01-1.01-1.01c-1.72,0-3.04,1.32-3.04,3.04
			c0,2.23,1.82,4.05,4.05,4.05h1.01c2.84,0,5.07-2.23,5.07-5.07S59.15,51.25,56.32,51.25z M21.87,7.68c-0.61,0-1.01-0.41-1.01-1.01
			c0-1.11,0.91-2.03,2.03-2.03h1.01c1.11,0,2.13,0.61,2.63,1.62C24.91,6.57,23.39,7.08,21.87,7.68L21.87,7.68z M26.83,8.19
			c-0.2,1.42-1.42,2.53-2.94,2.53h-3.65C22.27,9.61,24.5,8.7,26.83,8.19z M32,56.32C18.63,56.32,7.68,45.37,7.68,32
			c0-7.8,3.75-14.79,9.52-19.25h6.69c2.74,0,4.96-2.13,5.07-4.86c1.01-0.1,2.03-0.2,3.04-0.2c13.37,0,24.32,10.94,24.32,24.32
			c0,7.8-3.75,14.79-9.52,19.25H27.95c-0.61,0-1.01,0.41-1.01,1.01s0.41,1.01,1.01,1.01h15.81C40.31,55.2,36.26,56.32,32,56.32z"/>
	</g>
</g>
<g id="Valve" display="none">
	<g display="inline">
		<path fill-rule="evenodd" clip-rule="evenodd" fill="#8CF980" d="M27.78,5.81c0.53-1.84,2.22-3.19,4.23-3.19l0,0
			c1.18,0,2.29,0.47,3.12,1.29c0.53,0.53,0.91,1.19,1.12,1.9l12.24,2.72c0.68,0.15,1.15,0.75,1.15,1.44v4.41
			c0,0.81-0.66,1.47-1.47,1.47H36.41v1.54c1.68,0.35,2.94,1.84,2.94,3.63v2.17h2.2c0.97,0,1.91,0.38,2.6,1.07
			c0.69,0.69,1.07,1.62,1.07,2.6s-0.38,1.91-1.07,2.6c-0.24,0.24-0.51,0.44-0.81,0.6c0.71,1.01,1.56,2.26,2.19,3.38
			c0.31,0.53,0.56,1.04,0.75,1.5h7.82c0.15-0.71,0.49-1.35,1-1.87c0.69-0.69,1.62-1.07,2.6-1.07c-0.38,0,0,0,0,0
			c0.97,0,1.91,0.38,2.6,1.07c0.69,0.69,1.07,1.62,1.07,2.6v19.1c0,0.97-0.38,1.91-1.07,2.6c-0.69,0.69-1.62,1.07-2.6,1.07
			s-1.91-0.38-2.6-1.07c-0.51-0.51-0.85-1.16-1-1.87h-8.94c-0.54,0.73-1.22,1.43-1.98,2.06c-2.93,2.37-7.35,3.82-11.19,3.82
			s-8.26-1.45-11.19-3.82c-0.78-0.63-1.44-1.32-1.98-2.06H9.89c-0.15,0.71-0.49,1.35-1,1.87c-0.69,0.69-1.62,1.07-2.6,1.07
			c0.38,0,0,0,0,0c-0.97,0-1.91-0.38-2.6-1.07c-0.69-0.69-1.07-1.62-1.07-2.6v-19.1c0-0.97,0.38-1.91,1.07-2.6
			C4.38,32.38,5.31,32,6.29,32s1.91,0.38,2.6,1.07c0.51,0.51,0.85,1.16,1,1.87h7.82c0.19-0.46,0.44-0.97,0.75-1.5
			c0.65-1.1,1.48-2.37,2.19-3.38c-0.29-0.16-0.56-0.37-0.81-0.6c-0.69-0.69-1.07-1.62-1.07-2.6s0.38-1.91,1.07-2.6
			c0.69-0.69,1.62-1.07,2.6-1.07h2.2v-2.17c0-1.78,1.26-3.28,2.94-3.63v-1.54H15.83c-0.81,0-1.47-0.66-1.47-1.47V9.96
			c0-0.69,0.49-1.28,1.15-1.44l12.24-2.72l0,0L27.78,5.81z M23.95,30.53c-0.68,0.94-2.03,2.82-2.93,4.38
			c-0.35,0.62-0.71,1.45-0.75,1.56V51.1c0,1.63,1,3.04,2.43,4.19c2.44,1.97,6.13,3.16,9.33,3.16s6.91-1.19,9.33-3.16
			c1.43-1.15,2.43-2.56,2.43-4.19V36.47c-0.04-0.1-0.4-0.94-0.75-1.56c-0.91-1.56-2.25-3.44-2.93-4.38H23.96L23.95,30.53z
			 M21.73,39.35v10.28c0,2.28,1.43,4.01,3.26,5.2c2.34,1.53,5.28,2.12,5.28,2.12c0.79,0.16,1.57-0.35,1.73-1.15
			c0.16-0.79-0.35-1.57-1.15-1.73c0,0-2.37-0.47-4.25-1.69c-1-0.65-1.91-1.5-1.91-2.75V39.35c0-0.81-0.66-1.47-1.47-1.47
			c-0.81,0-1.47,0.66-1.47,1.47l0,0H21.73z M6.29,55.51c-0.19,0-0.38-0.07-0.51-0.22c-0.13-0.13-0.22-0.32-0.22-0.51v-19.1
			c0-0.19,0.07-0.38,0.22-0.51c0.13-0.13,0.32-0.22,0.51-0.22c0.19,0,0.38,0.07,0.51,0.22c0.13,0.13,0.22,0.32,0.22,0.51v19.1
			c0,0.19-0.07,0.38-0.22,0.51C6.67,55.42,6.48,55.51,6.29,55.51L6.29,55.51z M57.74,55.51c-0.19,0-0.38-0.07-0.51-0.22
			C57.09,55.15,57,54.96,57,54.77v-19.1c0-0.19,0.07-0.38,0.22-0.51c0.13-0.13,0.32-0.22,0.51-0.22s0.38,0.07,0.51,0.22
			c0.13,0.13,0.22,0.32,0.22,0.51v19.1c0,0.19-0.07,0.38-0.22,0.51C58.12,55.42,57.93,55.51,57.74,55.51L57.74,55.51z M46.55,52.57
			h7.51V37.88h-7.35V51.1C46.71,51.6,46.65,52.08,46.55,52.57L46.55,52.57z M17.32,37.88H9.97v14.69h7.51
			c-0.1-0.48-0.16-0.97-0.16-1.47V37.88L17.32,37.88z M41.57,26.12H22.46c-0.19,0-0.38,0.07-0.51,0.22
			c-0.13,0.13-0.22,0.32-0.22,0.51s0.07,0.38,0.22,0.51c0.13,0.13,0.32,0.22,0.51,0.22h19.11c0.19,0,0.38-0.07,0.51-0.22
			c0.13-0.13,0.22-0.32,0.22-0.51s-0.07-0.38-0.22-0.51C41.95,26.21,41.76,26.12,41.57,26.12L41.57,26.12z M28.37,20.25h7.29
			c0.43,0,0.76,0.34,0.76,0.76v2.17h-8.82v-2.17C27.61,20.58,27.94,20.25,28.37,20.25L28.37,20.25z M33.48,17.31V7.02
			c0-0.4-0.16-0.76-0.43-1.04c-0.28-0.28-0.65-0.43-1.04-0.43l0,0c-0.81,0-1.47,0.66-1.47,1.47v10.28H33.48z M36.42,8.86v4.04h10.29
			v-1.76L36.42,8.85l0,0V8.86z M27.61,12.9V8.86l-10.29,2.29v1.76h10.29V12.9z"/>
	</g>
</g>
<g id="settings">
	<linearGradient id="SVGID_1_" gradientUnits="userSpaceOnUse" x1="3.8971" y1="32" x2="60.1029" y2="32">
		<stop  offset="0" style="stop-color:#78DBAD"/>
		<stop  offset="1" style="stop-color:#008FC7"/>
	</linearGradient>
	<path fill="url(#SVGID_1_)" d="M54.34,35.37c-1.05-0.77-1.68-2.01-1.68-3.32c0-1.31,0.63-2.55,1.68-3.32l4.86-3.56
		c0.77-0.57,1.09-1.57,0.79-2.48c-1.25-3.76-3.23-7.19-5.88-10.19c-0.64-0.72-1.67-0.95-2.55-0.56l-5.47,2.41
		c-1.19,0.53-2.58,0.45-3.71-0.2c-1.13-0.65-1.89-1.81-2.03-3.11l-0.66-6.01c-0.1-0.96-0.82-1.74-1.76-1.93
		c-3.83-0.78-7.86-0.8-11.76-0.01C25.22,3.26,24.51,4.04,24.4,5l-0.65,5.97c-0.14,1.3-0.9,2.46-2.03,3.11
		c-1.13,0.65-2.51,0.73-3.71,0.2l-5.5-2.42c-0.87-0.39-1.91-0.16-2.55,0.56c-2.66,2.99-4.65,6.42-5.91,10.18
		c-0.31,0.91,0.01,1.92,0.79,2.49l4.83,3.54c1.05,0.77,1.68,2.01,1.68,3.32c0,1.31-0.63,2.55-1.68,3.32L4.8,38.83
		c-0.77,0.57-1.09,1.57-0.79,2.48c1.25,3.76,3.23,7.19,5.88,10.19c0.64,0.72,1.67,0.95,2.55,0.56l5.47-2.41
		c1.19-0.53,2.58-0.45,3.71,0.2c1.13,0.65,1.89,1.81,2.03,3.11l0.66,6.01c0.1,0.96,0.82,1.74,1.76,1.93c1.94,0.4,3.93,0.6,5.92,0.6
		c1.94,0,3.91-0.2,5.83-0.58c0.95-0.19,1.66-0.97,1.76-1.93l0.65-5.97c0.14-1.3,0.9-2.46,2.03-3.11c1.13-0.65,2.52-0.73,3.71-0.2
		l5.5,2.42c0.88,0.39,1.91,0.16,2.55-0.56c2.66-2.99,4.65-6.42,5.91-10.18c0.31-0.91-0.01-1.92-0.79-2.49L54.34,35.37z M32,46.59
		c-8.06,0-14.59-6.53-14.59-14.59S23.94,17.41,32,17.41S46.59,23.94,46.59,32S40.06,46.59,32,46.59z"/>
</g>
</svg>
