<svg width="200" height="200" viewBox="0 0 200 200" fill="none" xmlns="http://www.w3.org/2000/svg">
<path fill-rule="evenodd" clip-rule="evenodd" d="M25 41.6661C25 37.0638 28.731 33.3328 33.3333 33.3328H58.3333C72.1404 33.3328 83.3333 44.5257 83.3333 58.3328V83.3328C83.3333 86.2544 82.8321 89.0594 81.9108 91.6661H83.3333C97.1408 91.6661 108.333 102.859 108.333 116.666V141.666C108.333 155.474 97.1408 166.666 83.3333 166.666H33.3333C28.731 166.666 25 162.935 25 158.333C25 153.73 28.731 149.999 33.3333 149.999H83.3333C87.9358 149.999 91.6667 146.269 91.6667 141.666V116.666C91.6667 112.064 87.9358 108.333 83.3333 108.333H58.3333H33.3333C28.731 108.333 25 104.602 25 99.9994C25 95.3969 28.731 91.6661 33.3333 91.6661H58.3333C62.9357 91.6661 66.6667 87.9353 66.6667 83.3328V58.3328C66.6667 53.7304 62.9357 49.9994 58.3333 49.9994H33.3333C28.731 49.9994 25 46.2684 25 41.6661Z" fill="#EF801C"/>
<path fill-rule="evenodd" clip-rule="evenodd" d="M150.884 139L140.11 149.774C136.856 153.029 136.856 158.305 140.11 161.559C143.364 164.814 148.641 164.814 151.895 161.559L176.895 136.559C180.149 133.305 180.149 128.029 176.895 124.774L151.895 99.7744C148.641 96.5202 143.364 96.5202 140.11 99.7744C136.856 103.029 136.856 108.305 140.11 111.559L150.884 122.334H121.003C116.4 122.334 112.669 126.064 112.669 130.667C112.669 135.269 116.4 139 121.003 139H150.884Z" fill="#EF801C"/>
</svg>
