<svg width="50" height="50" viewBox="0 0 50 50" fill="none" xmlns="http://www.w3.org/2000/svg">
<path fill-rule="evenodd" clip-rule="evenodd" d="M6.25 10.4166C6.25 9.266 7.18275 8.33325 8.33333 8.33325H14.5833C18.0351 8.33325 20.8333 11.1315 20.8333 14.5833V20.8333C20.8333 21.5637 20.708 22.2649 20.4777 22.9166H20.8333C24.2852 22.9166 27.0833 25.7147 27.0833 29.1666V35.4166C27.0833 38.8685 24.2852 41.6666 20.8333 41.6666H8.33333C7.18275 41.6666 6.25 40.7339 6.25 39.5833C6.25 38.4326 7.18275 37.4999 8.33333 37.4999H20.8333C21.984 37.4999 22.9167 36.5672 22.9167 35.4166V29.1666C22.9167 28.016 21.984 27.0833 20.8333 27.0833H14.5833H8.33333C7.18275 27.0833 6.25 26.1505 6.25 24.9999C6.25 23.8493 7.18275 22.9166 8.33333 22.9166H14.5833C15.7339 22.9166 16.6667 21.9839 16.6667 20.8333V14.5833C16.6667 13.4327 15.7339 12.4999 14.5833 12.4999H8.33333C7.18275 12.4999 6.25 11.5672 6.25 10.4166Z" fill="#EF801C"/>
<path fill-rule="evenodd" clip-rule="evenodd" d="M37.7211 34.7501L35.0276 37.4436C34.214 38.2571 34.214 39.5763 35.0276 40.3898C35.8411 41.2034 37.1603 41.2034 37.9738 40.3898L44.2238 34.1398C45.0374 33.3263 45.0374 32.0071 44.2238 31.1936L37.9738 24.9436C37.1603 24.1301 35.8411 24.1301 35.0276 24.9436C34.214 25.7571 34.214 27.0763 35.0276 27.8898L37.7211 30.5834H30.2507C29.1001 30.5834 28.1674 31.5161 28.1674 32.6667C28.1674 33.8173 29.1001 34.7501 30.2507 34.7501H37.7211Z" fill="#EF801C"/>
</svg>
