<svg width="200" height="200" viewBox="0 0 200 200" fill="none" xmlns="http://www.w3.org/2000/svg">
<path fill-rule="evenodd" clip-rule="evenodd" d="M25 41.6661C25 37.0638 28.731 33.3328 33.3333 33.3328H58.3333C72.1404 33.3328 83.3333 44.5257 83.3333 58.3328V83.3328C83.3333 86.2544 82.8321 89.0594 81.9108 91.6661H83.3333C97.1408 91.6661 108.333 102.859 108.333 116.666V141.666C108.333 155.474 97.1408 166.666 83.3333 166.666H33.3333C28.731 166.666 25 162.935 25 158.333C25 153.73 28.731 149.999 33.3333 149.999H83.3333C87.9358 149.999 91.6667 146.269 91.6667 141.666V116.666C91.6667 112.064 87.9358 108.333 83.3333 108.333H58.3333H33.3333C28.731 108.333 25 104.602 25 99.9994C25 95.3969 28.731 91.6661 33.3333 91.6661H58.3333C62.9357 91.6661 66.6667 87.9353 66.6667 83.3328V58.3328C66.6667 53.7304 62.9357 49.9994 58.3333 49.9994H33.3333C28.731 49.9994 25 46.2684 25 41.6661Z" fill="#EF801C"/>
<path d="M121.335 128.16C125.526 128.16 128.923 131.557 128.923 135.748C128.923 144.613 136.135 151.825 145 151.825C153.865 151.825 161.077 144.613 161.077 135.748C161.077 128.43 156.162 122.239 149.46 120.301V121.177C149.46 123.311 148.312 125.299 146.464 126.365C144.606 127.437 142.321 127.431 140.474 126.363L124.735 117.269C122.889 116.202 121.742 114.215 121.742 112.083C121.742 109.951 122.889 107.964 124.736 106.897L140.474 97.8032C142.324 96.7339 144.609 96.7311 146.464 97.8017C148.312 98.8683 149.46 100.856 149.46 102.99V104.816C164.587 106.987 176.252 120.03 176.252 135.748C176.252 152.98 162.232 167 145 167C127.768 167 113.748 152.98 113.748 135.748C113.748 131.557 117.145 128.16 121.335 128.16Z" fill="#EF801C"/>
</svg>
