<svg width="50" height="50" viewBox="0 0 50 50" fill="none" xmlns="http://www.w3.org/2000/svg">
<path fill-rule="evenodd" clip-rule="evenodd" d="M6.25 10.4166C6.25 9.266 7.18275 8.33325 8.33333 8.33325H14.5833C18.0351 8.33325 20.8333 11.1315 20.8333 14.5833V20.8333C20.8333 21.5637 20.708 22.2649 20.4777 22.9166H20.8333C24.2852 22.9166 27.0833 25.7147 27.0833 29.1666V35.4166C27.0833 38.8685 24.2852 41.6666 20.8333 41.6666H8.33333C7.18275 41.6666 6.25 40.7339 6.25 39.5833C6.25 38.4326 7.18275 37.4999 8.33333 37.4999H20.8333C21.984 37.4999 22.9167 36.5672 22.9167 35.4166V29.1666C22.9167 28.016 21.984 27.0833 20.8333 27.0833H14.5833H8.33333C7.18275 27.0833 6.25 26.1505 6.25 24.9999C6.25 23.8493 7.18275 22.9166 8.33333 22.9166H14.5833C15.7339 22.9166 16.6667 21.9839 16.6667 20.8333V14.5833C16.6667 13.4327 15.7339 12.4999 14.5833 12.4999H8.33333C7.18275 12.4999 6.25 11.5672 6.25 10.4166Z" fill="#D9D9D9"/>
<g clip-path="url(#clip0_2085_32)">
<path d="M30.3333 32.0401C31.3809 32.0401 32.2302 32.8894 32.2302 33.937C32.2302 36.1532 34.0332 37.9563 36.2495 37.9563C38.4657 37.9563 40.2688 36.1532 40.2688 33.937C40.2688 32.1075 39.04 30.5597 37.3645 30.0752V30.2943C37.3645 30.8277 37.0776 31.3246 36.6156 31.5912C36.1511 31.8593 35.5799 31.8577 35.118 31.5908L31.1833 29.3173C30.7218 29.0506 30.4351 28.5538 30.4351 28.0208C30.4351 27.4877 30.7218 26.991 31.1834 26.7243L35.118 24.4508C35.5805 24.1835 36.1518 24.1828 36.6156 24.4504C37.0776 24.7171 37.3645 25.214 37.3645 25.7474V26.2039C41.1463 26.7467 44.0625 30.0074 44.0625 33.937C44.0625 38.2451 40.5575 41.75 36.2495 41.75C31.9414 41.75 28.4365 38.2451 28.4365 33.937C28.4364 32.8894 29.2857 32.0401 30.3333 32.0401Z" fill="#D9D9D9"/>
</g>
<defs>
<clipPath id="clip0_2085_32">
<rect width="17.5" height="17.5" fill="white" transform="matrix(-1 0 0 1 45 24.25)"/>
</clipPath>
</defs>
</svg>
