<svg width="50" height="50" viewBox="0 0 50 50" fill="none" xmlns="http://www.w3.org/2000/svg">
<path fill-rule="evenodd" clip-rule="evenodd" d="M6.25 10.4166C6.25 9.266 7.18275 8.33325 8.33333 8.33325H14.5833C18.0351 8.33325 20.8333 11.1315 20.8333 14.5833V20.8333C20.8333 21.5637 20.708 22.2649 20.4777 22.9166H20.8333C24.2852 22.9166 27.0833 25.7147 27.0833 29.1666V35.4166C27.0833 38.8685 24.2852 41.6666 20.8333 41.6666H8.33333C7.18275 41.6666 6.25 40.7339 6.25 39.5833C6.25 38.4326 7.18275 37.4999 8.33333 37.4999H20.8333C21.984 37.4999 22.9167 36.5672 22.9167 35.4166V29.1666C22.9167 28.016 21.984 27.0833 20.8333 27.0833H14.5833H8.33333C7.18275 27.0833 6.25 26.1505 6.25 24.9999C6.25 23.8493 7.18275 22.9166 8.33333 22.9166H14.5833C15.7339 22.9166 16.6667 21.9839 16.6667 20.8333V14.5833C16.6667 13.4327 15.7339 12.4999 14.5833 12.4999H8.33333C7.18275 12.4999 6.25 11.5672 6.25 10.4166Z" fill="#D9D9D9"/>
<path fill-rule="evenodd" clip-rule="evenodd" d="M37 42C38.7659 42 45 34.0733 45 29.7778C45 25.4822 41.4183 22 37 22C32.5817 22 29 25.4822 29 29.7778C29 34.0733 35.2341 42 37 42ZM37 33.1111C38.8935 33.1111 40.4285 31.6187 40.4285 29.7778C40.4285 27.9368 38.8935 26.4444 37 26.4444C35.1065 26.4444 33.5715 27.9368 33.5715 29.7778C33.5715 31.6187 35.1065 33.1111 37 33.1111Z" fill="#D9D9D9"/>
</svg>
