<svg width="200" height="200" viewBox="0 0 200 200" fill="none" xmlns="http://www.w3.org/2000/svg">
<path fill-rule="evenodd" clip-rule="evenodd" d="M25 41.6663C25 37.064 28.731 33.333 33.3333 33.333H58.3333C72.1404 33.333 83.3333 44.5259 83.3333 58.333V83.333C83.3333 86.2547 82.8321 89.0597 81.9108 91.6663H83.3333C97.1408 91.6663 108.333 102.859 108.333 116.666V141.666C108.333 155.474 97.1408 166.666 83.3333 166.666H33.3333C28.731 166.666 25 162.935 25 158.333C25 153.731 28.731 150 33.3333 150H83.3333C87.9358 150 91.6667 146.269 91.6667 141.666V116.666C91.6667 112.064 87.9358 108.333 83.3333 108.333H58.3333H33.3333C28.731 108.333 25 104.602 25 99.9997C25 95.3972 28.731 91.6663 33.3333 91.6663H58.3333C62.9357 91.6663 66.6667 87.9355 66.6667 83.333V58.333C66.6667 53.7307 62.9357 49.9997 58.3333 49.9997H33.3333C28.731 49.9997 25 46.2687 25 41.6663Z" fill="#EF801C"/>
<g clip-path="url(#clip0_1740_117)">
<path fill-rule="evenodd" clip-rule="evenodd" d="M148 168C155.064 168 180 136.293 180 119.111C180 101.929 165.673 87.9998 148 87.9998C130.327 87.9998 116 101.929 116 119.111C116 136.293 140.936 168 148 168ZM148 132.444C155.574 132.444 161.714 126.475 161.714 119.111C161.714 111.747 155.574 105.778 148 105.778C140.426 105.778 134.286 111.747 134.286 119.111C134.286 126.475 140.426 132.444 148 132.444Z" fill="#EF801C"/>
</g>
<defs>
<clipPath id="clip0_1740_117">
<rect width="80" height="80" fill="white" transform="translate(108 87.9998)"/>
</clipPath>
</defs>
</svg>
