<svg width="50" height="50" viewBox="0 0 50 50" fill="none" xmlns="http://www.w3.org/2000/svg">
<path fill-rule="evenodd" clip-rule="evenodd" d="M6.25 10.4166C6.25 9.266 7.18275 8.33325 8.33333 8.33325H14.5833C18.0351 8.33325 20.8333 11.1315 20.8333 14.5833V20.8333C20.8333 21.5637 20.708 22.2649 20.4777 22.9166H20.8333C24.2852 22.9166 27.0833 25.7147 27.0833 29.1666V35.4166C27.0833 38.8685 24.2852 41.6666 20.8333 41.6666H8.33333C7.18275 41.6666 6.25 40.7339 6.25 39.5833C6.25 38.4326 7.18275 37.4999 8.33333 37.4999H20.8333C21.984 37.4999 22.9167 36.5672 22.9167 35.4166V29.1666C22.9167 28.016 21.984 27.0833 20.8333 27.0833H14.5833H8.33333C7.18275 27.0833 6.25 26.1505 6.25 24.9999C6.25 23.8493 7.18275 22.9166 8.33333 22.9166H14.5833C15.7339 22.9166 16.6667 21.9839 16.6667 20.8333V14.5833C16.6667 13.4327 15.7339 12.4999 14.5833 12.4999H8.33333C7.18275 12.4999 6.25 11.5672 6.25 10.4166Z" fill="#D9D9D9"/>
<path d="M37.6806 39.1731C41.0431 37.4585 43.6673 34.6191 43.6673 31.1667C43.6673 27.4848 40.6826 24.5 37.0007 24.5C33.3188 24.5 30.334 27.4848 30.334 31.1667C30.334 34.6191 32.9582 37.4585 36.3207 39.1731C36.748 39.3909 37.2533 39.3909 37.6806 39.1731Z" stroke="#D9D9D9" stroke-width="1.25" stroke-linecap="round" stroke-linejoin="round"/>
<path d="M39.5 31.1667C39.5 32.5475 38.3807 33.6667 37 33.6667C35.6192 33.6667 34.5 32.5475 34.5 31.1667C34.5 29.786 35.6192 28.6667 37 28.6667C38.3807 28.6667 39.5 29.786 39.5 31.1667Z" stroke="#D9D9D9" stroke-width="1.25" stroke-linecap="round" stroke-linejoin="round"/>
</svg>
