<svg width="800" height="800" viewBox="0 0 800 800" fill="none" xmlns="http://www.w3.org/2000/svg">
<path d="M725.019 400.026C725.031 460.396 719.177 520.623 707.541 579.86C706.255 586.362 702.441 592.087 696.936 595.777C691.431 599.466 684.685 600.819 678.183 599.538C671.681 598.256 665.954 594.445 662.26 588.942C658.567 583.44 657.21 576.696 658.487 570.192C669.494 514.14 675.031 457.15 675.018 400.026C675.018 327.092 646.045 257.145 594.473 205.572C542.9 154 472.953 125.026 400.018 125.026C327.084 125.026 257.137 154 205.564 205.572C153.992 257.145 125.018 327.092 125.018 400.026C125.061 436.927 118.805 473.563 106.519 508.358C104.298 514.595 99.6944 519.697 93.717 522.544C87.7395 525.392 80.8768 525.752 74.6344 523.545C68.3919 521.339 63.2795 516.746 60.4189 510.775C57.5582 504.804 57.1829 497.943 59.3752 491.695C69.7684 462.252 75.0589 431.25 75.0185 400.026C75.0185 313.831 109.259 231.166 170.209 170.217C231.158 109.267 313.823 75.0264 400.019 75.0264C486.214 75.0264 568.879 109.267 629.828 170.217C690.778 231.166 725.019 313.831 725.019 400.026ZM290.656 263.402C295.829 259.255 299.143 253.222 299.869 246.632C300.595 240.041 298.673 233.432 294.525 228.258C292.472 225.697 289.934 223.564 287.056 221.984C284.179 220.403 281.018 219.404 277.755 219.045C271.164 218.319 264.555 220.241 259.381 224.389C233.003 245.424 211.715 272.146 197.108 302.558C182.5 332.971 174.949 366.29 175.019 400.029C175.187 457.884 161.833 514.976 136.02 566.753C134.552 569.694 133.678 572.894 133.449 576.173C133.219 579.451 133.638 582.742 134.682 585.859C135.725 588.975 137.373 591.855 139.531 594.333C141.689 596.812 144.314 598.841 147.257 600.304C150.2 601.767 153.402 602.636 156.681 602.86C159.959 603.084 163.25 602.66 166.364 601.611C169.479 600.563 172.356 598.91 174.831 596.748C177.306 594.586 179.331 591.958 180.789 589.013C210.058 530.326 225.204 465.61 225.019 400.029C224.966 373.784 230.842 347.865 242.207 324.207C253.572 300.549 270.134 279.764 290.656 263.402ZM400.019 375.029C393.388 375.03 387.03 377.664 382.341 382.352C377.653 387.041 375.019 393.399 375.019 400.029C375.04 497.422 350.339 593.227 303.232 678.469C301.637 681.34 300.624 684.497 300.25 687.76C299.876 691.023 300.148 694.328 301.052 697.486C301.956 700.644 303.473 703.592 305.516 706.163C307.56 708.734 310.09 710.878 312.962 712.471C315.835 714.063 318.993 715.075 322.256 715.447C325.519 715.819 328.824 715.544 331.981 714.638C335.138 713.733 338.085 712.214 340.655 710.168C343.225 708.123 345.367 705.591 346.958 702.718C398.175 610.054 425.034 505.906 425.019 400.03C425.018 393.399 422.384 387.041 417.696 382.352C413.008 377.664 406.649 375.03 400.019 375.029ZM400.019 275.029C366.878 275.067 335.106 288.249 311.672 311.683C288.238 335.117 275.056 366.889 275.019 400.029C275.019 406.66 277.652 413.019 282.341 417.707C287.029 422.396 293.388 425.029 300.019 425.029C306.649 425.029 313.008 422.396 317.696 417.707C322.385 413.019 325.019 406.66 325.019 400.029C325.019 380.138 332.92 361.062 346.986 346.996C361.051 332.931 380.127 325.029 400.019 325.029C419.91 325.029 438.986 332.931 453.052 346.996C467.117 361.062 475.019 380.138 475.019 400.029C475.274 499.429 453.378 597.637 410.922 687.514C409.523 690.484 408.721 693.7 408.564 696.98C408.408 700.259 408.898 703.537 410.008 706.627C411.118 709.716 412.826 712.557 415.034 714.987C417.242 717.417 419.907 719.388 422.876 720.788C425.846 722.187 429.062 722.989 432.341 723.146C435.621 723.302 438.899 722.812 441.989 721.702C445.078 720.592 447.919 718.884 450.349 716.676C452.779 714.468 454.75 711.803 456.15 708.834C501.759 612.293 525.285 506.802 525.019 400.029C524.981 366.889 511.799 335.117 488.365 311.683C464.931 288.249 433.159 275.067 400.019 275.029ZM294.989 475.527C288.492 474.215 281.74 475.535 276.215 479.196C270.69 482.857 266.843 488.561 265.518 495.055C255.391 544.981 237.234 592.934 211.756 637.047C210.113 639.891 209.046 643.031 208.617 646.287C208.188 649.543 208.404 652.852 209.254 656.025C210.105 659.197 211.571 662.171 213.571 664.777C215.571 667.382 218.065 669.568 220.91 671.209C223.754 672.85 226.895 673.915 230.151 674.342C233.408 674.77 236.717 674.551 239.889 673.699C243.061 672.847 246.034 671.379 248.638 669.377C251.242 667.376 253.426 664.881 255.066 662.035C283.243 613.248 303.321 560.213 314.517 504.998C315.836 498.5 314.519 491.745 310.857 486.218C307.195 480.691 301.487 476.845 294.989 475.527ZM400.019 175.029C390.626 175.03 381.242 175.611 371.921 176.769C368.663 177.176 365.517 178.22 362.663 179.843C359.809 181.465 357.302 183.634 355.286 186.225C353.271 188.817 351.785 191.779 350.914 194.945C350.043 198.11 349.804 201.416 350.211 204.674C351.032 211.254 354.434 217.237 359.667 221.309C362.258 223.325 365.221 224.811 368.387 225.681C371.552 226.552 374.858 226.791 378.116 226.384C385.382 225.481 392.697 225.028 400.019 225.029C446.415 225.082 490.897 243.536 523.705 276.343C556.512 309.151 574.967 353.633 575.019 400.03C575.019 432.423 573.016 464.786 569.022 496.932C568.201 503.511 570.028 510.147 574.1 515.38C578.172 520.613 584.156 524.014 590.735 524.834C597.314 525.655 603.95 523.828 609.183 519.756C614.416 515.684 617.817 509.7 618.637 503.121C622.887 468.921 625.018 434.492 625.019 400.03C624.951 340.376 601.224 283.186 559.043 241.005C516.862 198.824 459.672 175.097 400.019 175.029ZM581.049 575.817C577.87 574.996 574.56 574.81 571.308 575.27C568.057 575.729 564.928 576.825 562.101 578.495C559.274 580.165 556.803 582.375 554.831 585.001C552.859 587.626 551.424 590.614 550.608 593.795C546.03 611.571 540.753 629.391 534.925 646.758C533.88 649.87 533.458 653.158 533.684 656.433C533.91 659.709 534.778 662.907 536.24 665.847C537.702 668.786 539.729 671.409 542.205 673.565C544.68 675.722 547.556 677.369 550.669 678.414C553.781 679.459 557.069 679.88 560.344 679.655C563.619 679.429 566.818 678.56 569.757 677.098C572.697 675.636 575.32 673.61 577.476 671.134C579.632 668.658 581.28 665.782 582.325 662.67C588.535 644.17 594.156 625.191 599.027 606.258C599.845 603.079 600.03 599.77 599.569 596.519C599.109 593.269 598.013 590.141 596.343 587.314C594.674 584.487 592.464 582.017 589.84 580.044C587.215 578.071 584.228 576.635 581.049 575.817Z" fill="#EF801C"/>
</svg>
