<svg width="200" height="200" viewBox="0 0 200 200" fill="none" xmlns="http://www.w3.org/2000/svg">
<path fill-rule="evenodd" clip-rule="evenodd" d="M25 41.6666C25 37.0643 28.731 33.3333 33.3333 33.3333H58.3333C72.1404 33.3333 83.3333 44.5262 83.3333 58.3333V83.3333C83.3333 86.2549 82.8321 89.0599 81.9108 91.6666H83.3333C97.1408 91.6666 108.333 102.859 108.333 116.667V141.667C108.333 155.474 97.1408 166.667 83.3333 166.667H33.3333C28.731 166.667 25 162.936 25 158.333C25 153.731 28.731 150 33.3333 150H83.3333C87.9358 150 91.6667 146.269 91.6667 141.667V116.667C91.6667 112.064 87.9358 108.333 83.3333 108.333H58.3333H33.3333C28.731 108.333 25 104.602 25 99.9999C25 95.3974 28.731 91.6666 33.3333 91.6666H58.3333C62.9357 91.6666 66.6667 87.9358 66.6667 83.3333V58.3333C66.6667 53.7309 62.9357 49.9999 58.3333 49.9999H33.3333C28.731 49.9999 25 46.2689 25 41.6666Z" fill="#EF801C"/>
<path fill-rule="evenodd" clip-rule="evenodd" d="M130.008 121.027C130.008 114.391 132.644 108.028 137.336 103.336C142.028 98.6436 148.391 96.0077 155.027 96.0077C161.662 96.0077 168.026 98.6436 172.718 103.336C177.41 108.028 180.046 114.391 180.046 121.027C180.046 127.662 177.41 134.026 172.718 138.718C168.026 143.41 161.662 146.046 155.027 146.046C148.391 146.046 142.028 143.41 137.336 138.718C132.644 134.026 130.008 127.662 130.008 121.027ZM155.027 86C149.477 86 144.006 87.3189 139.066 89.8479C134.125 92.377 129.857 96.0439 126.612 100.546C123.366 105.049 121.238 110.258 120.401 115.745C119.564 121.231 120.042 126.838 121.797 132.103C123.553 137.369 126.534 142.141 130.495 146.029C134.457 149.916 139.285 152.806 144.583 154.461C149.881 156.115 155.496 156.488 160.965 155.547C166.435 154.606 171.603 152.378 176.043 149.048C176.185 149.238 176.341 149.417 176.508 149.584L191.52 164.595C192.464 165.507 193.728 166.011 195.04 166C196.352 165.988 197.607 165.462 198.534 164.534C199.462 163.607 199.988 162.352 200 161.04C200.011 159.728 199.507 158.464 198.595 157.52L183.584 142.508C183.417 142.341 183.238 142.185 183.048 142.043C186.951 136.839 189.328 130.651 189.912 124.173C190.496 117.694 189.265 111.181 186.356 105.362C183.447 99.5442 178.975 94.6511 173.442 91.2312C167.908 87.8114 161.532 86 155.027 86Z" fill="#EF801C"/>
</svg>
