<svg width="800" height="800" viewBox="0 0 800 800" fill="none" xmlns="http://www.w3.org/2000/svg">
<path fill-rule="evenodd" clip-rule="evenodd" d="M734.889 366.556C734.889 384.95 719.839 400 701.444 400H634.556V466.889C634.556 485.283 619.506 500.333 601.111 500.333C582.717 500.333 567.667 485.283 567.667 466.889V400H500.778C482.383 400 467.333 384.95 467.333 366.556C467.333 348.161 482.383 333.111 500.778 333.111H567.667V266.222C567.667 247.828 582.717 232.778 601.111 232.778C619.506 232.778 634.556 247.828 634.556 266.222V333.111H701.444C719.839 333.111 734.889 348.161 734.889 366.556ZM199.778 333.111H300.111V165.889H199.778V333.111ZM132.889 634.111H300.111V400H132.889V634.111ZM601.111 567.222C582.717 567.222 567.667 582.272 567.667 600.667V634.111H367V266.222H467.333C485.728 266.222 500.778 251.172 500.778 232.778C500.778 214.383 485.728 199.333 467.333 199.333H367V132.444C367 114.05 351.95 99 333.556 99H166.333C147.939 99 132.889 114.05 132.889 132.444V333.111H99.4444C81.05 333.111 66 348.161 66 366.556V667.556C66 685.95 81.05 701 99.4444 701H601.111C619.506 701 634.556 685.95 634.556 667.556V600.667C634.556 582.272 619.506 567.222 601.111 567.222Z" fill="#EF801C"/>
</svg>
