<svg width="50" height="50" viewBox="0 0 50 50" fill="none" xmlns="http://www.w3.org/2000/svg">
<path d="M25.0007 43.75L20.834 41.6667M25.0007 43.75L29.1673 41.6667M25.0007 43.75V38.5417M12.5007 37.5L8.33398 35.4167V30.2083M8.33398 19.7917V14.5833M8.33398 14.5833L12.5007 12.5M8.33398 14.5833L12.5007 16.6667M20.834 8.33333L25.0007 6.25L29.1673 8.33333M37.5006 12.5L41.6673 14.5833M41.6673 14.5833L37.5006 16.6667M41.6673 14.5833V19.7917M25.0007 22.9167L20.834 20.8333M25.0007 22.9167L29.1673 20.8333M25.0007 22.9167V28.125M37.5006 37.5L41.6673 35.4167V30.2083" stroke="#D9D9D9" stroke-width="4.16667" stroke-linecap="round" stroke-linejoin="round"/>
</svg>
